<svg width="960" height="540" xmlns="http://www.w3.org/2000/svg" xmlns:xlink="http://www.w3.org/1999/xlink" overflow="hidden"><defs><clipPath id="clip0"><rect x="0" y="0" width="960" height="540"/></clipPath><clipPath id="clip1"><rect x="138" y="2" width="27" height="31"/></clipPath><clipPath id="clip2"><rect x="138" y="2" width="27" height="31"/></clipPath><clipPath id="clip3"><rect x="138" y="2" width="27" height="31"/></clipPath></defs><g clip-path="url(#clip0)"><rect x="0" y="0" width="960" height="539.906" fill="#F6F4F2"/><rect x="0" y="0" width="960" height="110.981" fill="#002147"/><rect x="0" y="0" width="960" height="34.9939" fill="#A41034"/><rect x="0" y="509.911" width="960" height="29.9948" fill="#002147"/><text fill="#FFFFFF" font-family="Aptos,Aptos_MSFontService,sans-serif" font-weight="700" font-size="9" transform="matrix(1 0 0 0.999826 170.155 12)">HARVARD KENNEDY SCHOOL</text><text fill="#FFFFFF" font-family="Arial,Arial_MSFontService,sans-serif" font-weight="400" font-size="7" transform="matrix(1 0 0 0.999826 170.538 20)">DPI</text><text fill="#FFFFFF" font-family="Arial,Arial_MSFontService,sans-serif" font-weight="400" font-size="7" transform="matrix(1 0 0 0.999826 181.707 20)">-</text><text fill="#FFFFFF" font-family="Arial,Arial_MSFontService,sans-serif" font-weight="400" font-size="7" transform="matrix(1 0 0 0.999826 183.874 20)">691M</text><text fill="#FFFFFF" font-family="Arial,Arial_MSFontService,sans-serif" font-weight="400" font-size="7" transform="matrix(1 0 0 0.999826 202.21 20)">PROGRAMMING AND DATA</text><text fill="#FFFFFF" font-family="Arial,Arial_MSFontService,sans-serif" font-weight="400" font-size="7" transform="matrix(1 0 0 0.999826 170.538 28)">FOR POLICYMAKERS</text><rect x="0" y="530.908" width="960" height="34.9939" fill="#A41034"/><g clip-path="url(#clip1)"><g clip-path="url(#clip2)"><g clip-path="url(#clip3)"><path d="M0 0C8.55855 0 17.1171 0 25.935 0 25.9482 0.173006 25.9599 0.340611 25.9597 0.51324 25.9597 0.545545 25.9597 0.545545 25.9599 0.578502 25.9601 0.649788 25.9601 0.721071 25.9601 0.792356 25.9604 0.84391 25.9604 0.895464 25.9606 0.94702 25.9608 1.08687 25.961 1.22672 25.961 1.36657 25.961 1.4548 25.9612 1.54304 25.9612 1.63127 25.9614 1.87785 25.9616 2.12442 25.9619 2.37101 25.9619 2.38676 25.9619 2.40253 25.9619 2.41876 25.9619 2.43455 25.9619 2.45035 25.9619 2.46662 25.9619 2.4986 25.9619 2.53058 25.9619 2.56254 25.9619 2.57842 25.9619 2.59428 25.9619 2.61062 25.9619 2.84819 25.9623 3.08577 25.9627 3.32334 25.9653 4.68607 25.9682 6.04756 25.894 7.40876 25.8906 7.47262 25.8873 7.53647 25.8839 7.60032 25.7684 9.78562 25.5738 11.974 23.6817 18.2 23.6713 18.2232 23.6607 18.2463 23.6498 18.2702 23.3911 18.8401 23.1168 19.4008 22.8033 19.9427 22.7632 20.0132 22.7246 20.0845 22.6861 20.156 22.2601 20.945 21.7549 21.6972 21.2254 22.42 21.1888 22.4701 21.1522 22.5201 21.1157 22.5704 20.8644 22.9142 20.6027 23.2494 20.3326 23.579 20.3047 23.613 20.2769 23.6472 20.2491 23.6812 20.1242 23.8348 19.9969 23.9863 19.8683 24.1367 19.8572 24.1497 19.846 24.1629 19.8344 24.1763 19.6883 24.347 19.5394 24.5145 19.3862 24.6792 19.335 24.7342 19.2846 24.7901 19.2346 24.8463 18.9681 25.1429 18.6895 25.4273 18.4074 25.7088 18.351 25.7649 18.2949 25.8212 18.2387 25.8776 18.2023 25.914 18.166 25.9504 18.1296 25.9866 18.1131 26.0033 18.0966 26.0197 18.0796 26.0368 17.9909 26.125 17.9005 26.2097 17.8053 26.291 17.7654 26.3261 17.728 26.3629 17.6908 26.4008 17.627 26.4656 17.5602 26.5254 17.4913 26.5848 17.4431 26.627 17.3959 26.6704 17.3489 26.7139 17.2366 26.8181 17.1216 26.9169 17.0022 27.0129 16.941 27.0636 16.8825 27.1163 16.8242 27.17 16.7087 27.2759 16.5887 27.375 16.4667 27.4733 16.4395 27.4954 16.4124 27.5175 16.3852 27.5398 15.4861 28.2739 14.5455 28.9642 13.5522 29.5663 13.4731 29.6144 13.3971 29.6651 13.3219 29.7191 13.0806 29.8868 13.0806 29.8868 12.939 29.8664 12.8609 29.8348 12.7938 29.7884 12.7254 29.7399 12.6709 29.7022 12.615 29.6686 12.5579 29.6352 12.2574 29.458 11.9672 29.2645 11.677 29.0712 11.6593 29.0595 11.6416 29.0476 11.6234 29.0355 11.3088 28.8258 10.998 28.6108 10.6938 28.3859 10.677 28.3736 10.6601 28.361 10.6427 28.3482 10.4733 28.2228 10.3069 28.0934 10.1411 27.9632 10.0999 27.9309 10.0584 27.8984 10.017 27.8661 9.76202 27.6672 9.51041 27.464 9.26428 27.2541 9.19236 27.1928 9.11946 27.1329 9.04583 27.0738 8.92929 26.9791 8.81974 26.8777 8.71 26.7754 8.64569 26.7154 8.57989 26.6574 8.51348 26.5997 8.2534 26.3733 8.00044 26.1382 7.75821 25.8928 7.68814 25.8221 7.61551 25.7563 7.53991 25.6917 7.4217 25.5868 7.31142 25.4735 7.20831 25.3539 7.12805 25.2616 7.04236 25.1756 6.955 25.09 6.85481 24.9916 6.75857 24.892 6.66696 24.7858 6.60695 24.7169 6.54383 24.651 6.48104 24.5849 6.37509 24.4723 6.27458 24.3574 6.17805 24.2365 6.1284 24.1761 6.07637 24.1185 6.02333 24.0608 5.93539 23.9651 5.85236 23.8667 5.77079 23.7657 5.72542 23.7101 5.67922 23.6552 5.63253 23.6006 5.52563 23.4758 5.4233 23.348 5.32382 23.2171 5.26899 23.145 5.21313 23.0735 5.15721 23.0022 4.30556 21.9143 3.5488 20.743 2.90333 19.5217 2.88715 19.4911 2.88715 19.4911 2.87064 19.46 2.7939 19.3149 2.71828 19.1693 2.64333 19.0233 2.63204 19.0014 2.62078 18.9795 2.60914 18.9569 1.68344 17.1499 1.03198 15.1973 0.108333 8.62333 0.106653 8.59861 0.104972 8.57389 0.103241 8.54843 0.0602277 7.91102 0.033841 7.273 0.0102529 6.63464 0.00819271 6.57902 0.00610491 6.52338 0.00401358 6.46776-0.03587 5.39931-0.0470661 4.33088-0.046119 3.26179-0.0460373 3.15885-0.046067 3.05593-0.046158 2.95299-0.0466802 2.34622-0.0451919 1.73954-0.033685 1.13285-0.0332642 1.11028-0.0328436 1.08772-0.0324101 1.06447-0.0255985 0.709442-0.0126759 0.354926 0 0Z" fill="#251F21" transform="matrix(1 0 0 1.0039 138.043 2.99948)"/><path d="M0 0C8.1939 0 16.3878 0 24.83 0 24.8549 0.524921 24.8549 0.524921 24.8584 0.700189 24.8588 0.720982 24.8592 0.741773 24.8597 0.763197 24.861 0.830637 24.8623 0.898079 24.8634 0.965521 24.864 1.00143 24.864 1.00143 24.8649 1.03807 24.8757 1.63794 24.8794 2.23782 24.8801 2.83779 24.8801 2.88208 24.8803 2.92639 24.8803 2.97067 24.8816 3.94013 24.8642 4.90819 24.8313 5.87708 24.8309 5.89173 24.8304 5.90636 24.8298 5.92143 24.8229 6.12976 24.8155 6.33809 24.8077 6.54639 24.8068 6.57102 24.806 6.59568 24.8051 6.62107 24.8025 6.69041 24.7999 6.75974 24.7971 6.82907 24.7964 6.84881 24.7956 6.86853 24.7949 6.88885 24.7888 7.04152 24.7767 7.19234 24.765 7.345 16.6068 7.345 8.4487 7.345 0.0433333 7.345-0.0115672 6.19209-0.0115672 6.19209-0.0241211 5.78771-0.0245715 5.77328-0.0250218 5.75885-0.0254859 5.74398-0.05344 4.83962-0.0491244 3.9348-0.0476797 3.0301-0.0473882 2.83864-0.0473395 2.64719-0.0473536 2.45572-0.0473683 2.22224-0.0472177 1.98877-0.0470188 1.75529-0.0469733 1.68962-0.0469573 1.62394-0.0469486 1.55827-0.0466414 0.37313-0.0466414 0.37313 0 0Z" fill="#B7073D" transform="matrix(1 0 0 1.0039 138.563 3.41275)"/><path d="M0 0C0.023103-0.000186671 0.0462059-0.00037334 0.0700091-0.000565669 0.145888-0.00105495 0.22175-0.000910912 0.297631-0.000714112 0.350703-0.000827632 0.403774-0.000963647 0.456844-0.00112109 0.567905-0.00134621 0.67896-0.00124811 0.790019-0.000930991 0.931914-0.000558861 1.07379-0.0010675 1.21568-0.00182993 1.32524-0.00230717 1.4348-0.00227452 1.54436-0.00209502 1.59665-0.00207732 1.64894-0.00222491 1.70124-0.00254505 1.77455-0.00292506 1.84783-0.00260622 1.92114-0.00211588 1.94246-0.00236921 1.96379-0.00262256 1.98576-0.00288355 2.12577-0.000990879 2.22465 0.0301167 2.34797 0.0966741 2.41579 0.124675 2.46135 0.127373 2.5342 0.119891 2.59025 0.0974161 2.59025 0.0974161 2.64431 0.0665793 2.78064 0.00147411 2.89815-0.00366604 3.04746-0.00211588 3.07383-0.00227093 3.10022-0.00242595 3.12741-0.00258568 3.19904-0.00288704 3.27063-0.00270894 3.34226-0.0022804 3.41759-0.00192247 3.49293-0.00211668 3.56826-0.00222664 3.69464-0.00232423 3.821-0.00198288 3.94738-0.00137533 4.09311-0.000680043 4.23885-0.000681698 4.38457-0.00105498 4.52536-0.00139955 4.66613-0.00125237 4.80692-0.00088301 4.86659-0.000734797 4.92624-0.000755844 4.98591-0.000916485 5.06928-0.00111441 5.15266-0.000592479 5.23603 0 5.27284-0.000212091 5.27284-0.000212091 5.31037-0.000428467 5.48667 0.00169739 5.60655 0.0320591 5.73545 0.1551 5.86883 0.33603 5.88263 0.521599 5.87628 0.740099 5.87589 0.76599 5.8755 0.791882 5.87511 0.818556 5.87409 0.881799 5.87268 0.945002 5.87087 1.00822 5.88536 1.00804 5.89985 1.00785 5.91478 1.00765 5.94362 1.00743 5.94362 1.00743 5.97302 1.00721 5.99198 1.00702 6.01096 1.00683 6.03048 1.00664 6.21446 1.01176 6.40202 1.07235 6.54119 1.19374 6.62913 1.29768 6.63895 1.35819 6.63581 1.4909 6.62627 1.57617 6.60159 1.61789 6.54253 1.67989 6.42317 1.77034 6.30238 1.81459 6.15795 1.84916 6.13984 1.85384 6.1217 1.85852 6.10302 1.86334 6.02149 1.88382 5.95586 1.89656 5.87087 1.89656 5.87087 2.4471 5.87087 2.99765 5.87087 3.56488 5.95667 3.56488 6.04246 3.56488 6.13087 3.56488 6.29447 3.5969 6.42518 3.63736 6.54253 3.75988 6.60569 3.86644 6.62526 3.96353 6.60753 4.08488 6.56116 4.22168 6.50381 4.32352 6.37462 4.39229 6.20577 4.4691 6.0556 4.48101 5.87087 4.47488 5.87212 4.50216 5.87338 4.52942 5.87468 4.5575 5.88289 4.81321 5.88313 5.08411 5.72919 5.30211 5.58991 5.4348 5.37171 5.49605 5.18319 5.49584 5.16317 5.49586 5.14315 5.49588 5.12252 5.49592 5.08998 5.49579 5.08998 5.49579 5.05678 5.49569 5.03373 5.49569 5.01068 5.49569 4.98693 5.49569 4.91084 5.49569 4.83476 5.49551 4.75867 5.49534 4.70589 5.4953 4.65309 5.49527 4.60029 5.49525 4.4614 5.49516 4.32254 5.49495 4.18366 5.49471 4.04192 5.49449 3.90015 5.49439 3.75841 5.49428 3.48034 5.49406 3.20227 5.49369 2.9242 5.49322 2.91802 5.51016 2.91187 5.52708 2.9055 5.54452 2.86449 5.63951 2.79376 5.6761 2.70619 5.72613 2.58241 5.77479 2.43388 5.78132 2.30941 5.73341 2.23455 5.68945 2.19262 5.65277 2.14479 5.57858 2.10851 5.53514 2.08815 5.5172 2.03289 5.50294 1.97397 5.49861 1.91626 5.49839 1.85719 5.49952 1.83487 5.49943 1.81256 5.49935 1.78957 5.49924 1.71581 5.49909 1.6421 5.4998 1.56835 5.50049 1.51699 5.50047 1.46564 5.50039 1.41428 5.50023 1.279 5.49993 1.14372 5.50034 1.00844 5.50097 0.792226 5.50195 0.576017 5.50229 0.359799 5.50186 0.28441 5.50186 0.209039 5.50242 0.133654 5.50301 0.0871383 5.50303 0.0406228 5.50303-0.00589275 5.50299-0.0266996 5.50331-0.0475065 5.50361-0.0689438 5.50394-0.236093 5.50296-0.368697 5.46472-0.495064 5.35238-0.662203 5.11619-0.639175 4.83656-0.629126 4.56155-0.650074 4.56257-0.671021 4.56356-0.692603 4.5646-0.918636 4.57086-1.08552 4.54809-1.26694 4.40447-1.36997 4.30686-1.40954 4.20357-1.41861 4.06322-1.41279 3.94459-1.36885 3.84963-1.28497 3.76573-1.18338 3.68361-1.07904 3.64247-0.954126 3.60822-0.932676 3.60106-0.911226 3.59391-0.889126 3.58655-0.803326 3.58655-0.717526 3.58655-0.629126 3.58655-0.629126 3.0503-0.629126 2.51405-0.629126 1.96156-0.729226 1.96156-0.829326 1.96156-0.93246 1.96156-1.11802 1.91939-1.25346 1.86204-1.36579 1.70156-1.41981 1.60751-1.42313 1.52628-1.40913 1.41989-1.37057 1.29721-1.30278 1.20611-1.19246 1.13822-1.0464 1.06304-0.929604 1.02689-0.764543 1.02854-0.726503 1.02883-0.726503 1.02883-0.687693 1.02913-0.668367 1.02938-0.64904 1.02963-0.629126 1.02989-0.629581 1.01496-0.630034 1.00002-0.630502 0.984637-0.647168 0.353149-0.647168 0.353149-0.495064 0.140204-0.334239 0.0294123-0.193459-0.00127745 0 0Z" fill="#262122" transform="matrix(1 0 0 1.0039 140.297 4.46695)"/><path d="M0 0C0.023103-0.000186671 0.0462059-0.00037334 0.0700091-0.000565669 0.145888-0.00105495 0.22175-0.000910912 0.297631-0.000714112 0.350703-0.000827632 0.403774-0.000963647 0.456844-0.00112109 0.567905-0.00134621 0.67896-0.00124811 0.790019-0.000930991 0.931914-0.000558861 1.07379-0.0010675 1.21568-0.00182993 1.32524-0.00230717 1.4348-0.00227452 1.54436-0.00209502 1.59665-0.00207732 1.64894-0.00222491 1.70124-0.00254505 1.77455-0.00292506 1.84783-0.00260622 1.92114-0.00211588 1.94246-0.00236921 1.96379-0.00262256 1.98576-0.00288355 2.12577-0.000990879 2.22465 0.0301167 2.34797 0.0966741 2.41579 0.124675 2.46135 0.127373 2.5342 0.119891 2.59025 0.0974161 2.59025 0.0974161 2.64431 0.0665793 2.78064 0.00147411 2.89815-0.00366604 3.04746-0.00211588 3.07383-0.00227093 3.10022-0.00242595 3.12741-0.00258568 3.19904-0.00288704 3.27063-0.00270894 3.34226-0.0022804 3.41759-0.00192247 3.49293-0.00211668 3.56826-0.00222664 3.69464-0.00232423 3.821-0.00198288 3.94738-0.00137533 4.09311-0.000680043 4.23885-0.000681698 4.38457-0.00105498 4.52536-0.00139955 4.66613-0.00125237 4.80692-0.00088301 4.86659-0.000734797 4.92624-0.000755844 4.98591-0.000916485 5.06928-0.00111441 5.15266-0.000592479 5.23603 0 5.27284-0.000212091 5.27284-0.000212091 5.31037-0.000428467 5.48847 0.00171907 5.60926 0.0316047 5.73681 0.159162 5.83596 0.303639 5.87392 0.439521 5.87299 0.612553 5.87292 0.635665 5.87286 0.658777 5.87277 0.682591 5.8726 0.706483 5.87243 0.730377 5.87223 0.754995 5.87212 0.779309 5.87204 0.803621 5.87193 0.82867 5.87167 0.888524 5.87132 0.948374 5.87087 1.00822 5.89515 1.00797 5.89515 1.00797 5.91992 1.0077 5.94124 1.00757 5.96256 1.00743 5.98453 1.00729 6.00563 1.00712 6.02674 1.00695 6.04847 1.00677 6.23207 1.01117 6.42592 1.08481 6.55473 1.21677 6.60989 1.3079 6.61615 1.37968 6.60753 1.48489 6.57024 1.61541 6.49902 1.69031 6.38428 1.75962 6.21155 1.84423 6.06363 1.87489 5.87087 1.87489 5.87087 2.43258 5.87087 2.99028 5.87087 3.56488 5.95667 3.56488 6.04246 3.56488 6.13087 3.56488 6.33104 3.61144 6.46243 3.68078 6.58587 3.84655 6.62203 3.95503 6.6313 4.07036 6.58714 4.1779 6.48646 4.34614 6.35819 4.40941 6.17734 4.46576 6.11609 4.47781 6.05783 4.47692 5.99545 4.47625 5.97211 4.47605 5.94876 4.47586 5.92471 4.47566 5.89806 4.47527 5.89806 4.47527 5.87087 4.47488 5.87139 4.50028 5.87188 4.52567 5.8724 4.55182 5.88053 5.13026 5.88053 5.13026 5.68399 5.33613 5.5421 5.44301 5.35918 5.49603 5.18319 5.49584 5.16317 5.49586 5.14315 5.49588 5.12252 5.49592 5.08998 5.49579 5.08998 5.49579 5.05678 5.49569 5.03373 5.49569 5.01068 5.49569 4.98693 5.49569 4.91084 5.49569 4.83476 5.49551 4.75867 5.49534 4.70589 5.4953 4.65309 5.49527 4.60029 5.49525 4.4614 5.49516 4.32254 5.49495 4.18366 5.49471 4.04192 5.49449 3.90015 5.49439 3.75841 5.49428 3.48034 5.49406 3.20227 5.49369 2.9242 5.49322 2.918 5.51031 2.91178 5.5274 2.90537 5.545 2.87564 5.61362 2.84635 5.63314 2.78337 5.67196 2.76616 5.68282 2.74896 5.69365 2.73124 5.70481 2.61363 5.77414 2.49498 5.76691 2.36086 5.75321 2.24046 5.71153 2.14724 5.64599 2.07921 5.53655 2.07921 5.52225 2.07921 5.50795 2.07921 5.49322 2.06744 5.4933 2.05567 5.49339 2.04355 5.49347 1.75653 5.49538 1.46951 5.49681 1.18249 5.49772 1.04369 5.49818 0.904885 5.49878 0.766083 5.49976 0.63206 5.50071 0.498043 5.50123 0.364015 5.50145 0.312955 5.5016 0.261896 5.50192 0.210836 5.50238 0.139161 5.50303 0.067504 5.5031-0.00417358 5.50307-0.0251507 5.50338-0.0461277 5.50368-0.0677404 5.504-0.235657 5.50299-0.369319 5.46561-0.495064 5.35104-0.663942 5.11121-0.638762 4.84163-0.629126 4.56155-0.650325 4.56231-0.671524 4.56307-0.693366 4.56385-0.907354 4.56826-1.092 4.55858-1.26669 4.42217-1.36256 4.32677-1.41507 4.21887-1.42131 4.08354-1.41355 3.95508-1.3768 3.85732-1.28497 3.76591-1.18355 3.68351-1.07905 3.64247-0.954126 3.60822-0.932676 3.60106-0.911226 3.59391-0.889126 3.58655-0.803326 3.58655-0.717526 3.58655-0.629126 3.58655-0.629126 3.0503-0.629126 2.51405-0.629126 1.96156-0.729226 1.96156-0.829326 1.96156-0.93246 1.96156-1.11802 1.91939-1.25346 1.86204-1.36579 1.70156-1.42333 1.60269-1.42544 1.51008-1.40913 1.39822-1.3522 1.25724-1.25184 1.15379-1.1146 1.09074-0.949838 1.02853-0.803842 1.02593-0.629126 1.02989-0.629581 1.01342-0.630034 0.996944-0.630502 0.979972-0.632322 0.904081-0.633438 0.828193-0.634543 0.752286-0.635269 0.726381-0.635997 0.700477-0.636744 0.673788-0.638892 0.476844-0.61513 0.304144-0.495064 0.142912-0.337172 0.0271247-0.193046-0.00127472 0 0Z" fill="#272223" transform="matrix(1 0 0 1.0039 156.439 4.46695)"/><path d="M0 0C8.12955 0 16.2591 0 24.635 0 24.635 0.366035 24.635 0.366035 24.6263 0.503834 24.6255 0.518455 24.6244 0.533076 24.6235 0.548141 24.6216 0.578296 24.6196 0.60845 24.6177 0.638601 24.6146 0.6845 24.6118 0.730407 24.609 0.776319 24.601 0.901938 24.5908 1.02388 24.57 1.14833 24.5629 1.27703 24.5557 1.40573 24.5483 1.53833 16.476 1.53833 8.40363 1.53833 0.0866667 1.53833 0 0.469445 0 0.469445 0 0Z" fill="#FDFDFD" transform="matrix(1 0 0 1.0039 138.672 10.9604)"/><path d="M0 0C0.0200123-0.000186343 0.0400246-0.000372686 0.0606433-0.000564677 0.0935149-0.000703125 0.0935149-0.000703125 0.127051-0.000844372 0.15017-0.00102155 0.173288-0.00119873 0.197108-0.00138128 0.273793-0.00191985 0.350476-0.00227771 0.427163-0.00258997 0.466468-0.002763 0.466468-0.002763 0.506567-0.00293952 0.645333-0.0035188 0.784099-0.0039385 0.922868-0.00425096 1.06598-0.00461114 1.20908-0.0055809 1.35219-0.00668566 1.4624-0.00741615 1.57261-0.00766523 1.68282-0.00778754 1.73555-0.00793277 1.78829-0.00826208 1.84102-0.00878183 1.91502-0.00946944 1.989-0.00946812 2.063-0.00930791 2.08461-0.00966335 2.10622-0.0100188 2.12848-0.010385 2.26579-0.00917429 2.35883 0.0189402 2.47767 0.0882821 2.55134 0.125455 2.5984 0.113888 2.67568 0.0900012 2.70422 0.0753567 2.73273 0.0606539 2.76122 0.0459084 2.88563-0.00965766 3.00183-0.00870428 3.13634-0.00753586 3.16227-0.00765293 3.18818-0.00776999 3.21488-0.00789061 3.28545-0.00811397 3.35599-0.00795234 3.42654-0.00759352 3.50071-0.00729144 3.57487-0.00743362 3.64904-0.00750973 3.77353-0.00756812 3.89803-0.00727766 4.02255-0.00677415 4.16607-0.00619769 4.30957-0.00615979 4.45308-0.00641422 4.59169-0.00664855 4.73029-0.00651307 4.86891-0.0062072 4.92765-0.00608309 4.98639-0.00608363 5.04513-0.00618694 5.12731-0.00625023 5.20949-0.00589147 5.29167-0.00541998 5.31579-0.0055175 5.3399-0.00561505 5.36475-0.00571554 5.53091-0.00413703 5.67903 0.0113155 5.81327 0.11573 5.91699 0.249086 5.97192 0.379858 5.97112 0.549317 5.97105 0.575501 5.97099 0.601685 5.9709 0.628663 5.97073 0.656021 5.97055 0.683378 5.97036 0.711564 5.97027 0.739171 5.97016 0.766781 5.97005 0.795225 5.96982 0.863486 5.96945 0.931743 5.96902 1 5.98607 0.999592 6.00314 0.999184 6.02073 0.998764 6.25324 0.995525 6.46754 1.0283 6.65099 1.18273 6.72176 1.25549 6.74518 1.32079 6.75985 1.41979 6.74332 1.53951 6.6948 1.627 6.60097 1.70442 6.40618 1.83236 6.22624 1.85468 5.99068 1.88833 5.98353 2.43889 5.97638 2.98944 5.96902 3.55667 6.07626 3.55667 6.18352 3.55667 6.29402 3.55667 6.46659 3.6109 6.58563 3.6623 6.68402 3.81667 6.73235 3.91339 6.7207 4.04714 6.69086 4.14878 6.62383 4.29453 6.52442 4.36958 6.37932 4.4301 6.24284 4.47692 6.11173 4.47484 5.96902 4.46667 5.96923 4.47954 5.96945 4.49241 5.96969 4.50569 5.9706 4.56491 5.97116 4.62412 5.97172 4.68334 5.97207 4.70357 5.97244 4.72383 5.97281 4.7447 5.97419 4.94228 5.94592 5.16895 5.80955 5.32335 5.56866 5.51772 5.24463 5.49631 4.95454 5.49354 4.87901 5.49287 4.80352 5.49278 4.72801 5.49287 4.51354 5.493 4.29906 5.49213 4.08458 5.49072 3.95291 5.48992 3.82124 5.48983 3.68955 5.49018 3.63952 5.49018 3.5895 5.48988 3.53947 5.48927 3.46968 5.48845 3.39993 5.48853 3.33012 5.48884 3.30956 5.48836 3.28898 5.48788 3.26781 5.48739 3.15952 5.48823 3.15952 5.48823 3.06811 5.54045 3.03574 5.57839 3.00764 5.61756 2.97901 5.65834 2.86154 5.74418 2.7287 5.76 2.58613 5.75473 2.48985 5.73965 2.42179 5.70243 2.35068 5.63667 2.3366 5.61479 2.32254 5.5929 2.30804 5.57035 2.2716 5.52673 2.25121 5.50894 2.19568 5.49471 2.13621 5.4904 2.07794 5.49016 2.01833 5.49129 1.9958 5.4912 1.97328 5.49111 1.95007 5.49103 1.87561 5.49085 1.80119 5.49159 1.72674 5.49228 1.6749 5.49226 1.62306 5.49215 1.57121 5.492 1.43465 5.49172 1.2981 5.49211 1.16153 5.49276 0.94326 5.49374 0.724999 5.49406 0.506727 5.49363 0.430618 5.49363 0.354527 5.49419 0.278423 5.4948 0.231469 5.4948 0.184515 5.4948 0.137561 5.49477 0.106047 5.49523 0.106047 5.49523 0.0738963 5.49571-0.0870105 5.4948-0.216762 5.4579-0.344543 5.35763-0.386611 5.30205-0.411693 5.24773-0.437558 5.18301-0.446578 5.16093-0.4556 5.13883-0.464895 5.11609-0.508519 4.99267-0.512094 4.88189-0.510683 4.75239-0.510586 4.73531-0.510486 4.71824-0.510386 4.70065-0.510133 4.65877-0.509743 4.61689-0.509329 4.575-0.536142 4.57635-0.562954 4.57769-0.590579 4.57905-0.802902 4.57806-0.998222 4.52131-1.15933 4.38-1.25785 4.26671-1.27665 4.15463-1.27511 4.00853-1.25986 3.88189-1.18837 3.80529-1.10516 3.71375-0.930716 3.58146-0.718556 3.57834-0.509329 3.57834-0.509329 3.04209-0.509329 2.50584-0.509329 1.95333-0.616579 1.95333-0.723829 1.95333-0.834329 1.95333-1.01937 1.89342-1.1525 1.8358-1.25412 1.6649-1.28802 1.51914-1.28009 1.39065-1.20266 1.26-1.08633 1.12209-0.944342 1.05706-0.769329 1.02167-0.682021 1.01562-0.596631 1.0161-0.509329 1.02167-0.509669 1.00859-0.51001 0.995512-0.51036 0.982037-0.525477 0.31278-0.525477 0.31278-0.335996 0.111668-0.232873 0.0424485-0.124511 0.00086424 0 0Z" fill="#272123" transform="matrix(1 0 0 1.0039 148.216 4.4752)"/><path d="M0 0C8.0652 0 16.1304 0 24.44 0 24.4274 0.189145 24.4149 0.375995 24.3932 0.563925 24.391 0.584697 24.3886 0.605466 24.3863 0.626867 24.3789 0.691912 24.3715 0.756945 24.3642 0.821979 24.3592 0.866004 24.3542 0.910028 24.3494 0.954053 24.3403 1.0347 24.3312 1.11534 24.3221 1.19598 24.3202 1.21193 24.3185 1.22789 24.3165 1.24433 24.3076 1.32071 24.2979 1.39701 24.2883 1.47333 16.3161 1.47333 8.34383 1.47333 0.13 1.47333 0 0.329333 0 0.329333 0 0Z" fill="#B8073D" transform="matrix(1 0 0 1.0039 138.758 12.6787)"/><path d="M0 0C7.92935 0 15.8587 0 24.0283 0 24.0002 0.480248 23.9109 0.955207 23.8333 1.43 16.0398 1.43 8.24633 1.43 0.216667 1.43 0.184492 1.26912 0.184492 1.26912 0.151667 1.105 0.141389 1.05808 0.13111 1.01116 0.120521 0.962812 0.0859309 0.790599 0.0626585 0.616833 0.0392708 0.442813 0.0373072 0.428367 0.0353438 0.413922 0.0333205 0.399039 0.0276655 0.357192 0.0221672 0.315326 0.0166732 0.273457 0.013456 0.248974 0.0102389 0.224493 0.00692423 0.199269 0 0.13 0 0.13 0 0Z" fill="#FEFEFE" transform="matrix(1 0 0 1.0039 138.975 14.3535)"/><path d="M0 0C7.5361 0 15.0722 0 22.8367 0 22.6616 0.650357 22.6616 0.650357 22.5637 0.955216 22.5463 1.00934 22.529 1.06351 22.5119 1.11769 22.5008 1.15251 22.4898 1.18732 22.4787 1.22213 22.4735 1.23815 22.4685 1.25417 22.4631 1.27068 22.4276 1.38156 22.4276 1.38156 22.4033 1.43 15.1532 1.43 7.90313 1.43 0.433333 1.43 0.285356 1.0354 0.285356 1.0354 0.236979 0.854479 0.193495 0.696664 0.146025 0.542104 0.0904752 0.388054 0.0522279 0.260858 0.0278298 0.129872 0 0Z" fill="#FEFEFE" transform="matrix(1 0 0 1.0039 139.582 17.5075)"/><path d="M0 0C7.77205 0 15.5441 0 23.5517 0 23.5376 0.141781 23.5218 0.277936 23.4949 0.417083 23.4912 0.435816 23.4875 0.454551 23.4839 0.473852 23.4477 0.658012 23.4058 0.840922 23.3634 1.02375 23.3601 1.03842 23.3567 1.05308 23.3532 1.0682 23.3435 1.10994 23.3337 1.15165 23.3239 1.19336 23.3183 1.21758 23.3125 1.2418 23.3066 1.26676 23.2917 1.32167 23.2917 1.32167 23.27 1.34333 23.2197 1.34548 23.1701 1.3462 23.1198 1.34602 23.096 1.34607 23.096 1.34607 23.0715 1.34611 23.0171 1.34618 22.9628 1.34608 22.9084 1.346 22.8692 1.34602 22.8299 1.34604 22.7907 1.34607 22.6817 1.34614 22.573 1.34607 22.4642 1.34598 22.3461 1.34591 22.2281 1.34596 22.1102 1.34599 21.903 1.34604 21.6959 1.346 21.4887 1.34592 21.1807 1.34579 20.8726 1.34578 20.5646 1.3458 20.0465 1.34583 19.5284 1.34575 19.0104 1.34562 18.4971 1.3455 17.9839 1.34541 17.4707 1.34539 17.4548 1.34539 17.4389 1.34539 17.4224 1.34539 17.277 1.34538 17.1315 1.34537 16.9861 1.34537 16.6245 1.34535 16.2628 1.34533 15.9013 1.34531 15.8765 1.34531 15.8765 1.34531 15.8513 1.3453 15.0498 1.34525 14.2482 1.34511 13.4467 1.34497 13.1685 1.34492 12.8902 1.34487 12.612 1.34482 12.5947 1.34482 12.5775 1.34482 12.5597 1.34481 11.7579 1.34467 10.956 1.34459 10.1542 1.34453 10.1022 1.34452 10.0501 1.34452 9.99808 1.34451 9.65321 1.34449 9.30832 1.34446 8.96346 1.34443 8.27721 1.34438 7.59096 1.34432 6.90473 1.34426 6.87204 1.34425 6.83937 1.34425 6.80667 1.34425 5.04192 1.34408 3.27717 1.34382 0.281667 1.34333 0.260674 1.26362 0.239753 1.18388 0.218846 1.10414 0.212938 1.08171 0.20703 1.05927 0.200942 1.03616 0.159279 0.877056 0.122432 0.718241 0.0920833 0.556562 0.0878659 0.534792 0.0836485 0.513021 0.0793035 0.49059 0.0711117 0.448283 0.0629963 0.405964 0.0549707 0.363625 0.040136 0.286767 0.0240701 0.210182 0.00776529 0.133624 0 0.0866667 0 0.0866667 0 0Z" fill="#B8073D" transform="matrix(1 0 0 1.0039 139.192 15.9849)"/><path d="M0 0C7.2215 0 14.443 0 21.8833 0 21.8324 0.170047 21.7767 0.334928 21.7143 0.500671 21.6983 0.543209 21.6825 0.585808 21.6666 0.628418 21.5651 0.89898 21.4531 1.16267 21.3417 1.43 14.4777 1.43 7.61367 1.43 0.541667 1.43 0.263688 0.77296 0.263688 0.77296 0.155756 0.485231 0.136067 0.432813 0.116134 0.380493 0.0961881 0.328174 0.0834364 0.294424 0.0706983 0.260669 0.0579752 0.226909 0.052088 0.211475 0.0462005 0.196042 0.0401347 0.180141 0.0165551 0.116891 0 0.0681072 0 0Z" fill="#B8073D" transform="matrix(1 0 0 1.0039 140.037 19.1388)"/><path d="M0 0C6.77105 0 13.5421 0 20.5183 0 20.3932 0.300242 20.3932 0.300242 20.3312 0.432064 20.3242 0.446953 20.3173 0.461845 20.3101 0.477184 20.288 0.524444 20.2657 0.571656 20.2434 0.618854 20.2358 0.634989 20.2282 0.651127 20.2204 0.667751 19.8935 1.3615 19.8935 1.3615 19.825 1.43 19.7832 1.43213 19.7413 1.4327 19.6995 1.43269 19.672 1.43274 19.6445 1.43279 19.6162 1.43284 19.5852 1.43278 19.5542 1.43273 19.5232 1.43266 19.4905 1.43268 19.4578 1.43271 19.4251 1.43274 19.3345 1.43281 19.2438 1.43274 19.1531 1.43265 19.0548 1.43258 18.9565 1.43263 18.8582 1.43266 18.6856 1.43271 18.513 1.43267 18.3404 1.43258 18.0838 1.43245 17.8271 1.43245 17.5705 1.43246 17.1389 1.43249 16.7072 1.43242 16.2756 1.43229 15.848 1.43216 15.4204 1.43208 14.9928 1.43206 14.9663 1.43205 14.9397 1.43205 14.9124 1.43205 14.7775 1.43204 14.6427 1.43204 14.5078 1.43203 13.552 1.43198 12.5961 1.43184 11.6402 1.43163 11.4084 1.43159 11.1766 1.43154 10.9448 1.43149 10.9304 1.43148 10.916 1.43148 10.9012 1.43148 10.2331 1.43134 9.56507 1.43126 8.89703 1.43119 8.85367 1.43119 8.81032 1.43119 8.76696 1.43118 8.47962 1.43115 8.19228 1.43112 7.90495 1.4311 7.31956 1.43104 6.73419 1.43098 6.1488 1.43092 6.1219 1.43091 6.09499 1.43091 6.06725 1.43091 4.26872 1.43071 2.4702 1.43037 0.671667 1.43 0.627317 1.34457 0.583004 1.25911 0.53872 1.17364 0.523703 1.14467 0.508675 1.1157 0.493636 1.08673 0.383207 0.874003 0.275394 0.660326 0.174037 0.443099 0.151999 0.395939 0.129685 0.348918 0.10736 0.301895 0.0930267 0.271405 0.0787085 0.240907 0.0644076 0.210404 0.0578441 0.196597 0.0512809 0.18279 0.0445185 0.168564 0.0164234 0.107926 0 0.0677569 0 0Z" fill="#FEFEFE" transform="matrix(1 0 0 1.0039 140.752 20.7701)"/><path d="M0 0C6.2777 0 12.5554 0 19.0233 0 18.9079 0.288494 18.7442 0.556647 18.5859 0.823333 18.5715 0.847609 18.5571 0.871882 18.5423 0.896892 18.4634 1.02908 18.4634 1.02908 18.4409 1.06418 18.4145 1.10707 18.4145 1.10707 18.3893 1.1633 18.3028 1.32949 18.3028 1.32949 18.204 1.36571 18.1265 1.3745 18.0519 1.37559 17.9739 1.37429 17.944 1.37465 17.914 1.37511 17.8841 1.37566 17.8017 1.37688 17.7193 1.37661 17.6369 1.3761 17.5474 1.37581 17.4578 1.37689 17.3682 1.3778 17.2111 1.37919 17.0541 1.3797 16.897 1.37962 16.6634 1.3795 16.4299 1.38073 16.1963 1.38222 15.7306 1.38512 15.2648 1.38612 14.799 1.38668 14.7628 1.38672 14.7628 1.38672 14.7259 1.38676 14.6897 1.38681 14.6897 1.38681 14.6527 1.38685 14.3849 1.3872 14.117 1.38795 13.8492 1.38873 13.0404 1.39101 12.2316 1.39292 11.4228 1.39322 11.3969 1.39323 11.371 1.39324 11.3443 1.39325 11.2395 1.39329 11.1346 1.39332 11.0297 1.39336 10.9508 1.39339 10.8719 1.39342 10.7929 1.39345 10.7538 1.39346 10.7538 1.39346 10.7139 1.39348 9.89454 1.39378 9.07517 1.39633 8.2558 1.40056 7.33542 1.4053 6.41505 1.40806 5.49465 1.40807 5.39649 1.40808 5.29835 1.4081 5.20019 1.40812 5.16393 1.40812 5.16393 1.40812 5.12694 1.40813 4.73805 1.40825 4.34917 1.41027 3.96028 1.41297 3.56934 1.41563 3.17846 1.41611 2.7875 1.41438 2.55526 1.41342 2.32314 1.41407 2.09092 1.41707 1.93567 1.4189 1.78052 1.41861 1.62528 1.41659 1.53682 1.4155 1.44862 1.41532 1.36019 1.41774 0.852492 1.43079 0.852492 1.43079 0.697517 1.28685 0.585253 1.15215 0.513584 0.994145 0.445287 0.833805 0.391725 0.713564 0.324331 0.601943 0.257292 0.488854 0.165503 0.32848 0.0827885 0.165577 0 0Z" fill="#B8073D" transform="matrix(1 0 0 1.0039 141.467 22.4014)"/><path d="M0 0C5.64135 0 11.2827 0 17.095 0 17.0561 0.0972578 17.0102 0.17646 16.9523 0.26237 16.9376 0.284466 16.9376 0.284466 16.9225 0.30701 16.8907 0.354608 16.8588 0.402099 16.8269 0.449583 16.805 0.482226 16.7831 0.514871 16.7613 0.547517 16.465 0.989129 16.465 0.989129 16.3465 1.14698 16.3131 1.19308 16.3131 1.19308 16.2806 1.25042 16.1768 1.41623 16.1768 1.41623 16.0849 1.45226 16.0169 1.46083 15.9524 1.46189 15.8839 1.46042 15.8453 1.461 15.8453 1.461 15.8059 1.4616 15.7344 1.46245 15.663 1.46223 15.5915 1.46156 15.5138 1.46109 15.4361 1.462 15.3583 1.46274 15.2221 1.46383 15.0859 1.46404 14.9496 1.46366 14.747 1.4631 14.5444 1.4639 14.3418 1.46496 13.9589 1.46691 13.576 1.46724 13.1931 1.46706 12.8974 1.46693 12.6017 1.46722 12.306 1.4678 12.2635 1.46788 12.221 1.46796 12.1786 1.46804 12.1145 1.46816 12.0505 1.46829 11.9865 1.46841 11.3914 1.46954 10.7962 1.47017 10.2011 1.46978 10.1787 1.46977 10.1562 1.46975 10.1331 1.46974 10.0193 1.46966 9.90561 1.46958 9.79186 1.4695 9.76928 1.46949 9.74669 1.46947 9.72342 1.46945 9.67772 1.46942 9.63205 1.46939 9.58637 1.46935 8.87564 1.46885 8.16493 1.47002 7.45422 1.47251 6.65578 1.47531 5.85739 1.4768 5.05895 1.47639 4.9738 1.47635 4.88867 1.47631 4.80352 1.47628 4.78257 1.47627 4.7616 1.47626 4.74002 1.47626 4.42355 1.47615 4.10709 1.47708 3.79063 1.47852 3.43068 1.48016 3.07077 1.48044 2.7108 1.47892 2.50939 1.4781 2.30802 1.47836 2.10661 1.48018 1.97199 1.48128 1.83742 1.48096 1.7028 1.4795 1.62611 1.4787 1.54955 1.47851 1.47287 1.48006 1.02954 1.48721 1.02954 1.48721 0.901712 1.39125 0.813763 1.29982 0.751484 1.19784 0.694802 1.08493 0.665481 1.02799 0.629486 0.977817 0.590755 0.926926 0.444973 0.720739 0.30394 0.511595 0.165208 0.300625 0.156911 0.288069 0.148613 0.275513 0.140064 0.262576 0.116571 0.226976 0.093236 0.19127 0.0699088 0.15556 0.0564083 0.134944 0.0429078 0.114329 0.0289982 0.0930884 0 0.0433333 0 0.0433333 0 0Z" fill="#FEFEFE" transform="matrix(1 0 0 1.0039 142.463 23.9458)"/><path d="M0 0C4.94065 0 9.8813 0 14.9717 0 14.9335 0.076404 14.8943 0.135443 14.843 0.203125 14.8345 0.214321 14.8261 0.225517 14.8173 0.237053 14.3728 0.821873 14.3728 0.821873 14.1561 1.0668 14.1238 1.10647 14.1238 1.10647 14.0966 1.16269 14.0405 1.2547 13.989 1.32669 13.8836 1.35728 13.7303 1.38081 13.5748 1.37532 13.4201 1.3736 13.3669 1.37387 13.3137 1.37425 13.2605 1.37472 13.1448 1.37551 13.0292 1.37556 12.9136 1.37495 12.7416 1.37405 12.5696 1.37451 12.3976 1.37524 12.0905 1.37649 11.7833 1.37639 11.4761 1.3757 11.2073 1.3751 10.9385 1.37494 10.6697 1.37523 10.6519 1.37524 10.634 1.37526 10.6157 1.37528 10.5433 1.37535 10.4709 1.37543 10.3985 1.37551 9.71956 1.37624 9.04059 1.37558 8.3616 1.37429 7.75836 1.37316 7.15516 1.37327 6.55191 1.37441 5.87418 1.37568 5.19645 1.37619 4.51869 1.37545 4.44646 1.37537 4.3742 1.3753 4.30196 1.37523 4.28417 1.37521 4.26638 1.37519 4.24805 1.37517 3.97941 1.3749 3.71078 1.37522 3.44214 1.37582 3.13668 1.3765 2.83125 1.37633 2.52579 1.37504 2.35482 1.37434 2.18389 1.37429 2.01294 1.37519 1.88534 1.37579 1.75776 1.37514 1.63016 1.374 1.57851 1.37374 1.52685 1.37387 1.4752 1.37445 1.06863 1.37864 1.06863 1.37864 0.968019 1.29153 0.918134 1.23146 0.881732 1.17365 0.845 1.105 0.820051 1.07335 0.794497 1.04216 0.767982 1.01182 0.621517 0.83494 0.47708 0.656808 0.336204 0.475449 0.29806 0.426576 0.259608 0.377949 0.221152 0.329316 0.193022 0.293575 0.164895 0.257831 0.136771 0.222083 0.116452 0.196488 0.116452 0.196488 0.0957227 0.170376 0.0832661 0.154483 0.0708095 0.138589 0.0579752 0.122213 0.0467842 0.108032 0.0355931 0.0938509 0.024063 0.07924 0 0.0433333 0 0.0433333 0 0Z" fill="#B8073D" transform="matrix(1 0 0 1.0039 143.503 25.5771)"/><path d="M0 0C4.0898 0 8.1796 0 12.3933 0 12.2472 0.194865 12.2472 0.194865 12.1801 0.264741 12.1656 0.280018 12.1511 0.295295 12.1361 0.311036 12.1213 0.326369 12.1066 0.341703 12.0913 0.3575 11.9927 0.460521 11.896 0.564373 11.8026 0.672132 11.738 0.745758 11.671 0.81703 11.6038 0.888333 11.5909 0.902215 11.578 0.916095 11.5646 0.930397 11.5356 0.961239 11.5059 0.991369 11.4755 1.02089 11.4302 1.0704 11.3996 1.11202 11.3649 1.16806 11.2681 1.30745 11.1558 1.4169 10.9845 1.45057 10.7309 1.4878 10.4707 1.47982 10.2151 1.47818 10.0968 1.47779 9.9785 1.4794 9.8602 1.48074 9.62877 1.48303 9.39738 1.48343 9.16593 1.48309 8.97765 1.48285 8.78936 1.4832 8.6011 1.48398 8.57424 1.48409 8.54737 1.4842 8.5197 1.48431 8.46515 1.48454 8.41057 1.48476 8.35599 1.48498 7.90294 1.48675 7.44991 1.48691 6.99684 1.48607 6.98245 1.48604 6.96806 1.48602 6.95325 1.48599 6.92415 1.48593 6.89507 1.48588 6.86597 1.48582 6.41366 1.48499 5.96143 1.48651 5.50914 1.48991 4.99995 1.49372 4.49081 1.49571 3.9816 1.49506 3.71239 1.49476 3.44322 1.49524 3.17399 1.49787 2.94472 1.50008 2.71553 1.50036 2.48623 1.49824 2.36942 1.49722 2.25277 1.49702 2.13598 1.49924 1.356 1.51304 1.356 1.51304 1.07115 1.24001 0.964167 1.13005 0.871882 1.01103 0.78 0.888333 0.704227 0.797983 0.626533 0.710274 0.541667 0.628333 0.473631 0.561208 0.410269 0.491747 0.348105 0.4192 0.311874 0.378038 0.275076 0.337818 0.237571 0.297832 0.22589 0.285352 0.214208 0.272874 0.202173 0.260015 0.178824 0.235144 0.155397 0.210347 0.131883 0.185632 0.0749695 0.124888 0.0376948 0.0753896 0 0Z" fill="#FEFEFE" transform="matrix(1 0 0 1.0039 144.825 27.0997)"/><path d="M0 0C3.1317 0 6.2634 0 9.49 0 9.40292 0.101589 9.31654 0.198641 9.22188 0.2925 9.20957 0.304765 9.19726 0.317029 9.18459 0.329665 9.10661 0.406833 9.02672 0.480621 8.94309 0.551653 8.90329 0.586504 8.86624 0.623099 8.82917 0.660833 8.7654 0.725593 8.69865 0.785341 8.62986 0.844662 8.56899 0.897971 8.5095 0.952683 8.45 1.0075 8.26161 1.18072 8.26161 1.18072 8.19357 1.23638 8.1447 1.27796 8.1447 1.27796 8.10249 1.332 7.9792 1.46433 7.87412 1.5078 7.69329 1.52017 7.57185 1.52422 7.4506 1.52473 7.3291 1.52364 7.2527 1.52319 7.17632 1.524 7.09993 1.52464 6.95058 1.52568 6.80125 1.52556 6.6519 1.525 6.53046 1.52457 6.40902 1.52456 6.28758 1.52484 6.26158 1.5249 6.26158 1.5249 6.23506 1.52496 6.19985 1.52504 6.16464 1.52512 6.12944 1.5252 5.7998 1.52593 5.47016 1.52532 5.14052 1.52426 4.85806 1.52338 4.57563 1.5237 4.29319 1.52488 3.96467 1.52626 3.63616 1.52685 3.30765 1.52624 3.27258 1.52617 3.2375 1.52611 3.20242 1.52605 3.17653 1.526 3.17653 1.526 3.15014 1.52596 3.02893 1.5258 2.90773 1.5262 2.78653 1.52682 2.63867 1.52757 2.49084 1.52746 2.34301 1.52628 2.26766 1.5257 2.19236 1.52549 2.117 1.52633 1.6175 1.53062 1.6175 1.53062 1.47588 1.41264 1.42729 1.3641 1.38572 1.31063 1.34333 1.25667 1.30218 1.22137 1.26028 1.18691 1.2174 1.15375 1.1362 1.08838 1.06158 1.0208 0.989133 0.945971 0.952389 0.909051 0.914227 0.874963 0.874792 0.840937 0.74636 0.729974 0.622544 0.613968 0.498333 0.498333 0.48376 0.48477 0.469189 0.471207 0.454175 0.457232 0.408367 0.414553 0.362611 0.371817 0.316875 0.329062 0.302714 0.315852 0.288554 0.30264 0.273964 0.289029 0.0700789 0.0980167 0.0700789 0.0980167 0 0.0216667 0 0.0145167 0 0.00736667 0 0Z" fill="#B8073D" transform="matrix(1 0 0 1.0039 146.255 28.731)"/><path d="M0 0C0.0260503-2.37293e-05 0.0260503-2.37293e-05 0.0526266-4.79379e-05 0.10891 2.63538e-05 0.165152 0.000863341 0.221427 0.00171916 0.260888 0.00192163 0.30035 0.00207564 0.339814 0.00218365 0.44283 0.00259396 0.545829 0.00365528 0.648839 0.00485992 0.75429 0.00597536 0.859746 0.00646447 0.965205 0.00700886 1.17149 0.00816485 1.37777 0.0100097 1.58406 0.0122986 1.58558 0.538698 1.58672 1.0651 1.58743 1.5915 1.58776 1.83591 1.58822 2.08032 1.58896 2.32472 1.58961 2.53773 1.59003 2.75074 1.59017 2.96374 1.59026 3.07656 1.59046 3.18936 1.59093 3.30215 1.59137 3.40832 1.59151 3.51446 1.59141 3.62061 1.59143 3.65959 1.59156 3.69857 1.59181 3.73754 1.59213 3.79076 1.59205 3.84393 1.59187 3.89712 1.59206 3.91257 1.59225 3.92801 1.59245 3.94394 1.5916 4.03815 1.57742 4.09775 1.51906 4.17231 1.39593 4.24502 1.2908 4.24372 1.15064 4.23865 0.916896 4.23462 0.68837 4.24892 0.456053 4.27405 0.39328 4.28068 0.330464 4.28629 0.267596 4.29188 0.00637858 4.31808-0.18853 4.37658-0.409275 4.51897-0.423575 4.52612-0.437875 4.53327-0.452608 4.54064-0.452608 3.08204-0.452608 1.62343-0.452608 0.120632-0.153916-0.00382363-0.153916-0.00382363 0 0Z" fill="#FBFBFB" transform="matrix(1 0 0 1.0039 143.284 4.70547)"/><path d="M0 0C0.0269821-1.89835e-05 0.0269821-1.89835e-05 0.0545094-3.83504e-05 0.113367 2.1541e-05 0.172201 0.000693463 0.231055 0.00137533 0.272096 0.00153714 0.31314 0.00166043 0.354183 0.00174693 0.461758 0.00207647 0.569322 0.00292669 0.67689 0.00388793 0.78684 0.00477743 0.896788 0.00517097 1.00674 0.0056071 1.22214 0.00653417 1.43753 0.00801173 1.65293 0.00983888 1.65728 0.532664 1.66125 1.05549 1.66477 1.57832 1.66642 1.82108 1.66818 2.06384 1.67024 2.30659 1.67204 2.51819 1.6736 2.72978 1.67488 2.94136 1.67557 3.0534 1.67638 3.16544 1.67746 3.27747 1.67847 3.38295 1.67918 3.4884 1.67964 3.59389 1.67987 3.63257 1.68021 3.67126 1.68067 3.70994 1.68128 3.76283 1.68149 3.81572 1.68159 3.8686 1.68186 3.88384 1.68214 3.89909 1.68242 3.91478 1.68201 4.02369 1.65951 4.09662 1.6096 4.1915 1.53761 4.23484 1.47708 4.23971 1.39428 4.23679 1.37342 4.23631 1.35255 4.23583 1.33105 4.23533 1.30857 4.23473 1.28609 4.23412 1.26293 4.23349 0.949416 4.22907 0.641992 4.26077 0.331264 4.29984 0.304757 4.30287 0.278252 4.3059 0.250943 4.30904 0.106348 4.32705-0.00955309 4.34841-0.137279 4.419-0.161689 4.4322-0.1861 4.44537-0.21125 4.45896-0.232421 4.47079-0.253591 4.48264-0.275403 4.49484-0.318303 4.51629-0.318303 4.51629-0.362069 4.53817-0.362069 3.07242-0.362069 1.60667-0.362069 0.0965055-0.216261 0.0236011-0.150628-0.00282774 0 0Z" fill="#FDFDFD" transform="matrix(1 0 0 1.0039 151.297 4.70793)"/><path d="M0 0C0.219429-0.00201452 0.438858-0.00355127 0.658294-0.0044904 0.760205-0.00494128 0.86211-0.00555221 0.964019-0.00653809 1.0625-0.00748477 1.16097-0.00799903 1.25946-0.0082227 1.2969-0.00838192 1.33433-0.00869288 1.37176-0.00916327 1.4245-0.00979914 1.47721-0.00987876 1.52994-0.00983888 1.54517-0.0101505 1.5604-0.0104621 1.57609-0.0107831 1.71866-0.00962752 1.7807 0.0276129 1.92833 0.0866667 1.92833 1.51667 1.92833 2.94667 1.92833 4.42 1.84703 4.39289 1.77328 4.36653 1.69571 4.33268 1.58453 4.28788 1.47905 4.26952 1.36035 4.25707 1.34006 4.25475 1.31977 4.25241 1.29886 4.25 1.25629 4.24519 1.21371 4.24051 1.1711 4.23599 1.10654 4.22907 1.04207 4.2216 0.97758 4.21404 0.935902 4.2094 0.89422 4.20478 0.852533 4.20019 0.824118 4.19688 0.824118 4.19688 0.79513 4.1935 0.657196 4.17931 0.527492 4.18747 0.39 4.20333 0.15195 4.22162 0.15195 4.22162 0.073125 4.15593 0.0166555 4.04042-0.00628234 3.95126-0.00521103 3.82228-0.00524806 3.80592-0.00528509 3.78954-0.00532322 3.77269-0.0053945 3.71791-0.00515641 3.66316-0.00491944 3.60841-0.00490722 3.56911-0.00491406 3.52982-0.00493861 3.49052-0.00495105 3.3839-0.00469618 3.27728-0.00439374 3.17066-0.00412293 3.0592-0.0040974 2.94777-0.00404597 2.83632-0.00391127 2.62531-0.00355563 2.41429-0.00312082 2.20328-0.00263655 1.96303-0.00239824 1.72279-0.00218069 1.48254-0.00172769 0.98836-0.000965438 0.49418 0 0Z" fill="#FDFDFD" transform="matrix(1 0 0 1.0039 140.73 4.71781)"/><path d="M0 0C0.0389757 0.000202483 0.0779517 0.000356488 0.116928 0.000464503 0.218662 0.000874751 0.320379 0.001936 0.422108 0.00314076 0.526253 0.00425633 0.6304 0.00474533 0.73455 0.00528972 0.938275 0.00644557 1.14199 0.00829038 1.3457 0.0105794 1.35055 0.542627 1.35491 1.07468 1.35867 1.60673 1.36043 1.85377 1.36235 2.1008 1.36465 2.34784 1.36666 2.56312 1.36836 2.7784 1.3697 2.99371 1.37041 3.10771 1.37128 3.22173 1.37252 3.33576 1.37368 3.44303 1.37443 3.55032 1.37487 3.65761 1.3751 3.697 1.37548 3.73642 1.37602 3.77581 1.37674 3.82958 1.37692 3.88332 1.37697 3.93709 1.37731 3.95271 1.37764 3.96831 1.37799 3.98441 1.37747 4.06222 1.3689 4.10321 1.32614 4.16917 1.26718 4.22723 1.23199 4.23492 1.15159 4.23631 1.13633 4.23551 1.12106 4.23471 1.10534 4.23388 0.817663 4.22379 0.534664 4.24281 0.248671 4.27243 0.206823 4.2767 0.164953 4.28075 0.12306 4.28452-0.158485 4.31043-0.363998 4.36882-0.604296 4.51724-0.625746 4.52439-0.647196 4.53154-0.669296 4.53891-0.669296 3.83821-0.669296 3.13751-0.669296 2.41557-0.647846 2.43702-0.626396 2.45847-0.604296 2.48057-0.583977 2.50022-0.583977 2.50022-0.563249 2.52027-0.521716 2.56317-0.48498 2.60368-0.45263 2.65391-0.463799 2.73849-0.492193 2.77825-0.539296 2.84891-0.528571 2.90253-0.528571 2.90253-0.51763 2.95724-0.30313 2.96439-0.0886301 2.97154 0.13237 2.97891 0.13237 2.95746 0.13237 2.93601 0.13237 2.91391 0.116729 2.90856 0.101089 2.90318 0.0849741 2.89766-0.00316829 2.85848-0.0641036 2.826-0.107318 2.73591-0.148149 2.6273-0.179749 2.51604-0.211165 2.40441-0.255244 2.24948-0.301884 2.09544-0.349713 1.94162-0.358065 1.91469-0.366418 1.88776-0.375024 1.86002-0.43737 1.65978-0.502604 1.46059-0.570421 1.26214-0.580446 1.23262-0.580446 1.23262-0.59067 1.2025-0.596464 1.18562-0.602257 1.16874-0.608227 1.15135-0.653332 1.00527-0.675575 0.880561-0.673528 0.728288-0.673467 0.710738-0.673406 0.69319-0.673344 0.67511-0.673103 0.619708-0.672559 0.564313-0.672005 0.508913-0.671788 0.471081-0.671591 0.433249-0.671413 0.395417-0.670939 0.303247-0.670191 0.211081-0.669296 0.118913-0.446056-0.00365348-0.248343-0.00382501 0 0Z" fill="#FDFDFD" transform="matrix(1 0 0 1.0039 159.643 4.70719)"/><path d="M0 0C0.219429-0.00201452 0.438858-0.00355127 0.658294-0.0044904 0.760205-0.00494128 0.86211-0.00555221 0.964019-0.00653809 1.0625-0.00748477 1.16097-0.00799903 1.25946-0.0082227 1.2969-0.00838192 1.33433-0.00869288 1.37176-0.00916327 1.57052-0.0115598 1.74939-0.0130449 1.92833 0.0866667 1.9316 0.220274 1.93393 0.353856 1.93547 0.487496 1.93612 0.532729 1.937 0.57796 1.93814 0.623187 1.94576 0.93312 1.91304 1.19573 1.81429 1.48978 1.79225 1.55686 1.77411 1.62475 1.75627 1.69305 1.7504 1.71512 1.74453 1.7372 1.73848 1.75995 1.73276 1.78155 1.72704 1.80316 1.72115 1.82542 1.49582 2.66725 1.49582 2.66725 1.34333 2.795 1.33618 2.80215 1.32903 2.8093 1.32167 2.81667 1.27156 2.82616 1.27156 2.82616 1.21333 2.81667 1.11623 2.70703 1.11251 2.60986 1.11042 2.46729 1.1095 2.43431 1.1095 2.43431 1.10857 2.40067 1.10672 2.32267 1.10576 2.24469 1.105 2.16667 1.10484 2.15101 1.10467 2.13536 1.10451 2.11923 1.10329 1.99873 1.10263 1.87822 1.10229 1.75771 1.1022 1.73248 1.1022 1.73248 1.1021 1.70674 1.10164 1.52656 1.10424 1.3491 1.12667 1.17 1.18354 1.15781 1.18354 1.15781 1.25667 1.17 1.32468 1.24472 1.37388 1.32943 1.408 1.42433 1.41889 1.44859 1.41889 1.44859 1.43 1.47333 1.46218 1.48406 1.46218 1.48406 1.495 1.495 1.51689 1.41562 1.53847 1.33615 1.56 1.25667 1.56691 1.23199 1.56691 1.23199 1.57396 1.20682 1.59734 1.12023 1.60781 1.04297 1.60333 0.953333 1.56858 0.952746 1.53382 0.952328 1.49906 0.951979 1.47971 0.951728 1.46035 0.951476 1.44041 0.951217 1.38376 0.950948 1.38376 0.950948 1.32167 0.975 1.05633 0.993629 0.776197 1.00828 0.52694 0.905175 0.469421 0.885907 0.444795 0.88431 0.39 0.91 0.280861 1.04963 0.286464 1.23974 0.281667 1.40833 0.303117 1.40833 0.324567 1.40833 0.346667 1.40833 0.351891 1.39219 0.357112 1.37605 0.362494 1.35941 0.393826 1.29173 0.425063 1.26176 0.483438 1.21604 0.499889 1.20269 0.516338 1.18934 0.533288 1.17559 0.585 1.14833 0.585 1.14833 0.645515 1.15494 0.661295 1.15991 0.677075 1.16488 0.693333 1.17 0.726752 1.25941 0.742242 1.33404 0.742961 1.42935 0.743238 1.45438 0.743513 1.4794 0.743799 1.50519 0.743847 1.53193 0.743895 1.55868 0.743944 1.58624 0.74409 1.61401 0.744235 1.64179 0.744382 1.67042 0.74464 1.72909 0.744722 1.78777 0.744696 1.84645 0.744692 1.92124 0.745284 1.99602 0.746031 2.07081 0.746631 2.14265 0.746603 2.21448 0.746653 2.28633 0.746965 2.313 0.747277 2.33965 0.747598 2.36713 0.746787 2.52001 0.733939 2.6224 0.65 2.75167 0.614135 2.78085 0.578065 2.8098 0.541667 2.83833 0.534517 2.87408 0.527367 2.90983 0.52 2.94667 0.95615 2.93952 1.3923 2.93237 1.84167 2.925 1.85239 2.86065 1.85239 2.86065 1.86333 2.795 1.83762 2.75665 1.83762 2.75665 1.79833 2.73 1.73378 2.67206 1.73378 2.67206 1.72927 2.60134 1.76093 2.51972 1.80015 2.44506 1.86333 2.38333 1.88478 2.38333 1.90623 2.38333 1.92833 2.38333 1.92833 3.05543 1.92833 3.72753 1.92833 4.42 1.84703 4.39289 1.77328 4.36653 1.69571 4.33268 1.58453 4.28788 1.47905 4.26952 1.36035 4.25707 1.34006 4.25475 1.31977 4.25241 1.29886 4.25 1.25629 4.24519 1.21371 4.24051 1.1711 4.23599 1.10654 4.22907 1.04207 4.2216 0.97758 4.21404 0.935902 4.2094 0.89422 4.20478 0.852533 4.20019 0.824118 4.19688 0.824118 4.19688 0.79513 4.1935 0.674815 4.18113 0.562077 4.1842 0.441857 4.19759 0.377535 4.20472 0.313859 4.20695 0.249167 4.20741 0.22794 4.20771 0.206713 4.20801 0.184844 4.20832 0.13 4.20333 0.13 4.20333 0.065 4.16-0.0382213 3.9447-0.0329613 3.7229-0.0295165 3.49035-0.0292779 3.45208-0.0290784 3.41384-0.0289146 3.37558-0.0283643 3.2726-0.0272731 3.16962-0.0260791 3.06664-0.0249212 2.95869-0.0242693 2.85073-0.0235616 2.74278-0.0221485 2.53875-0.0202858 2.33474-0.0182584 2.13071-0.0159707 1.89827-0.0141891 1.66583-0.0124483 1.43338-0.00885872 0.955585-0.00463914 0.477791 0 0Z" fill="#FDFDFD" transform="matrix(1 0 0 1.0039 156.872 4.71781)"/><path d="M0 0C0.218476-0.00150655 0.436952-0.00266127 0.655432-0.0033678 0.756884-0.00370691 0.858332-0.00416685 0.959781-0.00490356 1.0577-0.00561019 1.15561-0.00599857 1.25353-0.00616703 1.29088-0.00628706 1.32822-0.00652145 1.36557-0.00687245 1.4179-0.0073448 1.47023-0.00740926 1.52256-0.00737915 1.53798-0.00761284 1.55339-0.00784654 1.56927-0.0080873 1.66596-0.00748603 1.71892 0.0117598 1.79833 0.065 1.84123 0.0793 1.88413 0.0936 1.92833 0.108333 1.92833 0.973483 1.92833 1.83863 1.92833 2.73 1.885 2.73 1.885 2.73 1.85445 2.70047 1.84263 2.68651 1.83082 2.67258 1.81865 2.65824 1.80532 2.64253 1.792 2.62684 1.77827 2.61066 1.75603 2.58395 1.75603 2.58395 1.73333 2.55667 1.71649 2.5366 1.69965 2.51656 1.6823 2.49589 1.47273 2.24358 1.47273 2.24358 1.47435 2.15372 1.50032 2.08825 1.52947 2.06696 1.58708 2.02719 1.72084 1.92889 1.81066 1.82979 1.86333 1.66833 1.88812 1.47984 1.88313 1.31411 1.7787 1.15079 1.65233 1.02324 1.54096 0.984343 1.36198 0.981091 1.33728 0.981175 1.31258 0.981259 1.28713 0.981348 1.26141 0.981019 1.23569 0.980692 1.20918 0.980354 1.12751 0.979429 1.04585 0.979234 0.964167 0.979062 0.908589 0.97856 0.853012 0.978012 0.797435 0.977412 0.661624 0.976053 0.525817 0.975295 0.39 0.975 0.416986 1.07616 0.437495 1.14403 0.510521 1.2201 0.589472 1.30365 0.609301 1.34262 0.611533 1.45853 0.61202 1.48262 0.612508 1.50671 0.613011 1.53154 0.614551 1.6422 0.615801 1.75287 0.616633 1.86354 0.617114 1.92182 0.618016 1.98008 0.619298 2.03835 0.621017 2.12246 0.621731 2.20653 0.622241 2.29066 0.622953 2.31653 0.623668 2.34241 0.624405 2.36906 0.624093 2.49999 0.617314 2.57981 0.531215 2.68162 0.51753 2.69486 0.503845 2.70812 0.489745 2.72175 0.437877 2.79015 0.437877 2.79015 0.433333 2.96833 0.662133 2.96833 0.890933 2.96833 1.12667 2.96833 1.1143 2.79853 1.1143 2.79853 1.04948 2.67042 0.97872 2.5415 0.986542 2.41854 0.996667 2.275 1.04643 2.26839 1.04643 2.26839 1.105 2.275 1.1419 2.31953 1.1419 2.31953 1.17542 2.38063 1.25393 2.5129 1.34448 2.62017 1.45167 2.73 1.47714 2.75778 1.47714 2.75778 1.50312 2.78612 1.52055 2.8038 1.53798 2.82148 1.55594 2.83968 1.57127 2.85558 1.5866 2.87146 1.6024 2.88784 1.69365 2.9453 1.69365 2.9453 1.92833 2.94667 1.92833 3.44002 1.92833 3.93337 1.92833 4.44167 1.82 4.39833 1.82 4.39833 1.76935 4.37259 1.56966 4.27587 1.36461 4.25683 1.14617 4.23436 1.08198 4.22771 1.0179 4.22039 0.953799 4.21298 0.754966 4.19085 0.567365 4.17374 0.368333 4.20333 0.321421 4.20552 0.274462 4.20708 0.2275 4.20741 0.206273 4.20771 0.185047 4.20801 0.163177 4.20832 0.108333 4.20333 0.108333 4.20333 0.0433333 4.16 0.00578847 4.04382-0.00623742 3.93651-0.00521103 3.81448-0.00524806 3.79804-0.00528509 3.78161-0.00532322 3.76469-0.00539409 3.71013-0.00515708 3.65558-0.00491944 3.60102-0.0049072 3.56172-0.00491409 3.52241-0.00493861 3.48311-0.00495101 3.37677-0.0046967 3.27041-0.00439374 3.16407-0.00412237 3.05279-0.00409736 2.94153-0.00404597 2.83025-0.00391142 2.61969-0.00355602 2.40914-0.00312082 2.19858-0.00263603 1.95882-0.00239811 1.71904-0.00218069 1.47927-0.00172807 0.98618-0.00096614 0.49309 0 0Z" fill="#FEFEFE" transform="matrix(1 0 0 1.0039 148.812 4.71781)"/><path d="M0 0C1.82325 0 3.6465 0 5.525 0 5.45528 0.0871531 5.39253 0.149341 5.30562 0.215312 5.27833 0.236385 5.251 0.257461 5.2237 0.278536 5.20204 0.295141 5.20204 0.295141 5.17994 0.312082 5.13431 0.347206 5.08891 0.382644 5.04359 0.418184 4.80222 0.607306 4.55795 0.792326 4.31167 0.975 4.29663 0.986228 4.28159 0.997455 4.2661 1.00902 3.94947 1.24498 3.61929 1.46151 3.28958 1.67858 3.21705 1.72638 3.14492 1.77479 3.07285 1.8233 3.03624 1.84751 2.99958 1.87169 2.96292 1.89583 2.94695 1.90676 2.931 1.91768 2.91456 1.92893 2.87049 1.95745 2.87049 1.95745 2.795 1.99333 2.71663 1.97007 2.65051 1.93059 2.58139 1.88762 2.56104 1.875 2.54072 1.86237 2.51977 1.84936 2.4871 1.82879 2.4871 1.82879 2.45375 1.80781 2.43093 1.79349 2.4081 1.77916 2.38459 1.76441 1.99145 1.51586 1.6098 1.25031 1.235 0.975 1.20084 0.950029 1.16667 0.925063 1.13251 0.900098 0.839035 0.685213 0.548373 0.466949 0.265417 0.238333 0.25121 0.226893 0.237001 0.215456 0.222363 0.20367 0.208977 0.192765 0.19559 0.18186 0.181797 0.170625 0.170185 0.161185 0.158573 0.151744 0.14661 0.142018 0.0955331 0.0970686 0.0481108 0.0481108 0 0Z" fill="#FEFEFE" transform="matrix(1 0 0 1.0039 148.27 30.4276)"/><path d="M0 0C0.0916292-0.00189056 0.183253-0.00304371 0.274896-0.0040625 0.300857-0.00460713 0.326818-0.00515175 0.353565-0.00571289 0.378632-0.00592237 0.403698-0.00613184 0.429524-0.00634766 0.452558-0.00668805 0.475592-0.00702845 0.499323-0.00737915 0.576665 0.00153676 0.612441 0.014004 0.671667 0.065 0.735761 0.177205 0.745806 0.289757 0.743015 0.416407 0.742922 0.432512 0.742831 0.448617 0.742736 0.465212 0.742376 0.515983 0.741561 0.566735 0.740729 0.6175 0.740402 0.652199 0.740105 0.6869 0.739841 0.721602 0.739128 0.806076 0.73801 0.890535 0.736667 0.975 0.774371 0.973869 0.774371 0.973869 0.812838 0.972714 1.30121 0.962397 1.30121 0.962397 1.46792 1.09823 1.49205 1.12303 1.49205 1.12303 1.51667 1.14833 1.50977 1.21265 1.49653 1.23358 1.44828 1.27833 1.23701 1.42692 0.985887 1.40833 0.736667 1.40833 0.736667 2.11618 0.736667 2.82403 0.736667 3.55333 0.915417 3.55333 1.09417 3.55333 1.27833 3.55333 1.45167 3.64 1.45167 3.64 1.47333 3.66167 1.48865 3.81487 1.48865 3.81487 1.42594 3.89729 1.29629 3.99525 1.1837 3.99276 1.02646 3.99074 0.995456 3.99072 0.995456 3.99072 0.963829 3.9907 0.810819 3.98972 0.810819 3.98972 0.736667 3.965 0.737007 3.98487 0.737347 4.00474 0.737698 4.02521 0.738816 4.09992 0.739626 4.1746 0.740237 4.24933 0.740562 4.28146 0.741002 4.31362 0.74157 4.34577 0.748235 4.73334 0.748235 4.73334 0.671667 4.875 0.522741 5.00851 0.363434 5.00818 0.172841 5.00747 0.151059 5.00747 0.129276 5.00747 0.106834 5.00747 0.0349698 5.00745-0.0368929 5.00728-0.108756 5.00712-0.158636 5.00708-0.208516 5.00704-0.258395 5.00702-0.389582 5.00695-0.520769 5.00673-0.651954 5.00649-0.785859 5.00626-0.919763 5.00617-1.05367 5.00606-1.31633 5.00582-1.579 5.00546-1.84167 5.005-1.72798 4.87552-1.56653 4.84023-1.39912 4.82486-1.32144 4.82313-1.24429 4.82415-1.16662 4.82625-1.1234 4.82675-1.08019 4.82725-1.03698 4.82772-0.947067 4.82885-0.857168 4.83078-0.767264 4.83258-0.692861 4.83401-0.618464 4.83529-0.54405 4.83609-0.488648 4.83674-0.433249 4.83776-0.377862 4.83927-0.176621 4.84153 0.0102116 4.81425 0.186777 4.71217 0.358952 4.53234 0.337525 4.28881 0.336557 4.05654 0.336711 4.01778 0.336902 3.97904 0.337125 3.9403 0.33761 3.83558 0.337547 3.73089 0.337354 3.62618 0.337244 3.53858 0.337402 3.45098 0.33756 3.36338 0.337929 3.15664 0.337853 2.94992 0.337489 2.7432 0.337122 2.5303 0.337465 2.3174 0.338165 2.10451 0.338745 1.92132 0.338901 1.73814 0.338717 1.55496 0.338611 1.44572 0.338656 1.33649 0.339103 1.22725 0.339502 1.12453 0.339369 1.02182 0.338838 0.919091 0.33873 0.881519 0.338804 0.843945 0.339081 0.806373 0.340899 0.536963 0.308267 0.341876 0.11375 0.140833 0.0228705 0.0457407 0.0228705 0.0457407 0 0Z" fill="#FCFCFC" transform="matrix(1 0 0 1.0039 145.193 4.71781)"/><path d="M0 0C0.0916292-0.00189056 0.183253-0.00304371 0.274896-0.0040625 0.300857-0.00460713 0.326818-0.00515175 0.353565-0.00571289 0.378632-0.00592237 0.403698-0.00613184 0.429524-0.00634766 0.452558-0.00668805 0.475592-0.00702845 0.499323-0.00737915 0.575833 0.00144088 0.612417 0.015592 0.671667 0.065 0.735453 0.177566 0.745721 0.269815 0.743015 0.397362 0.742922 0.413981 0.742831 0.430599 0.742736 0.44772 0.742376 0.500257 0.741559 0.552779 0.740729 0.605312 0.740402 0.641156 0.740107 0.676999 0.739841 0.712842 0.739128 0.800234 0.738008 0.887614 0.736667 0.975 0.777253 0.973661 0.777253 0.973661 0.818658 0.972296 1.27982 0.958418 1.27982 0.958418 1.44837 1.09383 1.47333 1.12667 1.47333 1.12667 1.47333 1.17948 1.43991 1.26512 1.38549 1.3014 1.30372 1.34071 1.11642 1.41703 0.939844 1.40833 0.736667 1.40833 0.736667 2.11618 0.736667 2.82403 0.736667 3.55333 0.908267 3.55333 1.07987 3.55333 1.25667 3.55333 1.43 3.64 1.43 3.64 1.47333 3.68333 1.48281 3.75509 1.48281 3.75509 1.47333 3.835 1.41033 3.91601 1.35312 3.95518 1.25667 3.98667 1.19663 3.99159 1.19663 3.99159 1.13234 3.99089 1.09767 3.9907 1.09767 3.9907 1.0623 3.99048 1.02646 3.98994 1.02646 3.98994 0.989896 3.98937 0.965584 3.98918 0.941269 3.98898 0.916221 3.98879 0.856364 3.98827 0.796519 3.98756 0.736667 3.98667 0.736894 4.00545 0.737119 4.02424 0.737354 4.04358 0.738097 4.114 0.738638 4.18442 0.739048 4.25486 0.739264 4.28519 0.739557 4.31555 0.739936 4.34588 0.745281 4.78677 0.745281 4.78677 0.628333 4.91833 0.480714 4.99768 0.345503 5.01737 0.180221 5.01484 0.158211 5.01486 0.136201 5.01486 0.113524 5.01488 0.0415389 5.01481-0.0304267 5.01414-0.102409 5.01347-0.152619 5.0133-0.20283 5.01317-0.253041 5.01308-0.38462 5.01276-0.516193 5.01191-0.647771 5.01096-0.782264 5.01007-0.91676 5.00966-1.05126 5.00922-1.31473 5.00832-1.5782 5.00682-1.84167 5.005-1.72623 4.87383-1.56388 4.84046-1.39447 4.82402-1.32469 4.82159-1.25516 4.82055-1.18534 4.82114-1.13929 4.82153-1.09327 4.82135-1.04721 4.82105-0.949563 4.82051-0.85192 4.82062-0.754271 4.82083-0.64069 4.82109-0.527122 4.82105-0.413543 4.82031-0.36858 4.82016-0.323641 4.82051-0.278683 4.8209-0.113745 4.82003 0.0285948 4.80827 0.173333 4.72333 0.353964 4.52881 0.33459 4.24537 0.334098 3.9975 0.334258 3.95939 0.334444 3.9213 0.334655 3.88319 0.335133 3.78023 0.335198 3.67727 0.335157 3.57431 0.335155 3.48816 0.335341 3.40201 0.335521 3.31587 0.335937 3.11257 0.336 2.90927 0.335855 2.70597 0.33571 2.49661 0.336206 2.28726 0.33701 2.07791 0.337675 1.89776 0.33792 1.71762 0.337837 1.53747 0.337792 1.43005 0.337909 1.32264 0.33844 1.21522 0.338925 1.1142 0.338882 1.01319 0.338442 0.912175 0.338368 0.875232 0.338479 0.838286 0.338789 0.801342 0.340951 0.525135 0.298725 0.33165 0.101562 0.128646 0 0.0229318 0 0.0229318 0 0Z" fill="#FCFCFC" transform="matrix(1 0 0 1.0039 161.335 4.71781)"/><path d="M0 0C0.0853121-0.000628078 0.170624-0.00101388 0.255937-0.00135417 0.280196-0.00153571 0.304451-0.00171725 0.329444-0.0019043 0.364321-0.00200903 0.364321-0.00200903 0.399902-0.00211588 0.43207-0.00228607 0.43207-0.00228607 0.464887-0.00245971 0.52 0 0.52 0 0.585 0.0216667 0.676128 0.149245 0.699868 0.275021 0.697565 0.429102 0.697504 0.444788 0.697444 0.460473 0.697378 0.476636 0.697138 0.526303 0.696594 0.575961 0.696042 0.625625 0.695825 0.659479 0.695626 0.693333 0.69545 0.727188 0.694973 0.809796 0.694226 0.892396 0.693333 0.975 0.71822 0.973995 0.743104 0.972989 0.768744 0.971954 1.00293 0.965404 1.26557 0.959521 1.45167 1.12667 1.46521 1.17948 1.46521 1.17948 1.45167 1.235 1.24133 1.41837 0.955853 1.40833 0.693333 1.40833 0.693333 2.11618 0.693333 2.82403 0.693333 3.55333 0.864933 3.55333 1.03653 3.55333 1.21333 3.55333 1.38667 3.64 1.38667 3.64 1.43 3.68333 1.42753 3.83641 1.42753 3.83641 1.35958 3.90812 1.2618 3.96591 1.18614 3.99217 1.07208 3.99089 1.04994 3.99076 1.02781 3.99061 1.005 3.99048 0.970712 3.98994 0.970712 3.98994 0.935729 3.98937 0.91245 3.98918 0.88917 3.98898 0.865185 3.98879 0.807896 3.98827 0.750618 3.98756 0.693333 3.98667 0.694014 4.01184 0.694014 4.01184 0.694709 4.03754 0.710641 4.71584 0.710641 4.71584 0.606667 4.89667 0.464005 5.01074 0.280449 5.0113 0.106429 5.00992 0.0852709 5.00992 0.064113 5.00994 0.0423137 5.00994-0.0270879 5.00992-0.0964845 5.00957-0.165885 5.00922-0.214215 5.00916-0.262544 5.00909-0.310873 5.00905-0.43768 5.00888-0.564482 5.00847-0.691286 5.00797-0.820839 5.00753-0.950393 5.00734-1.07995 5.00712-1.33385 5.00665-1.58776 5.00591-1.84167 5.005-1.78719 4.94893-1.74666 4.90793-1.6724 4.88176-1.65885 4.87678-1.6453 4.87177-1.63135 4.86662-1.47041 4.82359-1.31082 4.83019-1.14546 4.8326-1.08898 4.83308-1.0325 4.83355-0.976016 4.83398-0.887588 4.83476-0.799169 4.8357-0.710747 4.83702-0.624992 4.83827-0.53924 4.83884-0.453477 4.83936-0.414427 4.84014-0.414427 4.84014-0.374591 4.84094-0.174353 4.84155 0.00979624 4.81156 0.186796 4.71354 0.358986 4.52907 0.337664 4.26857 0.336902 4.03275 0.33709 3.99403 0.337315 3.95534 0.337573 3.91662 0.338149 3.81208 0.338178 3.70756 0.338069 3.60304 0.338022 3.51555 0.338234 3.42806 0.338442 3.34054 0.338921 3.13406 0.338942 2.92758 0.338678 2.72107 0.338418 2.50852 0.338951 2.29595 0.339874 2.08339 0.340639 1.90041 0.340897 1.71743 0.340756 1.53445 0.340678 1.42537 0.340791 1.3163 0.341393 1.20722 0.341941 1.10463 0.341852 1.00206 0.341289 0.899479 0.341187 0.861984 0.341304 0.82449 0.341664 0.786996 0.343928 0.532112 0.309513 0.35149 0.139648 0.151497 0.123058 0.13636 0.106468 0.121222 0.089375 0.105625 0.0594044 0.0778306 0.0295522 0.0499055 0 0.0216667 0 0.0145167 0 0.00736667 0 0Z" fill="#FAFAFA" transform="matrix(1 0 0 1.0039 153.275 4.71781)"/><path d="M0 0C0.0147469-0.000307227 0.0294938-0.000614454 0.0446875-0.000930991 0.0866667 0.0040625 0.0866667 0.0040625 0.151667 0.0473958 0.13826 0.0527583 0.124854 0.0581208 0.111042 0.0636458 0.0553371 0.0964132 0.0492579 0.119974 0.0216667 0.177396-0.011219 0.226943-0.045191 0.275615-0.0793035 0.324324-0.136164 0.418483-0.133217 0.511823-0.133189 0.619376-0.133268 0.635576-0.133348 0.651779-0.13343 0.668469-0.133669 0.722789-0.133752 0.777108-0.133835 0.831426-0.133971 0.870365-0.134115 0.909302-0.134266 0.948242-0.134722 1.07616-0.134947 1.20408-0.135163 1.33199-0.13525 1.37607-0.13534 1.42014-0.13543 1.46421-0.135843 1.67131-0.136151 1.87842-0.136332 2.08552-0.136544 2.32438-0.137114 2.56323-0.137989 2.80208-0.138643 2.98684-0.138964 3.17157-0.139035 3.35632-0.139086 3.4666-0.13928 3.57688-0.139826 3.68715-0.140331 3.79097-0.140421 3.8948-0.140199 3.99863-0.140188 4.03661-0.140325 4.07461-0.140623 4.11259-0.143836 4.43436-0.143836 4.43436 0 4.71521 0.262626 4.85199 0.559494 4.82016 0.846354 4.81542 1.37343 4.80749 1.37343 4.80749 1.61814 4.83234 1.64284 4.83479 1.64284 4.83479 1.66804 4.83728 1.83441 4.85671 1.96345 4.91157 2.08 5.03074 1.78807 5.03323 1.49615 5.03516 1.20422 5.03635 1.06867 5.03692 0.933116 5.03767 0.797567 5.03891 0.666776 5.04008 0.535992 5.04073 0.405195 5.04101 0.355273 5.0412 0.305348 5.04159 0.255428 5.04218 0.185549 5.04296 0.115698 5.04307 0.0458142 5.04303 0.0147929 5.04361 0.0147929 5.04361-0.016855 5.04422-0.115076 5.04344-0.158892 5.04185-0.238758 4.98032-0.368778 4.8048-0.354625 4.62193-0.350729 4.41324-0.350402 4.38271-0.350105 4.35218-0.349841 4.32165-0.349078 4.24745-0.348012 4.17326-0.346667 4.09907-0.362902 4.10254-0.379134 4.10603-0.395861 4.10962-0.585214 4.14518-0.824679 4.14969-0.996667 4.05574-1.05938 4.01093-1.09655 3.98183-1.11524 3.90568-1.12135 3.82243-1.11107 3.78287-1.06302 3.71312-0.877756 3.58079-0.674234 3.58861-0.455 3.60074-0.41925 3.60789-0.3835 3.61504-0.346667 3.62241-0.346667 2.92171-0.346667 2.22099-0.346667 1.49906-0.518267 1.49906-0.689867 1.49906-0.866667 1.49906-1.04 1.43406-1.04 1.43406-1.105 1.36906-1.11496 1.30043-1.12066 1.26092-1.105 1.19573-1.01501 1.09717-0.921546 1.04861-0.787839 1.04067-0.721075 1.0398-0.65447 1.04029-0.587708 1.04135-0.564527 1.04155-0.541346 1.04174-0.517461 1.04195-0.460525 1.04245-0.403598 1.04317-0.346667 1.04406-0.347007 1.02277-0.347347 1.00147-0.347698 0.979533-0.348885 0.899702-0.349624 0.819873-0.350237 0.740036-0.350562 0.705638-0.351004 0.67124-0.35157 0.636844-0.357405 0.273228-0.357405 0.273228-0.281667 0.112396-0.193399 0.0388392-0.114835 0.00108745 0 0Z" fill="#F8F8F8" transform="matrix(1 0 0 1.0039 148.292 4.69198)"/><path d="M0 0C-0.00787618 0.00999882-0.0157523 0.0199977-0.0238671 0.0302995-0.046735 0.0599692-0.0691578 0.0899851-0.0912154 0.120262-0.115122 0.152975-0.139612 0.18528-0.165011 0.216846-0.290193 0.391406-0.278072 0.573629-0.276133 0.778767-0.276239 0.817904-0.276399 0.85704-0.276614 0.896174-0.277019 1.00196-0.276614 1.10773-0.276035 1.21352-0.275544 1.32454-0.275724 1.43555-0.275808 1.54656-0.275845 1.73298-0.275366 1.91938-0.274569 2.1058-0.27365 2.32089-0.273498 2.53595-0.273769 2.75106-0.274016 2.95847-0.273769 3.16591-0.273284 3.37333-0.273084 3.46136-0.273046 3.54939-0.273136 3.63742-0.273219 3.74125-0.272864 3.84503-0.272181 3.94884-0.271999 3.9868-0.27196 4.02473-0.272081 4.0627-0.277572 4.38672-0.277572 4.38672-0.143514 4.67339-0.0405201 4.76736 0.0779629 4.79401 0.213614 4.79256 0.238149 4.79243 0.262682 4.79228 0.287961 4.79213 0.314232 4.79178 0.340505 4.79141 0.367571 4.79104 0.39499 4.79087 0.422409 4.79072 0.45066 4.79054 0.553003 4.78994 0.655336 4.78892 0.757675 4.78788 1.67062 4.77874 1.67062 4.77874 1.95 4.96167 1.95715 4.97597 1.9643 4.99027 1.97167 5.005 1.68257 5.00649 1.39347 5.00767 1.10436 5.00836 0.970121 5.00871 0.835883 5.00916 0.701642 5.0099 0.572117 5.01061 0.442594 5.011 0.313064 5.01118 0.263625 5.01128 0.214187 5.01152 0.16475 5.01187 0.0955496 5.01234 0.0263601 5.01241-0.0428413 5.01239-0.0633195 5.0126-0.0837978 5.01284-0.104897 5.01308-0.20962 5.01258-0.284971 5.01102-0.368333 4.94-0.438427 4.80482-0.457804 4.68735-0.457117 4.53672-0.457045 4.5097-0.456976 4.48266-0.456905 4.45482-0.456632 4.41279-0.456632 4.41279-0.456354 4.36991-0.456257 4.34146-0.456159 4.31301-0.456057 4.28369-0.455804 4.21358-0.455446 4.14345-0.455 4.07333-0.47146 4.07682-0.487923 4.08031-0.504881 4.08389-0.699849 4.12093-0.922697 4.11274-1.105 4.03-1.18244 3.97421-1.21025 3.91757-1.22687 3.82282-1.20934 3.72641-1.18304 3.69852-1.105 3.64-0.916212 3.53472-0.660716 3.55552-0.455 3.59667-0.455 2.89597-0.455 2.19527-0.455 1.47333-0.63375 1.47333-0.8125 1.47333-0.996667 1.47333-1.17 1.38667-1.17 1.38667-1.21333 1.32167-1.22281 1.25937-1.22281 1.25937-1.21333 1.19167-1.14391 1.1012-1.06274 1.0481-0.953333 1.01833-0.866914 1.01076-0.78135 1.01217-0.694687 1.01427-0.660062 1.01471-0.660062 1.01471-0.624737 1.01516-0.568145 1.01592-0.511578 1.01699-0.455 1.01833-0.45534 0.999349-0.45568 0.980363-0.456031 0.960802-0.457152 0.889083-0.45796 0.817373-0.458571 0.74565-0.458894 0.714846-0.459333 0.684047-0.459903 0.653248-0.468505 0.175237-0.468505 0.175237-0.337187 0.0270833-0.224698-0.0123867-0.117986-0.00687295 0 0Z" fill="#F4F4F4" transform="matrix(1 0 0 1.0039 140.34 4.71781)"/><path d="M0 0C-0.00812753 0.0107529-0.0162551 0.0215059-0.0246289 0.0325847-0.047837 0.0633923-0.0709659 0.09426-0.0940299 0.125176-0.116254 0.15493-0.138625 0.184577-0.161231 0.214043-0.170587 0.226527-0.179943 0.239011-0.189583 0.251875-0.197962 0.262879-0.206341 0.273884-0.214974 0.285222-0.277474 0.391651-0.28717 0.494219-0.287608 0.615682-0.28772 0.631401-0.287833 0.64712-0.28795 0.663316-0.288275 0.715752-0.28829 0.768183-0.288305 0.820621-0.28847 0.858321-0.288652 0.896023-0.288851 0.933725-0.289326 1.03603-0.289519 1.13833-0.289627 1.24063-0.289707 1.30466-0.289842 1.36869-0.289995 1.43273-0.290526 1.65647-0.29081 1.88021-0.290886 2.10396-0.290966 2.3119-0.291612 2.51983-0.29252 2.72779-0.293276 2.90673-0.293607 3.08568-0.293622 3.26465-0.29364 3.37133-0.293826 3.478-0.294446 3.58469-0.295016 3.68524-0.295059 3.78575-0.294712 3.88629-0.294673 3.92295-0.294816 3.95961-0.295163 3.99624-0.29923 4.37114-0.29923 4.37114-0.137292 4.69605-0.0943453 4.72392-0.0943453 4.72392-0.0216667 4.745-0.00414078 4.75263 0.0133851 4.76025 0.031442 4.7681 0.14615 4.79828 0.257725 4.79275 0.375782 4.79104 0.414824 4.7908 0.414824 4.7908 0.454653 4.79054 0.565617 4.78985 0.676574 4.78864 0.787533 4.78745 0.868753 4.78664 0.949975 4.78612 1.0312 4.78562 1.05576 4.78526 1.08033 4.78491 1.10564 4.78454 1.39625 4.78279 1.71191 4.80018 1.95 4.98333 1.95 4.99048 1.95 4.99763 1.95 5.005 1.66655 5.006 1.3831 5.00678 1.09964 5.00725 0.968028 5.00747 0.836411 5.00777 0.704797 5.00827 0.577798 5.00875 0.450801 5.00901 0.323804 5.00912 0.275333 5.00918 0.226861 5.00936 0.178391 5.00957 0.110542 5.0099 0.0426974 5.00994-0.0251526 5.00992-0.0552621 5.01016-0.0552621 5.01016-0.0859801 5.01039-0.26145 5.00983-0.26145 5.00983-0.346667 4.96167-0.375442 4.91784-0.375442 4.91784-0.395417 4.86688-0.402231 4.85017-0.409047 4.83346-0.416067 4.81626-0.449293 4.72082-0.457578 4.64052-0.457117 4.53882-0.457045 4.51174-0.456976 4.48465-0.456905 4.45673-0.456632 4.41441-0.456632 4.41441-0.456354 4.37125-0.456257 4.34271-0.456159 4.31416-0.456057 4.28476-0.455802 4.21427-0.455446 4.14382-0.455 4.07333-0.471235 4.07682-0.487468 4.08031-0.504194 4.08389-0.689871 4.11877-0.938303 4.12767-1.105 4.03-1.17926 3.97193-1.21035 3.91701-1.22687 3.82282-1.20934 3.72641-1.18304 3.69852-1.105 3.64-0.916212 3.53472-0.660716 3.55552-0.455 3.59667-0.455 2.89597-0.455 2.19527-0.455 1.47333-0.63375 1.47333-0.8125 1.47333-0.996667 1.47333-1.17 1.38667-1.17 1.38667-1.21333 1.32167-1.22281 1.25937-1.22281 1.25937-1.21333 1.19167-1.14391 1.1012-1.06274 1.0481-0.953333 1.01833-0.866914 1.01076-0.78135 1.01217-0.694687 1.01427-0.660062 1.01471-0.660062 1.01471-0.624737 1.01516-0.568145 1.01592-0.511578 1.01699-0.455 1.01833-0.45534 0.997809-0.45568 0.977284-0.456031 0.956137-0.457147 0.879008-0.457957 0.801888-0.458571 0.724754-0.458896 0.691554-0.459336 0.658357-0.459903 0.625159-0.467478 0.170104-0.467478 0.170104-0.337187 0.0297917-0.224902-0.0135463-0.118918-0.00692729 0 0Z" fill="#F9F9F9" transform="matrix(1 0 0 1.0039 156.482 4.71781)"/><path d="M0 0C0.0761661 0.035568 0.12043 0.0744783 0.176042 0.138125 0.190844 0.154827 0.205647 0.171529 0.220898 0.188737 0.298036 0.286579 0.309649 0.361981 0.308982 0.485073 0.309105 0.509333 0.309105 0.509333 0.309233 0.534086 0.309456 0.588309 0.30937 0.642527 0.309285 0.69675 0.309378 0.735616 0.309491 0.774481 0.309619 0.813347 0.309911 0.91895 0.309922 1.02455 0.309868 1.13015 0.309844 1.2183 0.30995 1.30644 0.310054 1.39458 0.310295 1.60253 0.310304 1.81048 0.310173 2.01843 0.310041 2.23297 0.310308 2.44751 0.310769 2.66205 0.311153 2.84624 0.311283 3.03041 0.311211 3.21458 0.311172 3.32458 0.311229 3.4346 0.31153 3.5446 0.311803 3.64806 0.311762 3.75154 0.311478 3.855 0.311426 3.89296 0.311486 3.93092 0.311664 3.96888 0.311892 4.02073 0.311716 4.07258 0.311441 4.12442 0.311601 4.13942 0.311762 4.15441 0.311926 4.16984 0.310826 4.26864 0.290101 4.33604 0.238333 4.42 0.134277 4.49941 0.0305942 4.50955-0.0971984 4.50844-0.120503 4.50829-0.143808 4.50816-0.167819 4.50801-0.205363 4.50764-0.205363 4.50764-0.243666 4.50725-0.297225 4.50699-0.350785 4.50671-0.404345 4.50645-0.488345 4.50593-0.572344 4.50532-0.656342 4.50459-0.737707 4.50394-0.819069 4.50355-0.900436 4.5032-0.925071 4.5029-0.949706 4.50261-0.975087 4.50231-1.27411 4.5014-1.53163 4.54484-1.79833 4.68-1.80721 4.66774-1.8161 4.65547-1.82525 4.64284-1.83692 4.62696-1.8486 4.61106-1.86063 4.59468-1.87797 4.57093-1.87797 4.57093-1.89566 4.54671-1.92574 4.50426-1.92574 4.50426-1.97167 4.485-1.95 4.42-1.95 4.42-1.91277 4.39636-1.74124 4.3259-1.56679 4.30508-1.38396 4.28593-1.3676 4.28411-1.35125 4.28227-1.3344 4.28038-1.14877 4.25954-0.964004 4.2442-0.777207 4.24023-0.753593 4.23971-0.753593 4.23971-0.729504 4.23919-0.654626 4.23776-0.579854 4.2372-0.504968 4.2378-0.344171 4.23674-0.231593 4.22556-0.108333 4.11667-0.0060195 4.01093 0.00641617 3.87757 0.00521103 3.73631 0.00526656 3.71226 0.00526656 3.71226 0.00532322 3.68771 0.00539435 3.63422 0.00515665 3.58072 0.00491944 3.52723 0.0049072 3.48879 0.00491409 3.45035 0.00493861 3.41192 0.00495103 3.3077 0.00469638 3.2035 0.00439374 3.09929 0.00412271 2.99035 0.00409738 2.88138 0.00404597 2.77242 0.00391133 2.56616 0.00355576 2.35991 0.00312082 2.15365 0.00263636 1.9188 0.00239817 1.68395 0.00218069 1.4491 0.00172783 0.966069 0.000965703 0.483034 0 0Z" fill="#FBFBFB" transform="matrix(1 0 0 1.0039 145.042 4.87007)"/><path d="M0 0C0.0707438 0.033353 0.112773 0.0661709 0.163854 0.125937 0.176395 0.140377 0.188935 0.154817 0.201856 0.169694 0.28569 0.277647 0.311467 0.346002 0.311588 0.484774 0.311688 0.500656 0.31179 0.516535 0.311894 0.532898 0.312154 0.586007 0.311948 0.639104 0.311744 0.692211 0.311831 0.730336 0.311948 0.768458 0.312089 0.806581 0.312386 0.910084 0.312271 1.01358 0.312065 1.11709 0.3119 1.22549 0.312052 1.3339 0.312154 1.4423 0.312273 1.62444 0.312117 1.80658 0.311807 1.98872 0.311454 2.19904 0.311569 2.40935 0.311926 2.61967 0.312221 2.80039 0.312262 2.98112 0.312093 3.16184 0.311991 3.26969 0.311978 3.37757 0.312193 3.48543 0.312381 3.58694 0.312249 3.68845 0.311874 3.78996 0.31179 3.82711 0.311812 3.86429 0.311957 3.90145 0.313207 4.25711 0.313207 4.25711 0.238333 4.42 0.143076 4.50021 0.0342279 4.50953-0.08691 4.50879-0.107976 4.5087-0.129041 4.50864-0.150746 4.50857-0.173337 4.50838-0.195929 4.5082-0.219206 4.50801-0.254609 4.5079-0.254609 4.5079-0.290728 4.50777-0.391374 4.50742-0.492015 4.50682-0.592659 4.50621-1.21568 4.48946-1.21568 4.48946-1.79833 4.68-1.8054 4.6698-1.81247 4.65961-1.81975 4.6491-1.82921 4.63563-1.83868 4.62213-1.84844 4.60824-1.85774 4.59491-1.86704 4.58159-1.87662 4.56785-1.90578 4.5295-1.93682 4.49655-1.97167 4.46333-1.78459 4.32971-1.591 4.3139-1.36906 4.28866-1.35254 4.28671-1.33601 4.28478-1.31898 4.28278-1.03518 4.24987-0.753122 4.23544-0.467458 4.23592-0.259539 4.23794-0.259539 4.23794-0.0866667 4.13833 0.0343033 3.96862 0.0115869 3.75722 0.00983888 3.5592 0.00981439 3.52034 0.00982819 3.48144 0.00987723 3.44257 0.00990199 3.33747 0.0093938 3.23238 0.00878748 3.12728 0.00824432 3.0173 0.00819468 2.9073 0.00809194 2.7973 0.00782297 2.58919 0.00711232 2.3811 0.00624165 2.17299 0.00527167 1.936 0.00479611 1.699 0.00436137 1.46201 0.00345642 0.974669 0.00193279 0.487335 0 0Z" fill="#FCFCFC" transform="matrix(1 0 0 1.0039 161.183 4.87007)"/><path d="M0 0C0.0244315 0.0205978 0.048815 0.0412529 0.0731779 0.061932 0.0867616 0.0734281 0.100345 0.0849242 0.11434 0.0967687 0.157279 0.134997 0.191452 0.175298 0.224792 0.222083 0.235237 0.236496 0.245683 0.250906 0.256445 0.265755 0.30873 0.343657 0.30649 0.408428 0.306375 0.499592 0.30644 0.515522 0.306505 0.531451 0.30657 0.547863 0.306761 0.601519 0.306791 0.655176 0.306824 0.708832 0.306926 0.747195 0.307034 0.785555 0.307151 0.823918 0.307435 0.928362 0.307576 1.03281 0.307671 1.13725 0.307734 1.2025 0.307823 1.26775 0.30792 1.333 0.308217 1.53714 0.308425 1.74128 0.308509 1.94542 0.308607 2.18108 0.308986 2.41674 0.309614 2.65239 0.310082 2.8345 0.310301 3.01661 0.310329 3.19874 0.310353 3.3075 0.310481 3.41627 0.310869 3.52506 0.311226 3.62745 0.311272 3.72985 0.311081 3.83225 0.311064 3.86977 0.311159 3.9073 0.311374 3.94481 0.311649 3.99618 0.311521 4.04753 0.311296 4.0989 0.311558 4.12098 0.311558 4.12098 0.311825 4.14351 0.31067 4.25661 0.28397 4.33968 0.238333 4.44167 0.138297 4.52328 0.0292849 4.53128-0.0961671 4.52976-0.119262 4.52955-0.142357 4.52933-0.166151 4.52911-0.190977 4.52881-0.215802 4.52848-0.24138 4.52816-0.294645 4.52779-0.347908 4.52742-0.401171 4.52705-0.484597 4.5264-0.568018 4.52562-0.651439 4.52463-1.21203 4.50385-1.21203 4.50385-1.73333 4.68-1.75478 4.68715-1.77623 4.6943-1.79833 4.70167-1.81166 4.68366-1.81166 4.68366-1.82525 4.66527-1.83692 4.64958-1.8486 4.63387-1.86063 4.61771-1.87219 4.60213-1.88375 4.58653-1.89566 4.57048-1.92831 4.52654-1.92831 4.52654-1.97167 4.485-1.81747 4.38089-1.67227 4.35077-1.48958 4.32792-1.46492 4.32445-1.44026 4.32098-1.41485 4.31743-1.19241 4.28712-0.97087 4.26866-0.746399 4.26452-0.718763 4.264-0.691128 4.2635-0.662653 4.26296-0.605952 4.26203-0.549244 4.26136-0.492535 4.26092-0.273323 4.26077-0.273323 4.26077-0.0866667 4.16-0.0136522 4.05058 0.0126301 3.97048 0.0104221 3.83792 0.0105331 3.81318 0.0105331 3.81318 0.0106465 3.78794 0.0107885 3.73299 0.0103137 3.67809 0.00983888 3.62317 0.00981442 3.58365 0.00982817 3.54415 0.00987723 3.50463 0.00990206 3.39759 0.00939306 3.29058 0.00878748 3.18355 0.00824512 3.07162 0.00819475 2.95969 0.00809194 2.84774 0.00782275 2.63588 0.00711176 2.42402 0.00624165 2.21217 0.00527241 1.97093 0.00479629 1.72969 0.00436137 1.48845 0.00345588 0.992297 0.00193179 0.496149 0 0Z" fill="#F9F9F9" transform="matrix(1 0 0 1.0039 153.123 4.84832)"/><path d="M0 0C7.17199e-05 0.0195648 0.00014344 0.0391298 0.000217334 0.0592874 0.00197872 0.535806 0.00397451 1.01232 0.00622975 1.48884 0.00731475 1.71928 0.00832102 1.94972 0.00914062 2.18017 0.00985537 2.38108 0.0107192 2.58197 0.0117604 2.78287 0.0123064 2.88921 0.0127788 2.99553 0.0130725 3.10186 0.0133516 3.20205 0.0138308 3.30226 0.01446 3.40245 0.0146556 3.43911 0.0147797 3.47577 0.0148246 3.51245 0.0150898 3.69588 0.016718 3.87313 0.065 4.05167 0.0507 4.05167 0.0364 4.05167 0.0216667 4.05167 0.0168069 4.06363 0.0119471 4.07556 0.00694009 4.08789-0.0304167 4.15376-0.0785451 4.1993-0.132708 4.25208-0.152427 4.27141-0.172145 4.29074-0.192461 4.31065-0.207599 4.32529-0.222738 4.33992-0.238333 4.355-0.316576 4.27676-0.30626 4.19768-0.306813 4.0921-0.306924 4.07626-0.307034 4.06042-0.307147 4.04408-0.307489 3.99085-0.307673 3.93761-0.307855 3.88438-0.308063 3.84627-0.308278 3.80813-0.308499 3.77002-0.309179 3.6447-0.309617 3.51938-0.31002 3.39404-0.310091 3.37272-0.310163 3.3514-0.310236 3.32943-0.310904 3.12825-0.311482 2.9271-0.311848 2.72595-0.312323 2.46872-0.313233 2.21152-0.314739 1.95429-0.315764 1.7734-0.316288 1.5925-0.316446 1.4116-0.316554 1.30358-0.316879 1.19558-0.317739 1.08756-0.318541 0.985868-0.318721 0.884195-0.318433 0.782498-0.318435 0.745266-0.318656 0.708032-0.319122 0.6708-0.321516 0.468022-0.31991 0.307842-0.173333 0.151667-0.158447 0.134434-0.14356 0.117201-0.128223 0.0994465-0.109663 0.0817252-0.109663 0.0817252-0.0907292 0.0636458-0.0780769 0.0513288-0.0654249 0.0390119-0.0523893 0.0263215-0.0216667 0-0.0216667 0 0 0Z" fill="#FAFAFA" transform="matrix(1 0 0 1.0039 140.535 4.82657)"/><path d="M0 0C9.1692e-05 0.0197165 0.000183384 0.0394329 0.000277856 0.0597469 0.00251697 0.539684 0.00487091 1.01962 0.00735234 1.49956 0.0085496 1.73165 0.0097081 1.96375 0.0107751 2.19585 0.0117054 2.39815 0.0127086 2.60048 0.013799 2.80278 0.0143738 2.9099 0.0149122 3.017 0.0153633 3.12409 0.0157892 3.22498 0.0163129 3.32583 0.0169106 3.42671 0.0171126 3.46368 0.0172793 3.50064 0.0174074 3.5376 0.0175882 3.58819 0.017898 3.63881 0.0182386 3.6894 0.0183784 3.7177 0.0185182 3.74597 0.0186623 3.77511 0.0208948 3.83572 0.0260997 3.89075 0.0350575 3.95031 0.0433333 4.03 0.0433333 4.03 0.00583984 4.08577-0.0117279 4.10089-0.0292957 4.11599-0.0473958 4.13157-0.0653826 4.14772-0.0833692 4.16386-0.101901 4.18048-0.118324 4.19517-0.134746 4.20986-0.151667 4.225-0.169095 4.2469-0.186523 4.26879-0.204479 4.29134-0.215651 4.30521-0.226824 4.31906-0.238333 4.33333-0.252633 4.33333-0.266933 4.33333-0.281667 4.33333-0.307402 4.25206-0.306369 4.17447-0.306813 4.08965-0.306924 4.07379-0.307034 4.05795-0.307147 4.04161-0.307487 3.98851-0.307673 3.93538-0.307855 3.88226-0.308063 3.84417-0.308278 3.8061-0.308499 3.76801-0.309179 3.6429-0.309617 3.5178-0.31002 3.3927-0.310091 3.3714-0.310163 3.3501-0.310236 3.32815-0.310904 3.12719-0.311482 2.92624-0.311848 2.72528-0.312323 2.46846-0.313233 2.21167-0.314739 1.95485-0.315764 1.77415-0.316288 1.59346-0.316446 1.41276-0.316554 1.3049-0.316879 1.19705-0.317739 1.08919-0.318541 0.98764-0.318721 0.886106-0.318433 0.784554-0.318435 0.747398-0.318656 0.710244-0.319122 0.673092-0.321583 0.465359-0.316052 0.295291-0.173333 0.13-0.0443675 0-0.0443675 0 0 0Z" fill="#FCFCFC" transform="matrix(1 0 0 1.0039 156.677 4.82657)"/><path d="M0 0C0.000137538 0.0291798 0.000137538 0.0291798 0.000277856 0.0589489 0.00251821 0.532755 0.00487234 1.00656 0.00735234 1.48036 0.00854895 1.7095 0.00970736 1.93862 0.0107751 2.16775 0.0117062 2.36752 0.0127095 2.56728 0.013799 2.76703 0.0143731 2.87276 0.0149116 2.97849 0.0153633 3.08421 0.01579 3.18383 0.016314 3.28345 0.0169106 3.38308 0.0171122 3.41954 0.017279 3.45599 0.0174074 3.49245 0.017589 3.54248 0.0178737 3.59249 0.0182386 3.64251 0.0183391 3.65777 0.0184396 3.67302 0.0185432 3.68873 0.0197957 3.78967 0.0277084 3.88771 0.0445605 3.98723 0.0424134 4.06207-0.00441526 4.10557-0.054886 4.15686-0.0685018 4.16951-0.0821175 4.18216-0.0961458 4.19521-0.109678 4.20871-0.12321 4.22218-0.137152 4.23609-0.170356 4.26905-0.204277 4.30127-0.238333 4.33333-0.319462 4.25221-0.306156 4.1589-0.306523 4.04848-0.306601 4.03288-0.306681 4.01726-0.306763 4.00118-0.307002 3.94886-0.307086 3.89653-0.307168 3.84421-0.307305 3.80668-0.307448 3.76918-0.3076 3.73167-0.308055 3.60845-0.30828 3.48526-0.308497 3.36206-0.308583 3.31961-0.308672 3.27717-0.308763 3.23475-0.309177 3.03537-0.309485 2.83599-0.309664 2.63662-0.309877 2.40658-0.310447 2.17655-0.311322 1.9465-0.311976 1.76862-0.312297 1.59074-0.312368 1.41286-0.31242 1.30665-0.312613 1.20045-0.313159 1.09424-0.313664 0.99429-0.313755 0.89435-0.313532 0.794402-0.313521 0.757789-0.313657 0.721175-0.313956 0.684565-0.31562 0.467565-0.313092 0.309088-0.166309 0.135417-0.149411 0.119329-0.132514 0.103242-0.115104 0.0866667-0.0895065 0.0618651-0.0895065 0.0618651-0.0633919 0.0365625-0.0216667 0-0.0216667 0 0 0Z" fill="#F8F8F8" transform="matrix(1 0 0 1.0039 148.617 4.82657)"/><path d="M0 0C0.0323007 0.000586523 0.0323007 0.000586523 0.0652539 0.0011849 0.0817046 0.00168763 0.098155 0.00219037 0.115104 0.00270833 0.179166 0.144179 0.187767 0.259978 0.180104 0.414375 0.10924 0.422262 0.0802549 0.42073 0.0221745 0.377221 0.00547252 0.361329-0.0112294 0.345436-0.0284375 0.329062-0.142677 0.23151-0.235582 0.214884-0.383229 0.219375-0.444942 0.382105-0.47226 0.543846-0.448229 0.717708-0.423003 0.769279-0.423003 0.769279-0.383229 0.804375-0.292838 0.819695-0.241986 0.823931-0.163092 0.775853-0.133683 0.75304-0.104874 0.729421-0.0768491 0.704929-0.0326371 0.671398-0.00540401 0.656149 0.0501042 0.652708 0.0875977 0.672429 0.0875977 0.672429 0.115104 0.717708 0.120997 0.780507 0.12319 0.837887 0.121875 0.900521 0.121945 0.91707 0.122015 0.933617 0.122087 0.950668 0.121281 1.03478 0.120118 1.10048 0.0717708 1.17271-0.0379234 1.16303-0.0869951 1.11343-0.166562 1.04271-0.226601 1.01269-0.273455 1.01697-0.339896 1.02104-0.361346 1.03534-0.382796 1.04964-0.404896 1.06438-0.415027 1.1256-0.415027 1.1256-0.413528 1.19751-0.413612 1.22425-0.413697 1.25099-0.413783 1.27855-0.413532 1.30663-0.413281 1.33471-0.413021 1.36365-0.413272 1.39148-0.413523 1.41931-0.413783 1.44799-0.413658 1.48822-0.413658 1.48822-0.413528 1.52928-0.413456 1.55385-0.413383 1.57842-0.413307 1.60374-0.403982 1.67837-0.384479 1.71937-0.339896 1.77937-0.270014 1.81431-0.199003 1.81113-0.123229 1.80104-0.0756136 1.78243-0.0325256 1.76061 0.0119336 1.73545 0.0501042 1.71438 0.0501042 1.71438 0.115104 1.69271 0.139483 1.653 0.139483 1.653 0.158438 1.60604 0.172882 1.57715 0.187326 1.54826 0.201771 1.51937 0.237521 1.51937 0.273271 1.51937 0.310104 1.51937 0.375949 1.64558 0.382776 1.74649 0.375104 1.88771 0.234479 1.90855 0.0969427 1.91318-0.0451107 1.91378-0.068276 1.9139-0.0914413 1.91402-0.115309 1.91415-0.163982 1.91435-0.212655 1.9145-0.261328 1.91458-0.335976 1.91479-0.410611 1.91547-0.485257 1.91615-0.532638 1.91629-0.580021 1.9164-0.627402 1.91648-0.649746 1.91675-0.672089 1.91702-0.69511 1.91729-0.715802 1.91723-0.736491 1.91716-0.757809 1.9171-0.776002 1.91718-0.794196 1.91726-0.81294 1.91734-0.870705 1.90754-0.890101 1.89078-0.924896 1.84438-0.927604 1.79562-0.927604 1.79562-0.903229 1.73604-0.878096 1.7148-0.852642 1.69393-0.826989 1.67332-0.737826 1.58559-0.733557 1.51163-0.732156 1.38995-0.732667 1.36521-0.733178 1.34047-0.733705 1.31498-0.733714 1.28916-0.733722 1.26333-0.733731 1.23672-0.733913 1.18225-0.734463 1.12778-0.73536 1.07332-0.736662 0.990238-0.736695 0.907229-0.736539 0.824137-0.736875 0.771084-0.73728 0.718031-0.737767 0.66498-0.737796 0.640285-0.737824 0.615589-0.737854 0.590144-0.740894 0.443148-0.758758 0.344272-0.838229 0.219375-0.852529 0.212225-0.866829 0.205075-0.881562 0.197708-0.881562 0.154808-0.881562 0.111908-0.881562 0.0677083-0.860899 0.0672789-0.840238 0.0668495-0.818948 0.066407-0.742263 0.0647584-0.665587 0.0628364-0.588909 0.0608318-0.555726 0.0600024-0.522542 0.0592473-0.489357 0.0585676-0.441645 0.0575779-0.393948 0.0563214-0.346244 0.055013-0.331413 0.0547627-0.316583 0.0545125-0.301303 0.0542546-0.18714 0.0507128-0.115664-0.00272151 0 0Z" fill="#262223" transform="matrix(1 0 0 1.0039 143.973 5.69389)"/><path d="M0 0C0.100574 0.172862 0.104948 0.303587 0.065 0.498333 0.0164193 0.505104 0.0164193 0.505104-0.0433333 0.498333-0.08819 0.450938-0.08819 0.450938-0.132708 0.39-0.203085 0.304885-0.203085 0.304885-0.303164 0.266517-0.408551 0.261055-0.408551 0.261055-0.498333 0.303333-0.511953 0.383667-0.515203 0.462494-0.479966 0.537351-0.399215 0.640822-0.287079 0.709501-0.180437 0.783634 0.0185106 0.923195 0.204034 1.08558 0.248575 1.33588 0.257599 1.49696 0.212156 1.63883 0.13 1.77667 0.0663732 1.84759-0.00116531 1.90725-0.0866667 1.95-0.132281 1.95185-0.177955 1.95232-0.223606 1.95212-0.250837 1.95205-0.27807 1.95198-0.306126 1.9519-0.334698 1.95172-0.36327 1.95154-0.392708 1.95135-0.421737 1.95125-0.450769 1.95115-0.479798 1.95106-0.550977 1.9508-0.622154 1.95044-0.693333 1.95-0.694599 1.85927-0.695364 1.76855-0.696042 1.67781-0.696406 1.65222-0.696768 1.62662-0.697142 1.60024-0.697872 1.47-0.695725 1.35759-0.65 1.235-0.585 1.25667-0.585 1.25667-0.563429 1.29554-0.557197 1.31212-0.550964 1.3287-0.544544 1.34579-0.537422 1.3639-0.5303 1.38201-0.522962 1.40067-0.508454 1.43891-0.494009 1.47716-0.479629 1.51544-0.43001 1.64123-0.384798 1.71427-0.26 1.77667-0.175937 1.78215-0.113238 1.78326-0.0433333 1.73333 0.00674473 1.66823 0.00928828 1.59767 0.00660157 1.51692-0.0151591 1.37324-0.151687 1.27538-0.26 1.19167-0.294944 1.16777-0.329901 1.14388-0.36509 1.12034-0.526372 1.01244-0.688237 0.896905-0.748685 0.703319-0.778787 0.536965-0.794705 0.36101-0.702812 0.212604-0.617082 0.107227-0.540616 0.0515183-0.405912 0.0342773-0.355838 0.0304722-0.305693 0.0274963-0.255515 0.0254752-0.16685 0.019895-0.0932824-0.00172745 0 0Z" fill="#262324" transform="matrix(1 0 0 1.0039 160.577 5.71836)"/><path d="M0 0C0.26455 0 0.5291 0 0.801667 0 0.801667 0.0429 0.801667 0.0858 0.801667 0.13 0.764285 0.150454 0.726906 0.170907 0.689524 0.191361 0.645909 0.219286 0.617132 0.240734 0.585 0.281667 0.57481 0.341657 0.57481 0.341657 0.575902 0.41064 0.575384 0.45045 0.575384 0.45045 0.574858 0.491064 0.57483 0.520063 0.574825 0.549061 0.574843 0.57806 0.574689 0.607826 0.574522 0.637591 0.574344 0.667357 0.574052 0.729757 0.574019 0.792153 0.574145 0.854553 0.574273 0.934388 0.573612 1.01419 0.572735 1.09402 0.572173 1.15551 0.572113 1.217 0.572191 1.27849 0.572154 1.30791 0.571946 1.33733 0.57156 1.36675 0.560887 1.54466 0.560887 1.54466 0.636162 1.69627 0.69046 1.73147 0.739973 1.75728 0.801667 1.77667 0.801667 1.83387 0.801667 1.89107 0.801667 1.95 0.537117 1.95 0.272567 1.95 0 1.95 0 1.77667 0 1.77667 0.0371549 1.73833 0.0530469 1.73087 0.068939 1.72341 0.0853125 1.71573 0.132648 1.69344 0.132648 1.69344 0.173333 1.66833 0.196291 1.59946 0.1983 1.54908 0.199179 1.47669 0.199527 1.45066 0.199875 1.42462 0.200234 1.39779 0.201197 1.27883 0.202096 1.15986 0.202585 1.04089 0.202874 0.978116 0.203478 0.915354 0.204363 0.852581 0.205433 0.776642 0.205968 0.700717 0.206122 0.624771 0.206338 0.581923 0.207079 0.53908 0.207829 0.496236 0.211576 0.337502 0.211576 0.337502 0.143256 0.200147 0.0890773 0.152167 0.0890773 0.152167 0.0365625 0.116458 0.024497 0.106627 0.0124312 0.0967958 0 0.0866667 0 0.0580667 0 0.0294667 0 0Z" fill="#262223" transform="matrix(1 0 0 1.0039 151.347 5.74011)"/><path d="M0 0C0.1573 0 0.3146 0 0.476667 0 0.452818 0.0953903 0.431409 0.10706 0.357923 0.164806 0.30345 0.214762 0.276746 0.276926 0.249167 0.343958 0.24287 0.358798 0.236574 0.373637 0.230087 0.388925 0.153303 0.578803 0.108269 0.777948 0.0594247 0.976365 0.0153948 1.15049-0.0361023 1.32269-0.0866667 1.495-0.0910864 1.51017-0.0955065 1.52533-0.10006 1.54096-0.165652 1.76514-0.165652 1.76514-0.216667 1.84167-0.257836 1.83573-0.257836 1.83573-0.303333 1.82-0.330174 1.75929-0.350714 1.70306-0.369687 1.6399-0.374952 1.62357-0.380217 1.60725-0.385641 1.59043-0.415705 1.49529-0.441214 1.39956-0.464817 1.30262-0.537873 1.0056-0.639256 0.712513-0.761042 0.431979-0.76754 0.416669-0.77404 0.401362-0.780735 0.385589-0.824007 0.289727-0.876601 0.217707-0.949513 0.141812-0.975 0.108333-0.975 0.108333-0.975 0.0433333-0.7605 0.0433333-0.546 0.0433333-0.325 0.0433333-0.368333 0.195-0.368333 0.195-0.411667 0.26-0.426036 0.393709-0.387599 0.496669-0.339896 0.618854-0.329862 0.645645-0.329862 0.645645-0.319627 0.672977-0.283029 0.769362-0.243119 0.86198-0.195 0.953333-0.17355 0.953333-0.1521 0.953333-0.13 0.953333 0.0349316 0.619136 0.0349316 0.619136 0.0866667 0.26 0.0723667 0.23855 0.0580667 0.2171 0.0433333 0.195 0 0.13 0 0.13 0 0Z" fill="#262223" transform="matrix(1 0 0 1.0039 142.052 5.76186)"/><path d="M0 0C0.038878 0.02145 0.038878 0.02145 0.0785417 0.0433333 0.225526 0.10957 0.410326 0.116003 0.563333 0.065 0.799968 0.0634946 1.03767 0.0924688 1.27266 0.118123 1.30408 0.12149 1.33552 0.124688 1.36697 0.127706 1.57096 0.147563 1.73401 0.187902 1.90667 0.303333 1.89058 0.314953 1.87449 0.326571 1.85792 0.338542 1.7945 0.393306 1.7553 0.448896 1.71167 0.52 1.66063 0.500242 1.61029 0.480066 1.5611 0.456016 1.34441 0.351756 1.12719 0.34032 0.889321 0.339397 0.843869 0.339216 0.798427 0.338767 0.752979 0.338258 0.640397 0.337049 0.527811 0.336271 0.415222 0.335493 0.319432 0.334817 0.223645 0.33397 0.127857 0.332889 0.0830869 0.332453 0.0383205 0.332273-0.00645114 0.332102-0.0334408 0.33181-0.0604303 0.33152-0.0882377 0.331221-0.112057 0.331062-0.135876 0.330904-0.160416 0.330742-0.216667 0.325-0.216667 0.325-0.26 0.281667-0.1742 0.188717-0.0884 0.0957667 0 0Z" fill="#F8F8F8" transform="matrix(1 0 0 1.0039 156.807 9.02453)"/><path d="M0 0C0.0165344 0.00670312 0.0330688 0.0134062 0.0501042 0.0203125 0.147003 0.0586213 0.219368 0.0679272 0.323646 0.0677083 0.363486 0.0677922 0.363486 0.0677922 0.404133 0.0678776 0.472487 0.0677096 0.472487 0.0677096 0.520507 0.0537435 0.740736 0.000209695 1.02677 0.0726973 1.2507 0.097646 1.28235 0.101126 1.31402 0.104471 1.34571 0.107674 1.53595 0.127139 1.69873 0.157083 1.86333 0.26 1.82575 0.341781 1.77702 0.392912 1.71167 0.455 1.69737 0.4693 1.68307 0.4836 1.66833 0.498333 1.64971 0.485034 1.63109 0.471733 1.6119 0.458031 1.30687 0.256605 0.878137 0.315488 0.528847 0.320311 0.401689 0.321965 0.274523 0.322768 0.147361 0.32368 0.103202 0.324062 0.0590482 0.324629 0.0148915 0.325232-0.0117467 0.325513-0.0383851 0.325795-0.0658305 0.326083-0.100997 0.326549-0.100997 0.326549-0.136873 0.327021-0.195 0.325-0.195 0.325-0.26 0.303333-0.225621 0.218771-0.170441 0.16607-0.105625 0.102917-0.0859066 0.0835894-0.0661882 0.064262-0.0458724 0.0443491-0.0307346 0.0297139-0.0155966 0.0150787 0 0Z" fill="#F7F6F6" transform="matrix(1 0 0 1.0039 140.687 9.04628)"/><path d="M0 0C0.0259187 0.010725 0.0518375 0.02145 0.0785417 0.0325 0.228133 0.0829989 0.412709 0.0935415 0.563333 0.0433333 0.758461 0.030264 0.955285 0.0604892 1.14875 0.0824772 1.1899 0.0870645 1.23107 0.0914314 1.27227 0.0955745 1.7119 0.139834 1.7119 0.139834 1.90667 0.281667 1.83445 0.353888 1.76222 0.426112 1.69 0.498333 1.67737 0.491268 1.66475 0.4842 1.65175 0.47692 1.63398 0.467452 1.61622 0.457983 1.59792 0.448229 1.58082 0.438928 1.56373 0.429628 1.54612 0.420045 1.32789 0.329962 1.11516 0.315454 0.881393 0.315436 0.850293 0.315181 0.819193 0.31489 0.788095 0.31457 0.707116 0.313792 0.626139 0.31335 0.545157 0.313018 0.414815 0.312477 0.284479 0.311623 0.154144 0.310377 0.108749 0.310024 0.0633592 0.309942 0.0179632 0.309879-0.0093902 0.309658-0.0367436 0.309437-0.0649259 0.309209-0.101134 0.309071-0.101134 0.309071-0.138073 0.30893-0.195 0.303333-0.195 0.303333-0.238333 0.26-0.222943 0.244861-0.207555 0.229725-0.191699 0.214128-0.171785 0.194409-0.151871 0.174691-0.131354 0.154375-0.101567 0.124965-0.101567 0.124965-0.0711785 0.0949609-0.0214094 0.0481689-0.0214094 0.0481689 0 0Z" fill="#F8F8F8" transform="matrix(1 0 0 1.0039 148.725 9.04628)"/><path d="M0 0C0.245847-0.0262626 0.245847-0.0262626 0.327032 0.0332618 0.361088 0.0783536 0.386882 0.122598 0.411667 0.173333 0.425072 0.197465 0.438479 0.221596 0.452292 0.246458 0.492856 0.377162 0.502196 0.490605 0.440104 0.614792 0.42357 0.633559 0.407034 0.652329 0.39 0.671667 0.3757 0.688649 0.3614 0.705629 0.346667 0.723125 0.243269 0.779131 0.136814 0.764944 0.0216667 0.758333-0.032383 0.630961-0.0328387 0.503187-0.0379167 0.366979-0.0391176 0.343672-0.0403186 0.320366-0.041556 0.29635-0.0424777 0.273825-0.0433994 0.251301-0.0443491 0.228091-0.0452077 0.207702-0.0460666 0.187312-0.0469515 0.166303-0.0429973 0.10295-0.0265219 0.0573103 0 0Z" fill="#FBFAFA" transform="matrix(1 0 0 1.0039 149.873 5.89237)"/><path d="M0 0C0.00715 0 0.0143 0 0.0216667 0 0.0216667 0.86515 0.0216667 1.7303 0.0216667 2.62167-0.0216667 2.62167-0.0216667 2.62167-0.0522201 2.59213-0.0640343 2.57818-0.0758485 2.56425-0.0880208 2.54991-0.108004 2.52636-0.108004 2.52636-0.128392 2.50233-0.150638 2.47561-0.150638 2.47561-0.173333 2.44833-0.190175 2.42827-0.207017 2.40823-0.224369 2.38756-0.43394 2.13526-0.43394 2.13526-0.432317 2.04538-0.406345 1.97992-0.377195 1.95863-0.319583 1.91885-0.190577 1.82405-0.0834626 1.72115-0.0433333 1.56-0.0208565 1.35827-0.0176438 1.15493-0.0148112 0.952148-0.0143609 0.924684-0.0139107 0.897221-0.0134468 0.868924-0.0122831 0.797049-0.0111907 0.725173-0.0101351 0.653295-0.00903292 0.579494-0.00783391 0.505693-0.00664389 0.431895-0.00434161 0.28793-0.00213349 0.143966 0 0Z" fill="#FBFBFB" transform="matrix(1 0 0 1.0039 150.718 4.82657)"/><path d="M0 0C0.0618386 0.0491898 0.0981431 0.0827493 0.110957 0.162331 0.114876 0.314037 0.114876 0.314037 0.0501042 0.395417 0.0317822 0.40927 0.0134604 0.423122-0.00541667 0.437396-0.0125667 0.444546-0.0197167 0.451696-0.0270833 0.459062-0.131417 0.470849-0.216825 0.474769-0.30875 0.421146-0.386007 0.334232-0.405615 0.274634-0.402272 0.154967-0.391079 0.0854577-0.359652 0.0508369-0.30875 0.0040625-0.199844-0.0561227-0.10902-0.0607995 0 0Z" fill="#F7F7F7" transform="matrix(1 0 0 1.0039 151.027 9.54246)"/><path d="M0 0C0.0627649 0.0477013 0.095181 0.0820287 0.13 0.151667 0.144761 0.299277 0.144761 0.299277 0.107318 0.364524 0.054356 0.428857 0.0143788 0.472201-0.0694856 0.48259-0.222584 0.48856-0.222584 0.48856-0.304688 0.426562-0.371081 0.334468-0.376038 0.263382-0.368333 0.151667-0.290949-0.0141587-0.168138-0.0248274 0 0Z" fill="#FAFAFA" transform="matrix(1 0 0 1.0039 159.06 9.5248)"/><path d="M0 0C0.0797907 0.0178527 0.116473 0.0559052 0.163939 0.120775 0.171089 0.127925 0.178239 0.135075 0.185606 0.142441 0.195558 0.235077 0.195205 0.314882 0.158522 0.401087 0.108393 0.460167 0.0633832 0.484577-0.0133724 0.496388-0.100024 0.497889-0.148655 0.496498-0.224707 0.451191-0.29003 0.379931-0.309049 0.340154-0.323561 0.244003-0.311116 0.152227-0.290134 0.107813-0.227077 0.0413021-0.153496-0.00658181-0.0858078-0.00525354 0 0Z" fill="#FAFAFA" transform="matrix(1 0 0 1.0039 142.863 9.51232)"/><path d="M0 0C0 0.6721 0 1.3442 0 2.03667-0.00715 2.03667-0.0143 2.03667-0.0216667 2.03667-0.0215686 2.00752-0.0215686 2.00752-0.0214686 1.97779-0.0209856 1.79418-0.021231 1.61059-0.0222835 1.42698-0.022799 1.33259-0.0230384 1.23822-0.0226347 1.14384-0.0222549 1.05265-0.0226163 0.961495-0.0234797 0.870313-0.0236801 0.835625-0.023619 0.800932-0.0232849 0.766244-0.0162967 0.541606-0.0162967 0.541606-0.12005 0.349798-0.133887 0.337755-0.147725 0.325713-0.161981 0.313304-0.195 0.281667-0.195 0.281667-0.200417 0.215312-0.108794 0-0.108794 0 0 0Z" fill="#D5D4D4" transform="matrix(1 0 0 1.0039 158.8 7.11043)"/><path d="M0 0C0.02145 0 0.0429 0 0.065 0 0.15514 0.166437 0.185629 0.287319 0.173333 0.476667 0.0946833 0.476667 0.0160333 0.476667-0.065 0.476667-0.100409 0.299622-0.068866 0.16468 0 0Z" fill="#F0EFEF" transform="matrix(1 0 0 1.0039 158.8 6.43615)"/><path d="M0 0C0.00715 0 0.0143 0 0.0216667 0 0.0216667 0.86515 0.0216667 1.7303 0.0216667 2.62167 0.00736667 2.61452-0.00693333 2.60737-0.0216667 2.6-0.0216185 2.58793-0.0215704 2.57586-0.0215209 2.56343-0.021042 2.43796-0.0207149 2.31248-0.0204765 2.18701-0.0203674 2.14016-0.0202195 2.09331-0.0200322 2.04647-0.0197698 1.97919-0.0196465 1.91191-0.0195508 1.84463-0.0194389 1.82364-0.0193271 1.80264-0.0192119 1.78102-0.0192103 1.7615-0.0192086 1.74199-0.019207 1.72188-0.0191588 1.70471-0.0191107 1.68753-0.0190611 1.66983-0.0199624 1.6207-0.0199624 1.6207-0.0433333 1.56-0.0415796 1.51437-0.0383426 1.46879-0.0342827 1.4233-0.0217158 1.26611-0.0170131 1.10978-0.0148112 0.952148-0.0143609 0.924684-0.0139107 0.897221-0.0134468 0.868924-0.0122831 0.797049-0.0111907 0.725173-0.0101351 0.653295-0.00903292 0.579494-0.00783391 0.505693-0.00664389 0.431895-0.00434161 0.28793-0.00213349 0.143966 0 0Z" fill="#E4E4E4" transform="matrix(1 0 0 1.0039 150.718 4.82657)"/></g></g></g></g></svg>