<svg width="960" height="540" xmlns="http://www.w3.org/2000/svg" xmlns:xlink="http://www.w3.org/1999/xlink" overflow="hidden"><defs><clipPath id="clip0"><rect x="0" y="0" width="960" height="540"/></clipPath><clipPath id="clip1"><rect x="138" y="2" width="27" height="31"/></clipPath><clipPath id="clip2"><rect x="138" y="2" width="27" height="31"/></clipPath><clipPath id="clip3"><rect x="138" y="2" width="27" height="31"/></clipPath></defs><g clip-path="url(#clip0)"><rect x="0" y="0" width="960" height="539.906" fill="#F6F4F2"/><rect x="0" y="0" width="960" height="110.981" fill="#002147"/><rect x="0" y="0" width="960" height="34.9939" fill="#A41034"/><rect x="0" y="509.911" width="960" height="29.9948" fill="#002147"/><text fill="#FFFFFF" font-family="Aptos,Aptos_MSFontService,sans-serif" font-weight="700" font-size="9" transform="matrix(1 0 0 0.999826 170.155 12)">HARVARD KENNEDY SCHOOL</text><text fill="#FFFFFF" font-family="Arial,Arial_MSFontService,sans-serif" font-weight="400" font-size="7" transform="matrix(1 0 0 0.999826 170.538 20)">DPI</text><text fill="#FFFFFF" font-family="Arial,Arial_MSFontService,sans-serif" font-weight="400" font-size="7" transform="matrix(1 0 0 0.999826 181.707 20)">-</text><text fill="#FFFFFF" font-family="Arial,Arial_MSFontService,sans-serif" font-weight="400" font-size="7" transform="matrix(1 0 0 0.999826 183.874 20)">6191M PROGRAMMING AND DATA</text><text fill="#FFFFFF" font-family="Arial,Arial_MSFontService,sans-serif" font-weight="400" font-size="7" transform="matrix(1 0 0 0.999826 170.538 28)">FOR POLICYMAKERS</text><rect x="0" y="530.908" width="960" height="34.9939" fill="#A41034"/><g clip-path="url(#clip1)"><g clip-path="url(#clip2)"><g clip-path="url(#clip3)"><path d="M0 0C8.55855 0 17.1171 0 25.935 0 25.9483 0.173006 25.9599 0.34061 25.9597 0.51324 25.9598 0.545545 25.9598 0.545545 25.9599 0.578502 25.9601 0.649787 25.9601 0.721072 25.9602 0.792357 25.9603 0.843911 25.9604 0.895465 25.9605 0.947019 25.9608 1.08687 25.9609 1.22672 25.961 1.36657 25.9611 1.4548 25.9612 1.54304 25.9613 1.63127 25.9615 1.87785 25.9617 2.12442 25.9618 2.371 25.9618 2.38676 25.9618 2.40252 25.9618 2.41876 25.9618 2.43455 25.9618 2.45034 25.9618 2.46661 25.9619 2.49859 25.9619 2.53057 25.9619 2.56255 25.9619 2.57841 25.9619 2.59427 25.9619 2.61061 25.962 2.84819 25.9623 3.08576 25.9628 3.32334 25.9654 4.68607 25.9681 6.04755 25.8941 7.40876 25.8906 7.47261 25.8873 7.53646 25.8839 7.60031 25.7684 9.78562 25.5738 11.974 23.6817 18.2 23.6712 18.2232 23.6607 18.2463 23.6498 18.2702 23.3911 18.84 23.1168 19.4008 22.8034 19.9427 22.7632 20.0132 22.7246 20.0846 22.6861 20.156 22.2601 20.945 21.7548 21.6973 21.2254 22.42 21.1888 22.47 21.1522 22.5202 21.1157 22.5703 20.8644 22.9143 20.6026 23.2494 20.3326 23.5789 20.3047 23.613 20.2769 23.6471 20.2491 23.6813 20.1242 23.8348 19.9969 23.9862 19.8683 24.1367 19.8572 24.1497 19.846 24.1628 19.8344 24.1763 19.6883 24.347 19.5394 24.5146 19.3862 24.6791 19.335 24.7342 19.2846 24.79 19.2346 24.8463 18.9682 25.1428 18.6895 25.4273 18.4073 25.7088 18.351 25.765 18.2949 25.8213 18.2387 25.8776 18.2023 25.914 18.166 25.9503 18.1296 25.9866 18.1131 26.0032 18.0966 26.0197 18.0796 26.0368 17.9909 26.125 17.9005 26.2098 17.8053 26.291 17.7654 26.3261 17.728 26.3629 17.6908 26.4008 17.627 26.4657 17.5602 26.5255 17.4913 26.5848 17.4431 26.6271 17.3959 26.6704 17.3489 26.714 17.2366 26.8182 17.1216 26.9169 17.0022 27.013 16.941 27.0636 16.8825 27.1163 16.8242 27.17 16.7087 27.276 16.5887 27.375 16.4667 27.4733 16.4395 27.4955 16.4124 27.5176 16.3852 27.5398 15.4861 28.2739 14.5455 28.9643 13.5522 29.5664 13.4731 29.6144 13.3971 29.6651 13.3219 29.719 13.0806 29.8868 13.0806 29.8868 12.939 29.8665 12.8609 29.8348 12.7938 29.7884 12.7254 29.7398 12.6709 29.7022 12.615 29.6686 12.5579 29.6352 12.2574 29.458 11.9672 29.2646 11.677 29.0712 11.6593 29.0595 11.6416 29.0477 11.6234 29.0356 11.3088 28.8258 10.9979 28.6108 10.6939 28.386 10.677 28.3736 10.6601 28.3611 10.6427 28.3483 10.4733 28.2227 10.3069 28.0935 10.1412 27.9633 10.0998 27.9308 10.0585 27.8985 10.017 27.8662 9.76203 27.6672 9.5104 27.464 9.26427 27.2541 9.19237 27.1928 9.11946 27.133 9.04583 27.0739 8.9293 26.9791 8.81975 26.8778 8.71 26.7753 8.64569 26.7154 8.5799 26.6573 8.51348 26.5997 8.2534 26.3733 8.00045 26.1382 7.75821 25.8928 7.68814 25.8221 7.61551 25.7563 7.53992 25.6917 7.42169 25.5869 7.31141 25.4736 7.20831 25.354 7.12806 25.2616 7.04235 25.1757 6.955 25.09 6.8548 24.9917 6.75856 24.8921 6.66696 24.7857 6.60696 24.7169 6.54383 24.6511 6.48104 24.5849 6.37509 24.4723 6.27457 24.3574 6.17805 24.2365 6.12839 24.176 6.07637 24.1184 6.02333 24.0608 5.9354 23.9652 5.85236 23.8667 5.77078 23.7656 5.72541 23.71 5.67923 23.6552 5.63254 23.6007 5.52564 23.4757 5.4233 23.3481 5.32382 23.2171 5.26899 23.1449 5.21313 23.0736 5.1572 23.0022 4.30555 21.9144 3.5488 20.743 2.90333 19.5217 2.88715 19.4911 2.88715 19.4911 2.87063 19.46 2.79389 19.3149 2.71827 19.1693 2.64333 19.0233 2.63205 19.0014 2.62077 18.9795 2.60915 18.9569 1.68344 17.1499 1.03198 15.1973 0.108333 8.62333 0.106653 8.59861 0.104972 8.57389 0.103241 8.54842 0.0602276 7.91103 0.033841 7.273 0.010253 6.63464 0.0081927 6.57902 0.00610491 6.52339 0.00401357 6.46776-0.0358701 5.39932-0.047066 4.33089-0.046119 3.26178-0.0460372 3.15885-0.0460669 3.05593-0.046158 2.953-0.0466801 2.34621-0.045192 1.73954-0.0336849 1.13285-0.0332642 1.11028-0.0328436 1.08772-0.0324102 1.06447-0.0255985 0.709441-0.0126759 0.354925 0 0Z" fill="#251F21" transform="matrix(1 0 0 1.0039 138.043 2.99948)"/><path d="M0 0C8.1939 0 16.3878 0 24.83 0 24.855 0.524921 24.855 0.524921 24.8583 0.700189 24.8587 0.720981 24.8591 0.741774 24.8596 0.763197 24.861 0.830637 24.8622 0.898078 24.8634 0.965521 24.8641 1.00143 24.8641 1.00143 24.8648 1.03807 24.8758 1.63794 24.8795 2.23782 24.8801 2.83778 24.8801 2.88208 24.8802 2.92638 24.8802 2.97067 24.8815 3.94013 24.8643 4.9082 24.8314 5.87708 24.8309 5.89172 24.8304 5.90636 24.8299 5.92144 24.8228 6.12977 24.8154 6.33808 24.8077 6.54638 24.8068 6.57103 24.8059 6.59567 24.805 6.62107 24.8024 6.69041 24.7998 6.75975 24.7971 6.82908 24.7963 6.84881 24.7956 6.86853 24.7949 6.88886 24.7887 7.04152 24.7767 7.19234 24.765 7.345 16.6068 7.345 8.4487 7.345 0.0433333 7.345-0.0115672 6.19209-0.0115672 6.19209-0.0241211 5.78771-0.0245715 5.77328-0.0250219 5.75886-0.0254859 5.74399-0.0534401 4.83963-0.0491245 3.93481-0.0476796 3.03011-0.0473883 2.83864-0.0473395 2.64718-0.0473535 2.45571-0.0473682 2.22224-0.0472178 1.98877-0.0470188 1.75529-0.0469733 1.68962-0.0469574 1.62394-0.0469486 1.55827-0.0466413 0.373131-0.0466413 0.373131 0 0Z" fill="#B7073D" transform="matrix(1 0 0 1.0039 138.563 3.41275)"/><path d="M0 0C0.023103-0.000186671 0.046206-0.000373341 0.070009-0.000565669 0.145888-0.00105495 0.22175-0.000910912 0.297631-0.000714111 0.350702-0.000827632 0.403773-0.000963647 0.456844-0.00112109 0.567904-0.00134621 0.678959-0.00124811 0.790019-0.00093099 0.931914-0.000558862 1.07379-0.0010675 1.21568-0.00182993 1.32524-0.00230716 1.4348-0.00227452 1.54436-0.00209502 1.59665-0.00207732 1.64894-0.00222491 1.70124-0.00254506 1.77455-0.00292507 1.84783-0.00260622 1.92114-0.00211589 1.94246-0.00236922 1.96379-0.00262255 1.98576-0.00288356 2.12577-0.000990879 2.22464 0.0301168 2.34798 0.0966742 2.41579 0.124675 2.46136 0.127373 2.53421 0.119891 2.59025 0.0974162 2.59025 0.0974162 2.64432 0.0665793 2.78063 0.00147411 2.89816-0.00366604 3.04745-0.00211589 3.07384-0.00227092 3.10022-0.00242595 3.1274-0.00258568 3.19903-0.00288705 3.27063-0.00270894 3.34226-0.00228039 3.4176-0.00192247 3.49293-0.00211668 3.56826-0.00222664 3.69464-0.00232424 3.82101-0.00198288 3.94738-0.00137533 4.09312-0.000680043 4.23884-0.000681699 4.38458-0.00105498 4.52536-0.00139955 4.66614-0.00125237 4.80692-0.00088301 4.86658-0.000734796 4.92625-0.000755844 4.98591-0.000916484 5.06929-0.00111441 5.15266-0.00059248 5.23604 0 5.27283-0.000212091 5.27283-0.000212091 5.31037-0.000428467 5.48668 0.00169739 5.60656 0.0320592 5.73546 0.1551 5.86883 0.336031 5.88262 0.5216 5.87629 0.7401 5.8759 0.76599 5.87551 0.791881 5.8751 0.818557 5.87409 0.881798 5.87267 0.945002 5.87087 1.00822 5.88537 1.00804 5.89986 1.00785 5.91479 1.00765 5.94362 1.00743 5.94362 1.00743 5.97303 1.00721 5.99199 1.00702 6.01095 1.00683 6.03049 1.00664 6.21445 1.01175 6.40202 1.07235 6.54119 1.19375 6.62913 1.29768 6.63896 1.35819 6.63581 1.4909 6.62627 1.57617 6.60159 1.61789 6.54254 1.67989 6.42317 1.77034 6.30239 1.81458 6.15796 1.84916 6.13983 1.85384 6.1217 1.85852 6.10303 1.86334 6.0215 1.88382 5.95586 1.89656 5.87087 1.89656 5.87087 2.44711 5.87087 2.99766 5.87087 3.56489 5.95667 3.56489 6.04247 3.56489 6.13087 3.56489 6.29446 3.5969 6.42519 3.63736 6.54254 3.75989 6.60568 3.86644 6.62525 3.96353 6.60754 4.08489 6.56117 4.22169 6.50382 4.32352 6.37462 4.39229 6.20577 4.46909 6.05559 4.481 5.87087 4.47489 5.87213 4.50215 5.87339 4.52941 5.87468 4.5575 5.88289 4.8132 5.88314 5.0841 5.72919 5.30212 5.5899 5.43481 5.37172 5.49605 5.18319 5.49583 5.16317 5.49586 5.14315 5.49589 5.12252 5.49592 5.08998 5.4958 5.08998 5.4958 5.05678 5.49568 5.03373 5.49569 5.01068 5.49569 4.98693 5.49569 4.91085 5.49568 4.83476 5.49551 4.75868 5.49534 4.70588 5.4953 4.65309 5.49527 4.6003 5.49525 4.46142 5.49516 4.32254 5.49495 4.18366 5.49471 4.04191 5.49449 3.90016 5.49439 3.75842 5.49428 3.48035 5.49405 3.20228 5.49368 2.92421 5.49322 2.91803 5.51015 2.91186 5.52708 2.9055 5.54451 2.86449 5.63951 2.79377 5.67609 2.70619 5.72614 2.5824 5.77479 2.43388 5.78132 2.30941 5.73342 2.23454 5.68946 2.19262 5.65278 2.14479 5.57858 2.10851 5.53514 2.08815 5.5172 2.03289 5.50294 1.97397 5.49861 1.91626 5.49839 1.85719 5.49952 1.83487 5.49943 1.81256 5.49934 1.78957 5.49924 1.71581 5.49908 1.6421 5.4998 1.56835 5.5005 1.51699 5.50048 1.46564 5.50039 1.41428 5.50023 1.279 5.49994 1.14373 5.50034 1.00844 5.50097 0.792226 5.50195 0.576016 5.50229 0.359798 5.50185 0.28441 5.50186 0.209039 5.50241 0.133654 5.50301 0.0871383 5.50303 0.0406228 5.50302-0.00589274 5.50299-0.0266996 5.5033-0.0475064 5.50362-0.0689438 5.50394-0.236093 5.50297-0.368697 5.46472-0.495064 5.35239-0.662203 5.11619-0.639174 4.83656-0.629127 4.56156-0.650074 4.56256-0.671021 4.56357-0.692603 4.5646-0.918636 4.57087-1.08552 4.5481-1.26694 4.40447-1.36997 4.30686-1.40954 4.20356-1.41861 4.06322-1.41279 3.94458-1.36885 3.84962-1.28497 3.76573-1.18338 3.68361-1.07904 3.64247-0.954127 3.60822-0.932677 3.60107-0.911227 3.59392-0.889127 3.58656-0.803327 3.58656-0.717527 3.58656-0.629127 3.58656-0.629127 3.05031-0.629127 2.51406-0.629127 1.96156-0.729227 1.96156-0.829327 1.96156-0.93246 1.96156-1.11801 1.91939-1.25346 1.86204-1.36579 1.70156-1.41981 1.60752-1.42313 1.52629-1.40913 1.41989-1.37057 1.29721-1.30278 1.20611-1.19246 1.13822-1.04641 1.06304-0.929604 1.02689-0.764543 1.02854-0.726503 1.02883-0.726503 1.02883-0.687694 1.02913-0.668367 1.02938-0.64904 1.02963-0.629127 1.02989-0.629581 1.01496-0.630035 1.00002-0.630502 0.984638-0.647169 0.35315-0.647169 0.35315-0.495064 0.140204-0.334238 0.0294122-0.193459-0.00127745 0 0Z" fill="#262122" transform="matrix(1 0 0 1.0039 140.297 4.46695)"/><path d="M0 0C0.023103-0.000186671 0.046206-0.000373341 0.070009-0.000565669 0.145888-0.00105495 0.22175-0.000910912 0.297631-0.000714111 0.350702-0.000827632 0.403773-0.000963647 0.456844-0.00112109 0.567904-0.00134621 0.678959-0.00124811 0.790019-0.00093099 0.931914-0.000558862 1.07379-0.0010675 1.21568-0.00182993 1.32524-0.00230716 1.4348-0.00227452 1.54436-0.00209502 1.59665-0.00207732 1.64894-0.00222491 1.70124-0.00254506 1.77455-0.00292507 1.84783-0.00260622 1.92114-0.00211589 1.94246-0.00236922 1.96379-0.00262255 1.98576-0.00288356 2.12577-0.000990879 2.22464 0.0301168 2.34798 0.0966742 2.41579 0.124675 2.46136 0.127373 2.53421 0.119891 2.59025 0.0974162 2.59025 0.0974162 2.64432 0.0665793 2.78063 0.00147411 2.89816-0.00366604 3.04745-0.00211589 3.07384-0.00227092 3.10022-0.00242595 3.1274-0.00258568 3.19903-0.00288705 3.27063-0.00270894 3.34226-0.00228039 3.4176-0.00192247 3.49293-0.00211668 3.56826-0.00222664 3.69464-0.00232424 3.82101-0.00198288 3.94738-0.00137533 4.09312-0.000680043 4.23884-0.000681699 4.38458-0.00105498 4.52536-0.00139955 4.66614-0.00125237 4.80692-0.00088301 4.86658-0.000734796 4.92625-0.000755844 4.98591-0.000916484 5.06929-0.00111441 5.15266-0.00059248 5.23604 0 5.27283-0.000212091 5.27283-0.000212091 5.31037-0.000428467 5.48848 0.00171907 5.60925 0.0316046 5.73681 0.159162 5.83596 0.303638 5.87391 0.439521 5.87299 0.612554 5.87292 0.635666 5.87285 0.658778 5.87278 0.68259 5.8726 0.706484 5.87241 0.730378 5.87223 0.754996 5.87213 0.779308 5.87203 0.803621 5.87193 0.828671 5.87168 0.888523 5.87132 0.948373 5.87087 1.00822 5.89515 1.00797 5.89515 1.00797 5.91991 1.0077 5.94124 1.00757 5.96257 1.00743 5.98454 1.00729 6.00564 1.00712 6.02674 1.00695 6.04848 1.00677 6.23208 1.01117 6.42592 1.08481 6.55473 1.21677 6.60989 1.3079 6.61616 1.37968 6.60754 1.48489 6.57025 1.61541 6.49902 1.69031 6.38427 1.75962 6.21155 1.84423 6.06364 1.87489 5.87087 1.87489 5.87087 2.43259 5.87087 2.99029 5.87087 3.56489 5.95667 3.56489 6.04247 3.56489 6.13087 3.56489 6.33105 3.61144 6.46243 3.68079 6.58587 3.84656 6.62203 3.95503 6.63129 4.07037 6.58714 4.17791 6.48645 4.34615 6.3582 4.4094 6.17734 4.46575 6.11609 4.4778 6.05782 4.47692 5.99546 4.47625 5.97211 4.47605 5.94876 4.47585 5.9247 4.47565 5.89806 4.47528 5.89806 4.47528 5.87087 4.47489 5.87138 4.50028 5.87188 4.52567 5.8724 4.55183 5.88053 5.13025 5.88053 5.13025 5.684 5.33614 5.5421 5.44301 5.35918 5.49603 5.18319 5.49583 5.16317 5.49586 5.14315 5.49589 5.12252 5.49592 5.08998 5.4958 5.08998 5.4958 5.05678 5.49568 5.03373 5.49569 5.01068 5.49569 4.98693 5.49569 4.91085 5.49568 4.83476 5.49551 4.75868 5.49534 4.70588 5.4953 4.65309 5.49527 4.6003 5.49525 4.46142 5.49516 4.32254 5.49495 4.18366 5.49471 4.04191 5.49449 3.90016 5.49439 3.75842 5.49428 3.48035 5.49405 3.20228 5.49368 2.92421 5.49322 2.91799 5.51031 2.91178 5.5274 2.90538 5.545 2.87565 5.61361 2.84634 5.63313 2.78337 5.67197 2.76617 5.68281 2.74896 5.69365 2.73124 5.70481 2.61363 5.77415 2.49499 5.76691 2.36087 5.75322 2.24047 5.71153 2.14724 5.646 2.07921 5.53656 2.07921 5.52226 2.07921 5.50796 2.07921 5.49322 2.06744 5.4933 2.05567 5.49338 2.04355 5.49347 1.75653 5.49538 1.46951 5.49681 1.18249 5.49771 1.04369 5.49817 0.904885 5.49878 0.766083 5.49976 0.63206 5.50071 0.498042 5.50122 0.364016 5.50145 0.312956 5.50161 0.261895 5.50192 0.210836 5.50239 0.139161 5.50302 0.0675041 5.5031-0.00417358 5.50306-0.0251506 5.50338-0.0461277 5.50369-0.0677404 5.50401-0.235658 5.503-0.369318 5.46561-0.495064 5.35104-0.663943 5.11121-0.638763 4.84162-0.629127 4.56156-0.650325 4.56231-0.671524 4.56307-0.693365 4.56384-0.907354 4.56826-1.092 4.55857-1.26669 4.42216-1.36256 4.32677-1.41507 4.21887-1.42131 4.08354-1.41355 3.95508-1.3768 3.85732-1.28497 3.7659-1.18355 3.68351-1.07905 3.64247-0.954127 3.60822-0.932677 3.60107-0.911227 3.59392-0.889127 3.58656-0.803327 3.58656-0.717527 3.58656-0.629127 3.58656-0.629127 3.05031-0.629127 2.51406-0.629127 1.96156-0.729227 1.96156-0.829327 1.96156-0.93246 1.96156-1.11801 1.91939-1.25346 1.86204-1.36579 1.70156-1.42333 1.60269-1.42544 1.51008-1.40913 1.39822-1.3522 1.25724-1.25184 1.15379-1.1146 1.09074-0.949838 1.02853-0.803842 1.02593-0.629127 1.02989-0.629581 1.01342-0.630035 0.996945-0.630502 0.979972-0.632323 0.90408-0.633437 0.828193-0.634543 0.752287-0.63527 0.726382-0.635996 0.700478-0.636744 0.673788-0.638891 0.476844-0.61513 0.304143-0.495064 0.142912-0.337172 0.0271248-0.193046-0.00127472 0 0Z" fill="#272223" transform="matrix(1 0 0 1.0039 156.439 4.46695)"/><path d="M0 0C8.12955 0 16.2591 0 24.635 0 24.635 0.366034 24.635 0.366034 24.6263 0.503835 24.6254 0.518456 24.6245 0.533077 24.6235 0.548141 24.6216 0.578297 24.6197 0.608451 24.6177 0.638601 24.6146 0.684499 24.6118 0.730407 24.609 0.776318 24.601 0.901937 24.5907 1.02388 24.57 1.14833 24.5629 1.27703 24.5557 1.40573 24.5483 1.53833 16.476 1.53833 8.40363 1.53833 0.0866667 1.53833 0 0.469444 0 0.469444 0 0Z" fill="#FDFDFD" transform="matrix(1 0 0 1.0039 138.672 10.9604)"/><path d="M0 0C0.0200123-0.000186343 0.0400245-0.000372687 0.0606433-0.000564677 0.0935149-0.000703125 0.0935149-0.000703125 0.127051-0.000844371 0.150169-0.00102155 0.173288-0.00119873 0.197108-0.00138128 0.273792-0.00191985 0.350476-0.0022777 0.427163-0.00258998 0.466467-0.002763 0.466467-0.002763 0.506566-0.00293951 0.645333-0.0035188 0.784099-0.0039385 0.922867-0.00425095 1.06598-0.00461113 1.20908-0.0055809 1.35219-0.00668566 1.4624-0.00741615 1.5726-0.00766523 1.68281-0.00778753 1.73555-0.00793278 1.78829-0.00826208 1.84102-0.00878183 1.91502-0.00946944 1.989-0.00946812 2.063-0.00930791 2.08461-0.00966336 2.10622-0.0100188 2.12848-0.010385 2.26578-0.0091743 2.35882 0.0189402 2.47766 0.0882821 2.55133 0.125455 2.59839 0.113888 2.67567 0.0900012 2.70422 0.0753567 2.73273 0.0606539 2.76122 0.0459084 2.88564-0.00965766 3.00183-0.00870429 3.13634-0.00753586 3.16226-0.00765292 3.18818-0.00776999 3.21489-0.0078906 3.28544-0.00811396 3.35598-0.00795234 3.42654-0.00759352 3.5007-0.00729145 3.57487-0.00743362 3.64904-0.00750974 3.77354-0.00756813 3.89804-0.00727766 4.02254-0.00677414 4.16606-0.00619769 4.30957-0.0061598 4.45309-0.00641422 4.5917-0.00664855 4.7303-0.00651306 4.8689-0.00620719 4.92764-0.00608309 4.98638-0.00608363 5.04512-0.00618694 5.12731-0.00625022 5.20948-0.00589147 5.29167-0.00541997 5.31578-0.00551751 5.3399-0.00561504 5.36474-0.00571554 5.53092-0.00413704 5.67903 0.0113156 5.81328 0.11573 5.917 0.249086 5.97192 0.379858 5.97112 0.549318 5.97105 0.575502 5.97098 0.601686 5.97091 0.628663 5.97073 0.65602 5.97055 0.683378 5.97036 0.711564 5.97026 0.739172 5.97016 0.766781 5.97006 0.795226 5.96981 0.863485 5.96945 0.931743 5.969 1 5.98608 0.999593 6.00315 0.999184 6.02074 0.998763 6.25323 0.995525 6.46754 1.0283 6.651 1.18273 6.72176 1.25549 6.74517 1.32079 6.75984 1.41979 6.74333 1.53951 6.6948 1.627 6.60098 1.70442 6.40618 1.83236 6.22624 1.85468 5.99067 1.88833 5.98352 2.43888 5.97637 2.98943 5.969 3.55667 6.07625 3.55667 6.18351 3.55667 6.294 3.55667 6.4666 3.61091 6.58562 3.66229 6.684 3.81667 6.73236 3.91339 6.7207 4.04715 6.69086 4.14878 6.62382 4.29453 6.52442 4.36958 6.37932 4.43011 6.24283 4.47692 6.11173 4.47484 5.969 4.46667 5.96923 4.47954 5.96946 4.49242 5.96969 4.50568 5.9706 4.5649 5.97116 4.62411 5.97171 4.68333 5.97208 4.70358 5.97244 4.72383 5.97281 4.7447 5.9742 4.94227 5.94592 5.16895 5.80955 5.32335 5.56866 5.51773 5.24463 5.49631 4.95453 5.49354 4.87902 5.49286 4.80352 5.49278 4.72801 5.49287 4.51353 5.49301 4.29906 5.49213 4.08458 5.49073 3.9529 5.48991 3.82123 5.48983 3.68955 5.49019 3.63952 5.49017 3.5895 5.48987 3.53947 5.48927 3.46967 5.48844 3.39993 5.48854 3.33012 5.48884 3.30955 5.48836 3.28899 5.48788 3.2678 5.48739 3.15952 5.48824 3.15952 5.48824 3.06811 5.54044 3.03574 5.57838 3.00764 5.61756 2.979 5.65833 2.86154 5.74417 2.7287 5.75999 2.58613 5.75473 2.48984 5.73965 2.42179 5.70244 2.35067 5.63667 2.33661 5.61478 2.32254 5.5929 2.30805 5.57035 2.2716 5.52673 2.2512 5.50894 2.19567 5.49472 2.13621 5.49039 2.07794 5.49017 2.01833 5.4913 1.9958 5.4912 1.97328 5.49111 1.95007 5.49102 1.87561 5.49085 1.80119 5.49158 1.72674 5.49228 1.6749 5.49226 1.62306 5.49216 1.57122 5.492 1.43465 5.49171 1.2981 5.49212 1.16153 5.49275 0.943261 5.49373 0.724998 5.49407 0.506727 5.49363 0.430619 5.49363 0.354528 5.49419 0.278422 5.49479 0.231469 5.4948 0.184515 5.4948 0.137561 5.49477 0.106047 5.49524 0.106047 5.49524 0.0738963 5.49572-0.0870106 5.49479-0.216762 5.45789-0.344543 5.35763-0.38661 5.30205-0.411692 5.24773-0.437557 5.18302-0.446579 5.16093-0.4556 5.13884-0.464895 5.11608-0.508518 4.99266-0.512094 4.8819-0.510683 4.7524-0.510585 4.73532-0.510487 4.71824-0.510386 4.70064-0.510132 4.65876-0.509744 4.61688-0.509328 4.575-0.536141 4.57634-0.562953 4.57768-0.590578 4.57906-0.802902 4.57806-0.998222 4.52131-1.15933 4.38-1.25785 4.26671-1.27665 4.15463-1.27511 4.00854-1.25986 3.88188-1.18837 3.80528-1.10516 3.71375-0.930716 3.58146-0.718556 3.57833-0.509328 3.57833-0.509328 3.04208-0.509328 2.50583-0.509328 1.95333-0.616578 1.95333-0.723828 1.95333-0.834328 1.95333-1.01937 1.89341-1.1525 1.8358-1.25412 1.6649-1.28802 1.51914-1.28009 1.39065-1.20266 1.26-1.08633 1.12209-0.944342 1.05706-0.769328 1.02167-0.682022 1.01562-0.59663 1.0161-0.509328 1.02167-0.509669 1.00859-0.510009 0.995512-0.51036 0.982037-0.525477 0.312781-0.525477 0.312781-0.335995 0.111668-0.232872 0.0424485-0.124511 0.00086424 0 0Z" fill="#272123" transform="matrix(1 0 0 1.0039 148.216 4.4752)"/><path d="M0 0C8.0652 0 16.1304 0 24.44 0 24.4274 0.189145 24.4148 0.375995 24.3933 0.563926 24.391 0.584696 24.3886 0.605466 24.3862 0.626866 24.379 0.691911 24.3716 0.756945 24.3642 0.821979 24.3592 0.866003 24.3543 0.910028 24.3494 0.954053 24.3403 1.0347 24.3312 1.11534 24.3221 1.19598 24.3202 1.21193 24.3184 1.22789 24.3166 1.24433 24.3076 1.32071 24.2979 1.39701 24.2883 1.47333 16.3161 1.47333 8.34383 1.47333 0.13 1.47333 0 0.329333 0 0.329333 0 0Z" fill="#B8073D" transform="matrix(1 0 0 1.0039 138.758 12.6787)"/><path d="M0 0C7.92935 0 15.8587 0 24.0283 0 24.0001 0.480248 23.9109 0.955208 23.8333 1.43 16.0398 1.43 8.24633 1.43 0.216667 1.43 0.184492 1.26912 0.184492 1.26912 0.151667 1.105 0.141389 1.05808 0.13111 1.01116 0.120521 0.962812 0.0859308 0.790598 0.0626586 0.616832 0.0392708 0.442813 0.0373072 0.428367 0.0353437 0.413922 0.0333206 0.399039 0.0276654 0.357193 0.0221671 0.315325 0.0166732 0.273457 0.013456 0.248975 0.0102389 0.224493 0.00692423 0.199269 0 0.13 0 0.13 0 0Z" fill="#FEFEFE" transform="matrix(1 0 0 1.0039 138.975 14.3535)"/><path d="M0 0C7.5361 0 15.0722 0 22.8367 0 22.6616 0.650358 22.6616 0.650358 22.5637 0.955216 22.5463 1.00934 22.5291 1.06351 22.5119 1.1177 22.5008 1.15251 22.4898 1.18733 22.4787 1.22214 22.4736 1.23815 22.4685 1.25417 22.4632 1.27068 22.4276 1.38156 22.4276 1.38156 22.4033 1.43 15.1532 1.43 7.90313 1.43 0.433333 1.43 0.285357 1.0354 0.285357 1.0354 0.236979 0.854479 0.193495 0.696664 0.146025 0.542103 0.0904753 0.388053 0.052228 0.260859 0.0278297 0.129872 0 0Z" fill="#FEFEFE" transform="matrix(1 0 0 1.0039 139.582 17.5075)"/><path d="M0 0C7.77205 0 15.5441 0 23.5517 0 23.5375 0.141781 23.5218 0.277937 23.4948 0.417083 23.4912 0.435817 23.4876 0.454551 23.4839 0.473853 23.4476 0.658011 23.4059 0.840923 23.3634 1.02375 23.3601 1.03842 23.3567 1.05308 23.3532 1.0682 23.3435 1.10994 23.3337 1.15165 23.3239 1.19336 23.3182 1.21758 23.3125 1.2418 23.3067 1.26676 23.2917 1.32167 23.2917 1.32167 23.27 1.34333 23.2198 1.34548 23.1702 1.34621 23.1199 1.34602 23.0959 1.34607 23.0959 1.34607 23.0714 1.34611 23.0171 1.34618 22.9627 1.34609 22.9083 1.346 22.8691 1.34602 22.8299 1.34604 22.7906 1.34608 22.6818 1.34614 22.573 1.34607 22.4642 1.34598 22.3462 1.34591 22.2281 1.34596 22.1101 1.34599 21.903 1.34604 21.6958 1.346 21.4887 1.34592 21.1807 1.34579 20.8726 1.34578 20.5646 1.3458 20.0465 1.34583 19.5284 1.34575 19.0104 1.34562 18.4971 1.3455 17.9839 1.34541 17.4707 1.34539 17.4548 1.34539 17.4388 1.34539 17.4224 1.34539 17.277 1.34538 17.1315 1.34537 16.9861 1.34537 16.6245 1.34535 16.2629 1.34533 15.9012 1.34531 15.8765 1.34531 15.8765 1.34531 15.8513 1.3453 15.0498 1.34525 14.2482 1.34511 13.4467 1.34497 13.1685 1.34492 12.8902 1.34487 12.612 1.34482 12.5947 1.34482 12.5775 1.34482 12.5597 1.34481 11.7579 1.34467 10.956 1.34459 10.1542 1.34453 10.1022 1.34452 10.0501 1.34452 9.99808 1.34451 9.65321 1.34449 9.30833 1.34446 8.96346 1.34443 8.27721 1.34438 7.59097 1.34432 6.90472 1.34426 6.87204 1.34425 6.83936 1.34425 6.80668 1.34425 5.04192 1.34408 3.27717 1.34382 0.281667 1.34333 0.260673 1.26362 0.239753 1.18388 0.218846 1.10414 0.212938 1.08171 0.20703 1.05927 0.200942 1.03616 0.159279 0.877057 0.122432 0.718241 0.0920833 0.556562 0.087866 0.534791 0.0836486 0.51302 0.0793034 0.490589 0.0711116 0.448284 0.0629964 0.405963 0.0549707 0.363625 0.0401359 0.286768 0.0240702 0.210182 0.0077653 0.133623 0 0.0866667 0 0.0866667 0 0Z" fill="#B8073D" transform="matrix(1 0 0 1.0039 139.192 15.9849)"/><path d="M0 0C7.2215 0 14.443 0 21.8833 0 21.8323 0.170047 21.7767 0.334927 21.7142 0.500671 21.6983 0.543209 21.6824 0.585809 21.6666 0.628418 21.5651 0.89898 21.4531 1.16267 21.3417 1.43 14.4777 1.43 7.61367 1.43 0.541667 1.43 0.263689 0.772961 0.263689 0.772961 0.155756 0.485231 0.136067 0.432814 0.116134 0.380493 0.0961882 0.328174 0.0834365 0.294424 0.0706983 0.260668 0.0579753 0.226908 0.0520879 0.211475 0.0462005 0.196042 0.0401347 0.180142 0.0165551 0.116891 0 0.0681071 0 0Z" fill="#B8073D" transform="matrix(1 0 0 1.0039 140.037 19.1388)"/><path d="M0 0C6.77105 0 13.5421 0 20.5183 0 20.3932 0.300241 20.3932 0.300241 20.3312 0.432064 20.3242 0.446954 20.3173 0.461844 20.3101 0.477185 20.288 0.524444 20.2657 0.571654 20.2434 0.618854 20.2358 0.63499 20.2282 0.651127 20.2204 0.667752 19.8935 1.3615 19.8935 1.3615 19.825 1.43 19.7832 1.43213 19.7413 1.4327 19.6995 1.43269 19.672 1.43274 19.6445 1.43279 19.6162 1.43284 19.5852 1.43278 19.5542 1.43273 19.5232 1.43267 19.4905 1.43268 19.4578 1.43271 19.4251 1.43274 19.3345 1.43281 19.2438 1.43274 19.1531 1.43265 19.0548 1.43258 18.9565 1.43263 18.8582 1.43266 18.6856 1.43271 18.513 1.43267 18.3404 1.43258 18.0838 1.43245 17.8271 1.43245 17.5705 1.43246 17.1389 1.43249 16.7072 1.43242 16.2756 1.43229 15.848 1.43216 15.4204 1.43208 14.9928 1.43206 14.9663 1.43205 14.9397 1.43205 14.9124 1.43205 14.7775 1.43204 14.6427 1.43204 14.5079 1.43203 13.552 1.43199 12.5961 1.43184 11.6402 1.43163 11.4084 1.43158 11.1766 1.43154 10.9448 1.43149 10.9304 1.43148 10.916 1.43148 10.9012 1.43148 10.2331 1.43134 9.56509 1.43126 8.89703 1.43119 8.85367 1.43119 8.81032 1.43119 8.76696 1.43118 8.47962 1.43115 8.19228 1.43113 7.90494 1.4311 7.31957 1.43104 6.73419 1.43098 6.14881 1.43092 6.12189 1.43091 6.09497 1.43091 6.06724 1.43091 4.26872 1.43071 2.47019 1.43037 0.671667 1.43 0.627318 1.34457 0.583004 1.25911 0.538721 1.17364 0.523702 1.14467 0.508674 1.1157 0.493637 1.08673 0.383208 0.874003 0.275394 0.660326 0.174037 0.443098 0.152 0.395939 0.129685 0.348917 0.10736 0.301895 0.0930267 0.271405 0.0787085 0.240908 0.0644075 0.210404 0.0578442 0.196597 0.0512808 0.182789 0.0445186 0.168564 0.0164234 0.107926 0 0.0677568 0 0Z" fill="#FEFEFE" transform="matrix(1 0 0 1.0039 140.752 20.7701)"/><path d="M0 0C6.2777 0 12.5554 0 19.0233 0 18.9079 0.288493 18.7442 0.556647 18.5859 0.823333 18.5715 0.847608 18.5571 0.871882 18.5423 0.896892 18.4634 1.02907 18.4634 1.02907 18.4409 1.06418 18.4146 1.10707 18.4146 1.10707 18.3893 1.1633 18.3028 1.32949 18.3028 1.32949 18.204 1.36571 18.1265 1.3745 18.0519 1.37559 17.9739 1.37429 17.944 1.37465 17.914 1.37511 17.8841 1.37566 17.8017 1.37688 17.7194 1.37661 17.6369 1.3761 17.5473 1.37581 17.4578 1.37689 17.3682 1.3778 17.2111 1.37919 17.0541 1.3797 16.897 1.37962 16.6634 1.3795 16.4299 1.38073 16.1963 1.38222 15.7306 1.38512 15.2648 1.38612 14.799 1.38668 14.7629 1.38672 14.7629 1.38672 14.7259 1.38676 14.6897 1.38681 14.6897 1.38681 14.6527 1.38685 14.3849 1.3872 14.1171 1.38795 13.8492 1.38872 13.0404 1.39101 12.2316 1.39292 11.4227 1.39322 11.3969 1.39323 11.371 1.39324 11.3443 1.39325 11.2395 1.39329 11.1346 1.39333 11.0297 1.39336 10.9508 1.39339 10.8719 1.39342 10.7929 1.39345 10.7538 1.39346 10.7538 1.39346 10.7139 1.39348 9.89453 1.39378 9.07518 1.39633 8.25581 1.40056 7.33542 1.4053 6.41505 1.40806 5.49465 1.40807 5.3965 1.40808 5.29834 1.40809 5.20018 1.40812 5.16393 1.40812 5.16393 1.40812 5.12695 1.40813 4.73804 1.40825 4.34917 1.41028 3.96028 1.41297 3.56934 1.41563 3.17845 1.41611 2.78751 1.41438 2.55526 1.41342 2.32315 1.41407 2.09092 1.41707 1.93567 1.4189 1.78052 1.4186 1.62528 1.41659 1.53682 1.4155 1.44863 1.41532 1.36019 1.41774 0.852493 1.43079 0.852493 1.43079 0.697518 1.28685 0.585254 1.15215 0.513585 0.994144 0.445287 0.833806 0.391724 0.713564 0.324331 0.601943 0.257292 0.488854 0.165503 0.328479 0.0827886 0.165577 0 0Z" fill="#B8073D" transform="matrix(1 0 0 1.0039 141.467 22.4014)"/><path d="M0 0C5.64135 0 11.2827 0 17.095 0 17.0561 0.0972577 17.0102 0.17646 16.9523 0.26237 16.9376 0.284467 16.9376 0.284467 16.9225 0.30701 16.8908 0.354607 16.8588 0.402099 16.8269 0.449583 16.805 0.482226 16.7831 0.514871 16.7613 0.547517 16.465 0.989129 16.465 0.989129 16.3465 1.14698 16.3131 1.19308 16.3131 1.19308 16.2806 1.25042 16.1768 1.41623 16.1768 1.41623 16.0849 1.45226 16.0169 1.46082 15.9524 1.46189 15.8839 1.46042 15.8453 1.461 15.8453 1.461 15.8059 1.4616 15.7344 1.46245 15.663 1.46223 15.5916 1.46156 15.5138 1.46109 15.4361 1.462 15.3583 1.46274 15.2221 1.46383 15.0858 1.46404 14.9496 1.46366 14.747 1.4631 14.5444 1.4639 14.3418 1.46496 13.9589 1.46691 13.576 1.46724 13.1931 1.46706 12.8974 1.46693 12.6017 1.46722 12.306 1.4678 12.2635 1.46788 12.221 1.46796 12.1785 1.46804 12.1145 1.46816 12.0505 1.46829 11.9865 1.46841 11.3914 1.46954 10.7962 1.47017 10.2011 1.46978 10.1786 1.46977 10.1562 1.46975 10.1331 1.46974 10.0193 1.46966 9.9056 1.46958 9.79186 1.4695 9.76927 1.46948 9.74668 1.46947 9.72341 1.46945 9.67773 1.46942 9.63205 1.46939 9.58637 1.46935 8.87564 1.46885 8.16494 1.47002 7.45422 1.47251 6.65579 1.47531 5.85738 1.4768 5.05895 1.47639 4.97381 1.47635 4.88867 1.47631 4.80353 1.47628 4.78257 1.47627 4.76161 1.47627 4.74001 1.47626 4.42354 1.47615 4.10709 1.47708 3.79063 1.47852 3.43068 1.48016 3.07076 1.48045 2.71081 1.47892 2.50938 1.4781 2.30803 1.47836 2.10661 1.48018 1.97198 1.48128 1.83742 1.48096 1.7028 1.4795 1.62611 1.4787 1.54955 1.47851 1.47286 1.48006 1.02954 1.48721 1.02954 1.48721 0.901712 1.39125 0.813764 1.29982 0.751484 1.19784 0.694803 1.08493 0.665482 1.02799 0.629486 0.977818 0.590755 0.926927 0.444973 0.72074 0.30394 0.511594 0.165208 0.300625 0.156911 0.288069 0.148613 0.275513 0.140064 0.262576 0.116571 0.226975 0.093236 0.19127 0.0699088 0.15556 0.0564083 0.134944 0.0429078 0.114329 0.0289982 0.0930884 0 0.0433333 0 0.0433333 0 0Z" fill="#FEFEFE" transform="matrix(1 0 0 1.0039 142.463 23.9458)"/><path d="M0 0C4.94065 0 9.8813 0 14.9717 0 14.9335 0.0764041 14.8943 0.135443 14.843 0.203125 14.8345 0.214321 14.8261 0.225518 14.8173 0.237053 14.3728 0.821873 14.3728 0.821873 14.1561 1.0668 14.1238 1.10647 14.1238 1.10647 14.0966 1.16269 14.0405 1.2547 13.989 1.32669 13.8836 1.35728 13.7303 1.38081 13.5748 1.37532 13.4201 1.3736 13.3669 1.37387 13.3137 1.37425 13.2605 1.37472 13.1448 1.37551 13.0292 1.37556 12.9135 1.37495 12.7416 1.37405 12.5696 1.37451 12.3976 1.37524 12.0905 1.37649 11.7833 1.37639 11.4761 1.3757 11.2073 1.3751 10.9385 1.37494 10.6697 1.37523 10.6519 1.37524 10.6341 1.37526 10.6157 1.37528 10.5433 1.37536 10.4709 1.37543 10.3985 1.37551 9.71956 1.37624 9.04058 1.37558 8.3616 1.3743 7.75837 1.37316 7.15515 1.37327 6.55191 1.37441 5.87417 1.37568 5.19644 1.37619 4.5187 1.37545 4.44645 1.37537 4.3742 1.3753 4.30195 1.37523 4.28416 1.37521 4.26638 1.37519 4.24805 1.37517 3.97941 1.3749 3.71078 1.37521 3.44214 1.37582 3.13669 1.3765 2.83124 1.37633 2.52579 1.37504 2.35483 1.37434 2.1839 1.37429 2.01294 1.37519 1.88534 1.37579 1.75776 1.37514 1.63016 1.374 1.57851 1.37374 1.52685 1.37387 1.4752 1.37445 1.06863 1.37864 1.06863 1.37864 0.968018 1.29154 0.918133 1.23146 0.881731 1.17365 0.845 1.105 0.820051 1.07335 0.794497 1.04216 0.767982 1.01182 0.621518 0.83494 0.477081 0.656807 0.336204 0.47545 0.298059 0.426575 0.259607 0.377948 0.221152 0.329316 0.193022 0.293575 0.164895 0.25783 0.136771 0.222083 0.116452 0.196488 0.116452 0.196488 0.0957227 0.170376 0.083266 0.154483 0.0708094 0.138589 0.0579753 0.122214 0.0467842 0.108032 0.0355931 0.0938509 0.0240629 0.0792399 0 0.0433333 0 0.0433333 0 0Z" fill="#B8073D" transform="matrix(1 0 0 1.0039 143.503 25.5771)"/><path d="M0 0C4.0898 0 8.1796 0 12.3933 0 12.2472 0.194866 12.2472 0.194866 12.1801 0.26474 12.1656 0.280017 12.1511 0.295295 12.1361 0.311035 12.1213 0.326369 12.1066 0.341702 12.0914 0.3575 11.9927 0.46052 11.896 0.564372 11.8026 0.672132 11.738 0.745757 11.671 0.817031 11.6039 0.888333 11.5909 0.902214 11.578 0.916095 11.5646 0.930397 11.5356 0.961239 11.5059 0.991369 11.4755 1.02089 11.4302 1.0704 11.3996 1.11202 11.3649 1.16806 11.2681 1.30745 11.1558 1.4169 10.9845 1.45057 10.7309 1.4878 10.4707 1.47982 10.2151 1.47818 10.0968 1.47779 9.97849 1.4794 9.8602 1.48074 9.62877 1.48303 9.39737 1.48343 9.16593 1.48309 8.97765 1.48284 8.78937 1.4832 8.60109 1.48398 8.57424 1.48409 8.54738 1.4842 8.51971 1.48431 8.46514 1.48454 8.41057 1.48476 8.356 1.48498 7.90294 1.48675 7.4499 1.48691 6.99685 1.48607 6.98246 1.48604 6.96807 1.48602 6.95325 1.48599 6.92415 1.48593 6.89506 1.48588 6.86597 1.48582 6.41366 1.48499 5.96143 1.48651 5.50914 1.48991 4.99995 1.49372 4.4908 1.49571 3.9816 1.49506 3.71238 1.49476 3.44321 1.49525 3.174 1.49787 2.94471 1.50008 2.71552 1.50037 2.48623 1.49824 2.36942 1.49722 2.25278 1.49702 2.13598 1.49924 1.356 1.51304 1.356 1.51304 1.07115 1.24001 0.964167 1.13005 0.871882 1.01103 0.78 0.888333 0.704228 0.797984 0.626533 0.710273 0.541667 0.628333 0.473632 0.561207 0.410269 0.491748 0.348105 0.419199 0.311874 0.378037 0.275076 0.337819 0.237572 0.297832 0.22589 0.285353 0.214208 0.272873 0.202173 0.260016 0.178824 0.235145 0.155397 0.210347 0.131883 0.185632 0.0749696 0.124888 0.0376948 0.0753897 0 0Z" fill="#FEFEFE" transform="matrix(1 0 0 1.0039 144.825 27.0997)"/><path d="M0 0C3.1317 0 6.2634 0 9.49 0 9.40292 0.101589 9.31653 0.198641 9.22188 0.2925 9.20957 0.304765 9.19726 0.317029 9.18458 0.329666 9.10662 0.406834 9.02672 0.48062 8.94309 0.551654 8.90328 0.586504 8.86624 0.623098 8.82917 0.660833 8.76541 0.725594 8.69866 0.785341 8.62985 0.844661 8.569 0.897971 8.50949 0.952683 8.45 1.0075 8.26161 1.18072 8.26161 1.18072 8.19357 1.23638 8.1447 1.27796 8.1447 1.27796 8.1025 1.332 7.97921 1.46433 7.87412 1.5078 7.6933 1.52017 7.57184 1.52422 7.4506 1.52473 7.32909 1.52364 7.2527 1.52319 7.17631 1.524 7.09992 1.52464 6.95058 1.52568 6.80126 1.52556 6.65191 1.525 6.53046 1.52457 6.40902 1.52456 6.28758 1.52484 6.26159 1.5249 6.26159 1.5249 6.23507 1.52496 6.19986 1.52504 6.16465 1.52512 6.12944 1.5252 5.79979 1.52593 5.47016 1.52532 5.14051 1.52426 4.85807 1.52338 4.57564 1.5237 4.29319 1.52488 3.96467 1.52626 3.63617 1.52685 3.30765 1.52624 3.27257 1.52617 3.2375 1.52611 3.20242 1.52605 3.17654 1.526 3.17654 1.526 3.15013 1.52596 3.02893 1.5258 2.90773 1.5262 2.78652 1.52682 2.63867 1.52757 2.49085 1.52746 2.343 1.52628 2.26765 1.5257 2.19235 1.52549 2.117 1.52633 1.6175 1.53061 1.6175 1.53061 1.47588 1.41264 1.42729 1.3641 1.38572 1.31063 1.34333 1.25667 1.30218 1.22137 1.26028 1.18691 1.2174 1.15375 1.1362 1.08838 1.06158 1.0208 0.989134 0.94597 0.952388 0.90905 0.914227 0.874962 0.874792 0.840937 0.74636 0.729974 0.622544 0.613967 0.498333 0.498333 0.483761 0.48477 0.469189 0.471207 0.454175 0.457232 0.408368 0.414552 0.362612 0.371818 0.316875 0.329062 0.302715 0.315852 0.288554 0.302641 0.273965 0.28903 0.0700789 0.0980166 0.0700789 0.0980166 0 0.0216667 0 0.0145167 0 0.00736667 0 0Z" fill="#B8073D" transform="matrix(1 0 0 1.0039 146.255 28.731)"/><path d="M0 0C0.0260502-2.37293e-05 0.0260502-2.37293e-05 0.0526267-4.79379e-05 0.10891 2.63538e-05 0.165151 0.000863341 0.221427 0.00171916 0.260889 0.00192163 0.300351 0.00207564 0.339813 0.00218366 0.442829 0.00259396 0.545829 0.00365527 0.648839 0.00485992 0.754291 0.00597537 0.859747 0.00646446 0.965203 0.00700887 1.1715 0.00816484 1.37778 0.0100097 1.58406 0.0122986 1.58558 0.538699 1.58672 1.0651 1.58743 1.5915 1.58776 1.83591 1.58822 2.08032 1.58896 2.32473 1.58961 2.53774 1.59003 2.75074 1.59017 2.96374 1.59026 3.07655 1.59046 3.18935 1.59093 3.30216 1.59137 3.40831 1.59151 3.51446 1.59141 3.62061 1.59143 3.65959 1.59156 3.69857 1.59181 3.73755 1.59213 3.79075 1.59205 3.84393 1.59187 3.89712 1.59206 3.91257 1.59225 3.92802 1.59245 3.94394 1.5916 4.03815 1.57742 4.09774 1.51906 4.1723 1.39593 4.24502 1.2908 4.24372 1.15064 4.23865 0.916896 4.23463 0.688369 4.24892 0.456053 4.27406 0.393281 4.28068 0.330465 4.28628 0.267596 4.29189 0.00637857 4.31807-0.18853 4.37658-0.409276 4.51897-0.423576 4.52612-0.437876 4.53327-0.452609 4.54063-0.452609 3.08203-0.452609 1.62343-0.452609 0.120632-0.153916-0.00382363-0.153916-0.00382363 0 0Z" fill="#FBFBFB" transform="matrix(1 0 0 1.0039 143.284 4.70546)"/><path d="M0 0C0.0269822-1.89835e-05 0.0269822-1.89835e-05 0.0545095-3.83504e-05 0.113367 2.1541e-05 0.172201 0.000693464 0.231055 0.00137533 0.272097 0.00153714 0.31314 0.00166043 0.354183 0.00174693 0.461758 0.00207647 0.569321 0.0029267 0.676892 0.00388794 0.786839 0.00477744 0.896788 0.00517097 1.00674 0.0056071 1.22214 0.00653418 1.43753 0.00801172 1.65293 0.00983887 1.65728 0.532664 1.66125 1.05549 1.66477 1.57832 1.66642 1.82108 1.66818 2.06384 1.67024 2.3066 1.67204 2.51818 1.6736 2.72977 1.67488 2.94137 1.67557 3.0534 1.67638 3.16543 1.67746 3.27746 1.67847 3.38294 1.67917 3.48841 1.67964 3.59389 1.67987 3.63257 1.68021 3.67125 1.68067 3.70994 1.68128 3.76283 1.68149 3.81571 1.68159 3.86861 1.68186 3.88384 1.68214 3.89908 1.68242 3.91478 1.68201 4.02371 1.65951 4.09663 1.6096 4.19151 1.53761 4.23484 1.47708 4.23971 1.39428 4.23679 1.37342 4.23631 1.35255 4.23583 1.33105 4.23534 1.30857 4.23472 1.28609 4.23411 1.26293 4.23348 0.949416 4.22907 0.641992 4.26078 0.331263 4.29984 0.304758 4.30288 0.278252 4.30591 0.250944 4.30904 0.106348 4.32704-0.0095531 4.34841-0.137279 4.41901-0.161689 4.43219-0.1861 4.44537-0.21125 4.45895-0.232421 4.4708-0.253591 4.48264-0.275404 4.49484-0.318304 4.51629-0.318304 4.51629-0.36207 4.53817-0.36207 3.07242-0.36207 1.60667-0.36207 0.0965055-0.216261 0.0236011-0.150628-0.00282774 0 0Z" fill="#FDFDFD" transform="matrix(1 0 0 1.0039 151.297 4.70793)"/><path d="M0 0C0.21943-0.00201452 0.438858-0.00355128 0.658295-0.00449039 0.760206-0.00494128 0.862111-0.00555221 0.964019-0.00653809 1.0625-0.00748477 1.16097-0.00799904 1.25946-0.00822269 1.29689-0.00838193 1.33433-0.00869288 1.37176-0.00916327 1.4245-0.00979913 1.47721-0.00987877 1.52994-0.00983887 1.54517-0.0101505 1.5604-0.010462 1.57608-0.0107831 1.71867-0.00962752 1.7807 0.0276128 1.92833 0.0866667 1.92833 1.51667 1.92833 2.94667 1.92833 4.42 1.84703 4.3929 1.77328 4.36652 1.69571 4.33268 1.58453 4.28788 1.47905 4.26952 1.36035 4.25708 1.34006 4.25474 1.31977 4.25241 1.29886 4.25001 1.2563 4.24518 1.21371 4.24051 1.17111 4.23599 1.10654 4.22908 1.04207 4.2216 0.977581 4.21404 0.935902 4.20939 0.894219 4.20478 0.852533 4.2002 0.824118 4.19689 0.824118 4.19689 0.795129 4.19351 0.657195 4.17931 0.527492 4.18748 0.39 4.20333 0.15195 4.22162 0.15195 4.22162 0.073125 4.15594 0.0166555 4.04043-0.00628234 3.95127-0.00521103 3.82229-0.00524805 3.80592-0.00528508 3.78955-0.00532323 3.77268-0.0053945 3.71792-0.0051564 3.66316-0.00491943 3.6084-0.00490721 3.56911-0.00491408 3.52982-0.00493861 3.49053-0.00495105 3.3839-0.00469619 3.27728-0.00439374 3.17066-0.00412293 3.05921-0.0040974 2.94777-0.00404597 2.83632-0.00391126 2.62531-0.00355562 2.41429-0.00312083 2.20327-0.00263655 1.96303-0.00239823 1.72279-0.00218069 1.48254-0.00172769 0.98836-0.000965439 0.49418 0 0Z" fill="#FDFDFD" transform="matrix(1 0 0 1.0039 140.73 4.71781)"/><path d="M0 0C0.0389757 0.000202483 0.0779517 0.000356488 0.116928 0.000464503 0.218662 0.000874751 0.320379 0.001936 0.422107 0.00314077 0.526253 0.00425634 0.630401 0.00474533 0.734551 0.00528971 0.938276 0.00644558 1.14199 0.00829039 1.3457 0.0105794 1.35056 0.542627 1.35491 1.07468 1.35867 1.60673 1.36043 1.85377 1.36235 2.1008 1.36465 2.34783 1.36666 2.56312 1.36836 2.77841 1.3697 2.9937 1.37041 3.10772 1.37128 3.22173 1.37252 3.33575 1.37368 3.44304 1.37443 3.55032 1.37487 3.65761 1.3751 3.69701 1.37548 3.73641 1.37602 3.77581 1.37674 3.82958 1.37692 3.88332 1.37697 3.93709 1.37731 3.95271 1.37764 3.96833 1.37799 3.98442 1.37747 4.06222 1.3689 4.10322 1.32614 4.16917 1.26718 4.22723 1.23199 4.23492 1.15159 4.23632 1.13633 4.23552 1.12106 4.23471 1.10534 4.23389 0.817663 4.22378 0.534664 4.24282 0.248669 4.27243 0.206823 4.2767 0.164953 4.28074 0.12306 4.28453-0.158484 4.31042-0.363998 4.36882-0.604297 4.51725-0.625747 4.5244-0.647197 4.53155-0.669297 4.53891-0.669297 3.83821-0.669297 3.13751-0.669297 2.41558-0.647847 2.43703-0.626397 2.45848-0.604297 2.48058-0.583978 2.50023-0.583978 2.50023-0.563249 2.52027-0.521717 2.56316-0.48498 2.60368-0.45263 2.65391-0.4638 2.73848-0.492194 2.77826-0.539297 2.84891-0.528572 2.90254-0.528572 2.90254-0.51763 2.95725-0.30313 2.9644-0.0886302 2.97155 0.13237 2.97891 0.13237 2.95746 0.13237 2.93601 0.13237 2.91391 0.116729 2.90855 0.101089 2.90319 0.084974 2.89766-0.00316831 2.85849-0.0641037 2.82601-0.107318 2.73592-0.148149 2.62731-0.179749 2.51605-0.211165 2.40441-0.255243 2.24947-0.301883 2.09544-0.349714 1.94162-0.358066 1.91469-0.366419 1.88776-0.375025 1.86002-0.437369 1.65978-0.502603 1.46059-0.570422 1.26214-0.580445 1.23262-0.580445 1.23262-0.590671 1.2025-0.596464 1.18562-0.602258 1.16874-0.608227 1.15135-0.653333 1.00527-0.675575 0.880561-0.673529 0.728288-0.673467 0.710739-0.673406 0.693191-0.673343 0.67511-0.673103 0.619708-0.672559 0.564313-0.672005 0.508913-0.671788 0.471081-0.67159 0.433249-0.671413 0.395417-0.670938 0.303246-0.670192 0.211081-0.669297 0.118913-0.446056-0.00365348-0.248343-0.00382502 0 0Z" fill="#FDFDFD" transform="matrix(1 0 0 1.0039 159.643 4.70719)"/><path d="M0 0C0.21943-0.00201452 0.438858-0.00355128 0.658295-0.00449039 0.760206-0.00494128 0.862111-0.00555221 0.964019-0.00653809 1.0625-0.00748477 1.16097-0.00799904 1.25946-0.00822269 1.29689-0.00838193 1.33433-0.00869288 1.37176-0.00916327 1.57052-0.0115598 1.74939-0.0130449 1.92833 0.0866667 1.9316 0.220274 1.93393 0.353856 1.93547 0.487495 1.93612 0.532729 1.937 0.577962 1.93814 0.623186 1.94576 0.93312 1.91304 1.19573 1.81429 1.48978 1.79225 1.55686 1.77411 1.62475 1.75627 1.69305 1.7504 1.71513 1.74453 1.7372 1.73848 1.75995 1.73276 1.78155 1.72704 1.80316 1.72115 1.82542 1.49582 2.66724 1.49582 2.66724 1.34333 2.795 1.33618 2.80215 1.32903 2.8093 1.32167 2.81667 1.27156 2.82615 1.27156 2.82615 1.21333 2.81667 1.11623 2.70704 1.11251 2.60985 1.11042 2.46729 1.1095 2.43432 1.1095 2.43432 1.10857 2.40067 1.10672 2.32267 1.10576 2.24469 1.105 2.16667 1.10484 2.15101 1.10467 2.13536 1.10451 2.11923 1.10329 1.99873 1.10263 1.87822 1.10229 1.75771 1.1022 1.73248 1.1022 1.73248 1.1021 1.70674 1.10164 1.52656 1.10423 1.3491 1.12667 1.17 1.18354 1.15781 1.18354 1.15781 1.25667 1.17 1.32468 1.24472 1.37388 1.32943 1.40799 1.42433 1.41889 1.44859 1.41889 1.44859 1.43 1.47333 1.46218 1.48406 1.46218 1.48406 1.495 1.495 1.51689 1.41561 1.53848 1.33615 1.56 1.25667 1.56691 1.23199 1.56691 1.23199 1.57396 1.20682 1.59734 1.12022 1.60782 1.04297 1.60333 0.953333 1.56858 0.952747 1.53382 0.952327 1.49906 0.951979 1.47971 0.951728 1.46035 0.951476 1.44041 0.951217 1.38376 0.950948 1.38376 0.950948 1.32167 0.975 1.05633 0.993629 0.776198 1.00828 0.52694 0.905176 0.469422 0.885906 0.444796 0.884311 0.39 0.91 0.280861 1.04963 0.286463 1.23974 0.281667 1.40833 0.303117 1.40833 0.324567 1.40833 0.346667 1.40833 0.35189 1.39219 0.357112 1.37605 0.362493 1.35941 0.393827 1.29173 0.425063 1.26176 0.483438 1.21604 0.499888 1.20269 0.516339 1.18934 0.533288 1.17559 0.585 1.14833 0.585 1.14833 0.645514 1.15493 0.661295 1.15991 0.677075 1.16488 0.693333 1.17 0.726753 1.25941 0.742242 1.33404 0.742961 1.42935 0.743238 1.45438 0.743514 1.4794 0.743799 1.50518 0.743847 1.53193 0.743896 1.55868 0.743945 1.58624 0.74409 1.61402 0.744234 1.64179 0.744382 1.67042 0.744641 1.72909 0.744722 1.78777 0.744696 1.84645 0.744692 1.92124 0.745284 1.99602 0.74603 2.07081 0.746631 2.14265 0.746602 2.2145 0.746654 2.28634 0.746965 2.313 0.747276 2.33966 0.747597 2.36713 0.746787 2.52001 0.733938 2.6224 0.65 2.75167 0.614134 2.78086 0.578064 2.80981 0.541667 2.83833 0.534517 2.87408 0.527367 2.90983 0.52 2.94667 0.95615 2.93952 1.3923 2.93237 1.84167 2.925 1.85239 2.86065 1.85239 2.86065 1.86333 2.795 1.83761 2.75664 1.83761 2.75664 1.79833 2.73 1.73378 2.67207 1.73378 2.67207 1.72927 2.60135 1.76093 2.51972 1.80015 2.44506 1.86333 2.38333 1.88478 2.38333 1.90623 2.38333 1.92833 2.38333 1.92833 3.05543 1.92833 3.72753 1.92833 4.42 1.84703 4.3929 1.77328 4.36652 1.69571 4.33268 1.58453 4.28788 1.47905 4.26952 1.36035 4.25708 1.34006 4.25474 1.31977 4.25241 1.29886 4.25001 1.2563 4.24518 1.21371 4.24051 1.17111 4.23599 1.10654 4.22908 1.04207 4.2216 0.977581 4.21404 0.935902 4.20939 0.894219 4.20478 0.852533 4.2002 0.824118 4.19689 0.824118 4.19689 0.795129 4.19351 0.674814 4.18112 0.562078 4.18421 0.441857 4.19759 0.377536 4.20471 0.31386 4.20696 0.249167 4.2074 0.22794 4.2077 0.206714 4.20801 0.184844 4.20833 0.13 4.20333 0.13 4.20333 0.065 4.16-0.0382212 3.94471-0.0329613 3.7229-0.0295166 3.49034-0.029278 3.45209-0.0290784 3.41384-0.0289146 3.37558-0.0283643 3.27259-0.0272732 3.16961-0.026079 3.06663-0.0249213 2.95868-0.0242692 2.85074-0.0235617 2.74279-0.0221485 2.53876-0.0202858 2.33473-0.0182584 2.13071-0.0159707 1.89827-0.0141891 1.66583-0.0124483 1.43338-0.00885871 0.955584-0.00463915 0.477791 0 0Z" fill="#FDFDFD" transform="matrix(1 0 0 1.0039 156.872 4.71781)"/><path d="M0 0C0.218477-0.00150655 0.436952-0.00266127 0.655433-0.00336779 0.756884-0.0037069 0.858332-0.00416684 0.959781-0.00490356 1.0577-0.00561019 1.15561-0.00599857 1.25353-0.00616702 1.29088-0.00628705 1.32822-0.00652145 1.36556-0.00687245 1.4179-0.00734481 1.47023-0.00740926 1.52256-0.00737915 1.53798-0.00761284 1.55339-0.00784654 1.56927-0.00808731 1.66596-0.00748604 1.71892 0.0117598 1.79833 0.065 1.84123 0.0793 1.88413 0.0936 1.92833 0.108333 1.92833 0.973483 1.92833 1.83863 1.92833 2.73 1.885 2.73 1.885 2.73 1.85445 2.70046 1.84263 2.68653 1.83082 2.67259 1.81865 2.65823 1.80532 2.64253 1.792 2.62684 1.77827 2.61066 1.75603 2.58394 1.75603 2.58394 1.73333 2.55667 1.71649 2.53661 1.69965 2.51656 1.6823 2.4959 1.47273 2.24359 1.47273 2.24359 1.47435 2.15372 1.50032 2.08826 1.52947 2.06696 1.58708 2.02719 1.72084 1.92889 1.81066 1.82979 1.86333 1.66833 1.88812 1.47984 1.88313 1.31411 1.7787 1.15079 1.65233 1.02324 1.54096 0.984343 1.36198 0.981089 1.33728 0.981175 1.31258 0.98126 1.28714 0.981348 1.26141 0.98102 1.23569 0.980692 1.20918 0.980355 1.12751 0.979428 1.04585 0.979235 0.964167 0.979062 0.908589 0.978561 0.853012 0.978011 0.797435 0.977412 0.661623 0.976052 0.525818 0.975294 0.39 0.975 0.416985 1.07616 0.437495 1.14403 0.510521 1.2201 0.589473 1.30365 0.609301 1.34262 0.611533 1.45853 0.612021 1.48262 0.612509 1.50671 0.613012 1.53154 0.61455 1.6422 0.615801 1.75287 0.616632 1.86354 0.617114 1.92183 0.618016 1.98008 0.619299 2.03835 0.621017 2.12246 0.621732 2.20653 0.62224 2.29066 0.622954 2.31653 0.623669 2.3424 0.624406 2.36906 0.624094 2.49998 0.617314 2.5798 0.531214 2.68163 0.51753 2.69487 0.503845 2.70811 0.489745 2.72175 0.437877 2.79015 0.437877 2.79015 0.433333 2.96833 0.662133 2.96833 0.890933 2.96833 1.12667 2.96833 1.1143 2.79853 1.1143 2.79853 1.04948 2.67042 0.978721 2.54151 0.986542 2.41855 0.996667 2.275 1.04643 2.2684 1.04643 2.2684 1.105 2.275 1.1419 2.31952 1.1419 2.31952 1.17542 2.38063 1.25393 2.51289 1.34448 2.62017 1.45167 2.73 1.47714 2.75778 1.47714 2.75778 1.50312 2.78611 1.52055 2.80379 1.53798 2.82147 1.55594 2.83969 1.57127 2.85558 1.5866 2.87147 1.6024 2.88785 1.69365 2.9453 1.69365 2.9453 1.92833 2.94667 1.92833 3.44002 1.92833 3.93337 1.92833 4.44167 1.82 4.39833 1.82 4.39833 1.76935 4.37259 1.56966 4.27588 1.36461 4.25683 1.14617 4.23435 1.08198 4.22771 1.0179 4.22039 0.953799 4.21298 0.754966 4.19085 0.567366 4.17373 0.368333 4.20333 0.321421 4.20553 0.274463 4.20708 0.2275 4.2074 0.206273 4.2077 0.185047 4.20801 0.163177 4.20833 0.108333 4.20333 0.108333 4.20333 0.0433333 4.16 0.00578846 4.04381-0.00623743 3.9365-0.00521103 3.81447-0.00524805 3.79805-0.00528508 3.78162-0.00532323 3.76469-0.0053941 3.71013-0.00515707 3.65558-0.00491943 3.60103-0.0049072 3.56172-0.00491409 3.52242-0.00493861 3.48312-0.00495101 3.37677-0.0046967 3.27042-0.00439374 3.16407-0.00412237 3.0528-0.00409735 2.94152-0.00404597 2.83025-0.00391143 2.6197-0.00355601 2.40915-0.00312083 2.19859-0.00263603 1.95882-0.0023981 1.71904-0.00218069 1.47927-0.00172807 0.98618-0.00096614 0.49309 0 0Z" fill="#FEFEFE" transform="matrix(1 0 0 1.0039 148.812 4.71781)"/><path d="M0 0C1.82325 0 3.6465 0 5.525 0 5.45528 0.0871531 5.39254 0.149341 5.30562 0.215312 5.27832 0.236386 5.25101 0.257461 5.2237 0.278535 5.20204 0.295141 5.20204 0.295141 5.17994 0.312083 5.1343 0.347207 5.08891 0.382644 5.04359 0.418184 4.80223 0.607306 4.55794 0.792326 4.31167 0.975 4.29663 0.986228 4.28159 0.997455 4.2661 1.00902 3.94946 1.24498 3.6193 1.46151 3.28958 1.67858 3.21704 1.72638 3.14492 1.77479 3.07286 1.8233 3.03623 1.84751 2.99958 1.87169 2.96292 1.89583 2.94696 1.90676 2.931 1.91768 2.91455 1.92893 2.87049 1.95745 2.87049 1.95745 2.795 1.99333 2.71664 1.97007 2.65051 1.93059 2.58138 1.88762 2.56105 1.875 2.54072 1.86237 2.51978 1.84936 2.48709 1.82879 2.48709 1.82879 2.45375 1.80781 2.43093 1.79349 2.40811 1.77916 2.38459 1.76441 1.99145 1.51586 1.6098 1.25031 1.235 0.975 1.20084 0.95003 1.16667 0.925063 1.13251 0.900098 0.839035 0.685212 0.548372 0.466948 0.265417 0.238333 0.251209 0.226894 0.237002 0.215455 0.222364 0.20367 0.208977 0.192765 0.19559 0.18186 0.181797 0.170625 0.170185 0.161185 0.158573 0.151745 0.14661 0.142018 0.0955331 0.0970686 0.0481107 0.0481107 0 0Z" fill="#FEFEFE" transform="matrix(1 0 0 1.0039 148.27 30.4276)"/><path d="M0 0C0.0916291-0.00189056 0.183253-0.00304371 0.274896-0.0040625 0.300856-0.00460713 0.326817-0.00515176 0.353564-0.00571289 0.378631-0.00592236 0.403698-0.00613184 0.429525-0.00634766 0.452558-0.00668805 0.475591-0.00702844 0.499323-0.00737915 0.576664 0.00153676 0.61244 0.014004 0.671667 0.065 0.73576 0.177205 0.745806 0.289757 0.743014 0.416406 0.742922 0.432512 0.74283 0.448618 0.742736 0.465212 0.742376 0.515983 0.741561 0.566735 0.740729 0.6175 0.740403 0.6522 0.740106 0.686901 0.739841 0.721602 0.739129 0.806075 0.73801 0.890534 0.736667 0.975 0.774372 0.973869 0.774372 0.973869 0.812839 0.972715 1.30121 0.962396 1.30121 0.962396 1.46792 1.09823 1.49205 1.12303 1.49205 1.12303 1.51667 1.14833 1.50978 1.21265 1.49653 1.23358 1.44828 1.27833 1.23701 1.42692 0.985887 1.40833 0.736667 1.40833 0.736667 2.11618 0.736667 2.82403 0.736667 3.55333 0.915417 3.55333 1.09417 3.55333 1.27833 3.55333 1.45167 3.64 1.45167 3.64 1.47333 3.66167 1.48865 3.81487 1.48865 3.81487 1.42594 3.89729 1.2963 3.99524 1.1837 3.99276 1.02646 3.99073 0.995456 3.99071 0.995456 3.99071 0.963828 3.99069 0.810818 3.98972 0.810818 3.98972 0.736667 3.965 0.737007 3.98487 0.737347 4.00474 0.737698 4.02521 0.738815 4.09991 0.739625 4.17461 0.740237 4.24932 0.740561 4.28147 0.741003 4.31362 0.74157 4.34576 0.748235 4.73334 0.748235 4.73334 0.671667 4.875 0.522741 5.0085 0.363434 5.00818 0.172841 5.00746 0.151059 5.00746 0.129276 5.00747 0.106834 5.00747 0.0349698 5.00745-0.0368928 5.00729-0.108757 5.00712-0.158636 5.00708-0.208516 5.00704-0.258396 5.00702-0.389582 5.00694-0.520768 5.00673-0.651955 5.00649-0.785859 5.00627-0.919764 5.00617-1.05367 5.00606-1.31633 5.00583-1.579 5.00546-1.84167 5.005-1.72798 4.87552-1.56653 4.84022-1.39912 4.82485-1.32144 4.82314-1.24429 4.82415-1.16661 4.82625-1.1234 4.82675-1.08019 4.82725-1.03698 4.82772-0.947068 4.82885-0.857167 4.83078-0.767264 4.83257-0.69286 4.83401-0.618463 4.83528-0.54405 4.83609-0.488648 4.83673-0.433248 4.83776-0.377863 4.83926-0.176621 4.84152 0.0102116 4.81424 0.186777 4.71218 0.358951 4.53235 0.337526 4.2888 0.336558 4.05653 0.336711 4.01779 0.336901 3.97905 0.337124 3.9403 0.337609 3.83559 0.337548 3.73089 0.337355 3.62618 0.337244 3.53858 0.337403 3.45098 0.33756 3.36338 0.337928 3.15665 0.337852 2.94992 0.337489 2.74319 0.337122 2.53029 0.337466 2.31741 0.338166 2.10451 0.338745 1.92132 0.338901 1.73814 0.338718 1.55496 0.338611 1.44572 0.338658 1.33649 0.339103 1.22725 0.339502 1.12453 0.33937 1.02182 0.338839 0.919091 0.338731 0.881518 0.338805 0.843944 0.33908 0.806372 0.340899 0.536963 0.308266 0.341877 0.11375 0.140833 0.0228704 0.0457407 0.0228704 0.0457407 0 0Z" fill="#FCFCFC" transform="matrix(1 0 0 1.0039 145.193 4.71781)"/><path d="M0 0C0.0916291-0.00189056 0.183253-0.00304371 0.274896-0.0040625 0.300856-0.00460713 0.326817-0.00515176 0.353564-0.00571289 0.378631-0.00592236 0.403698-0.00613184 0.429525-0.00634766 0.452558-0.00668805 0.475591-0.00702844 0.499323-0.00737915 0.575832 0.00144088 0.612416 0.015592 0.671667 0.065 0.735453 0.177566 0.745722 0.269814 0.743014 0.397363 0.742922 0.413981 0.74283 0.430598 0.742736 0.447719 0.742375 0.500258 0.74156 0.552779 0.740729 0.605312 0.740403 0.641155 0.740106 0.676998 0.739841 0.712842 0.739128 0.800235 0.738008 0.887614 0.736667 0.975 0.777252 0.973662 0.777252 0.973662 0.818657 0.972297 1.27982 0.958418 1.27982 0.958418 1.44837 1.09383 1.47333 1.12667 1.47333 1.12667 1.47333 1.17948 1.43991 1.26512 1.38549 1.3014 1.30372 1.34071 1.11642 1.41703 0.939844 1.40833 0.736667 1.40833 0.736667 2.11618 0.736667 2.82403 0.736667 3.55333 0.908267 3.55333 1.07987 3.55333 1.25667 3.55333 1.43 3.64 1.43 3.64 1.47333 3.68333 1.48281 3.7551 1.48281 3.7551 1.47333 3.835 1.41033 3.91601 1.35312 3.95519 1.25667 3.98667 1.19663 3.99159 1.19663 3.99159 1.13234 3.9909 1.09767 3.99069 1.09767 3.99069 1.0623 3.99048 1.02646 3.98993 1.02646 3.98993 0.989896 3.98937 0.965583 3.98918 0.94127 3.98898 0.916221 3.98878 0.856365 3.98827 0.796518 3.98756 0.736667 3.98667 0.736894 4.00545 0.737121 4.02423 0.737354 4.04358 0.738098 4.11401 0.738639 4.18443 0.739047 4.25486 0.739263 4.2852 0.739558 4.31554 0.739936 4.34588 0.745282 4.78677 0.745282 4.78677 0.628333 4.91833 0.480714 4.99767 0.345504 5.01738 0.180221 5.01484 0.158211 5.01485 0.136201 5.01486 0.113525 5.01488 0.0415389 5.01482-0.0304267 5.01415-0.102409 5.01346-0.152619 5.0133-0.20283 5.01318-0.253041 5.01309-0.384621 5.01276-0.516193 5.01191-0.64777 5.01095-0.782265 5.01006-0.91676 5.00967-1.05126 5.00923-1.31473 5.0083-1.5782 5.00683-1.84167 5.005-1.72623 4.87384-1.56388 4.84046-1.39447 4.82401-1.32469 4.8216-1.25516 4.82054-1.18534 4.82114-1.13929 4.82152-1.09327 4.82135-1.04721 4.82105-0.949564 4.8205-0.851921 4.82062-0.754271 4.82083-0.640689 4.82108-0.527122 4.82105-0.413543 4.82031-0.368581 4.82016-0.323642 4.82052-0.278682 4.8209-0.113745 4.82002 0.0285948 4.80828 0.173333 4.72333 0.353965 4.52881 0.33459 4.24536 0.334098 3.9975 0.334258 3.9594 0.334444 3.92129 0.334654 3.88319 0.335134 3.78023 0.335199 3.67727 0.335158 3.57431 0.335156 3.48816 0.335341 3.40201 0.335522 3.31586 0.335938 3.11256 0.336001 2.90926 0.335855 2.70596 0.335711 2.49661 0.336206 2.28726 0.33701 2.07791 0.337676 1.89776 0.337921 1.71762 0.337837 1.53747 0.337792 1.43005 0.337909 1.32264 0.338441 1.21522 0.338925 1.1142 0.338882 1.01319 0.338442 0.912175 0.338369 0.875231 0.338478 0.838286 0.338789 0.801343 0.340952 0.525134 0.298724 0.331649 0.101562 0.128646 0 0.0229319 0 0.0229319 0 0Z" fill="#FCFCFC" transform="matrix(1 0 0 1.0039 161.335 4.71781)"/><path d="M0 0C0.0853122-0.000628077 0.170624-0.00101388 0.255937-0.00135417 0.280194-0.00153571 0.304451-0.00171725 0.329443-0.0019043 0.364321-0.00200903 0.364321-0.00200903 0.399902-0.00211589 0.43207-0.00228608 0.43207-0.00228608 0.464886-0.00245972 0.52 0 0.52 0 0.585 0.0216667 0.676127 0.149245 0.699867 0.275022 0.697565 0.429102 0.697504 0.444788 0.697442 0.460474 0.697379 0.476636 0.697138 0.526302 0.696595 0.575961 0.696042 0.625625 0.695824 0.659479 0.695626 0.693333 0.695449 0.727188 0.694974 0.809795 0.694227 0.892396 0.693333 0.975 0.718219 0.973995 0.743104 0.972989 0.768743 0.971953 1.00293 0.965404 1.26557 0.959521 1.45167 1.12667 1.46521 1.17948 1.46521 1.17948 1.45167 1.235 1.24133 1.41837 0.955852 1.40833 0.693333 1.40833 0.693333 2.11618 0.693333 2.82403 0.693333 3.55333 0.864933 3.55333 1.03653 3.55333 1.21333 3.55333 1.38667 3.64 1.38667 3.64 1.43 3.68333 1.42753 3.8364 1.42753 3.8364 1.35958 3.90812 1.2618 3.96591 1.18614 3.99217 1.07208 3.9909 1.04994 3.99076 1.02781 3.99062 1.005 3.99048 0.970713 3.98993 0.970713 3.98993 0.935729 3.98937 0.91245 3.98918 0.88917 3.98898 0.865186 3.98878 0.807897 3.98827 0.750617 3.98756 0.693333 3.98667 0.694014 4.01185 0.694014 4.01185 0.694709 4.03754 0.71064 4.71583 0.71064 4.71583 0.606667 4.89667 0.464006 5.01074 0.280449 5.0113 0.106429 5.00992 0.085271 5.00993 0.0641129 5.00993 0.0423137 5.00994-0.027088 5.00991-0.0964846 5.00957-0.165885 5.00923-0.214215 5.00915-0.262544 5.00909-0.310874 5.00905-0.437679 5.00888-0.564482 5.00846-0.691286 5.00798-0.82084 5.00753-0.950394 5.00733-1.07995 5.00712-1.33386 5.00665-1.58776 5.00591-1.84167 5.005-1.78719 4.94893-1.74666 4.90794-1.6724 4.88177-1.65885 4.87677-1.6453 4.87177-1.63135 4.86662-1.47041 4.82358-1.31082 4.83018-1.14546 4.8326-1.08898 4.83308-1.0325 4.83355-0.976016 4.83399-0.887589 4.83477-0.799168 4.83569-0.710747 4.83701-0.624992 4.83828-0.539239 4.83883-0.453477 4.83937-0.414428 4.84014-0.414428 4.84014-0.37459 4.84093-0.174353 4.84154 0.00979623 4.81157 0.186796 4.71355 0.358986 4.52908 0.337665 4.26856 0.336902 4.03275 0.337091 3.99404 0.337315 3.95533 0.337573 3.91661 0.33815 3.81209 0.338179 3.70756 0.338069 3.60303 0.338022 3.51554 0.338234 3.42805 0.338441 3.34055 0.338921 3.13406 0.338942 2.92757 0.338679 2.72108 0.338417 2.50851 0.338952 2.29596 0.339874 2.08339 0.340639 1.90041 0.340897 1.71743 0.340756 1.53445 0.340678 1.42537 0.34079 1.3163 0.341394 1.20722 0.341941 1.10463 0.341853 1.00206 0.341289 0.899479 0.341187 0.861985 0.341304 0.824489 0.341663 0.786997 0.343928 0.532112 0.309513 0.35149 0.139648 0.151497 0.123058 0.136359 0.106468 0.121222 0.089375 0.105625 0.0594045 0.0778305 0.0295522 0.0499055 0 0.0216667 0 0.0145167 0 0.00736667 0 0Z" fill="#FAFAFA" transform="matrix(1 0 0 1.0039 153.275 4.71781)"/><path d="M0 0C0.0147469-0.000307227 0.0294938-0.000614453 0.0446875-0.00093099 0.0866667 0.0040625 0.0866667 0.0040625 0.151667 0.0473958 0.13826 0.0527583 0.124854 0.0581208 0.111042 0.0636458 0.0553371 0.0964132 0.0492578 0.119974 0.0216667 0.177396-0.011219 0.226942-0.045191 0.275615-0.0793034 0.324323-0.136164 0.418483-0.133217 0.511823-0.133189 0.619376-0.133268 0.635577-0.133348 0.651778-0.13343 0.66847-0.133669 0.722789-0.133752 0.777107-0.133835 0.831427-0.133971 0.870365-0.134115 0.909303-0.134266 0.948241-0.134722 1.07616-0.134947 1.20407-0.135163 1.33199-0.13525 1.37607-0.13534 1.42014-0.13543 1.46421-0.135843 1.67132-0.136151 1.87842-0.136332 2.08552-0.136544 2.32438-0.137114 2.56323-0.137989 2.80209-0.138644 2.98683-0.138964 3.17158-0.139036 3.35632-0.139086 3.4666-0.13928 3.57688-0.139826 3.68716-0.140331 3.79098-0.140421 3.8948-0.140199 3.99862-0.140188 4.03661-0.140325 4.07461-0.140623 4.1126-0.143836 4.43436-0.143836 4.43436 0 4.71521 0.262627 4.85199 0.559495 4.82016 0.846354 4.81542 1.37343 4.80748 1.37343 4.80748 1.61814 4.83234 1.64284 4.83478 1.64284 4.83478 1.66804 4.83727 1.83441 4.85672 1.96345 4.91157 2.08 5.03073 1.78807 5.03324 1.49615 5.03516 1.20422 5.03634 1.06866 5.03691 0.933117 5.03767 0.797567 5.0389 0.666776 5.04008 0.535991 5.04073 0.405195 5.04101 0.355272 5.04121 0.305349 5.0416 0.255429 5.04218 0.185549 5.04297 0.115698 5.04308 0.0458142 5.04303 0.0147929 5.04361 0.0147929 5.04361-0.016855 5.04421-0.115076 5.04344-0.158892 5.04186-0.238758 4.98032-0.368777 4.8048-0.354626 4.62193-0.350729 4.41323-0.350403 4.3827-0.350106 4.35218-0.34984 4.32165-0.349078 4.24745-0.348011 4.17326-0.346667 4.09906-0.362901 4.10255-0.379135 4.10603-0.395861 4.10962-0.585216 4.14519-0.824679 4.14968-0.996667 4.05573-1.05938 4.01093-1.09655 3.98184-1.11524 3.90567-1.12135 3.82242-1.11107 3.78288-1.06302 3.71312-0.877756 3.58079-0.674235 3.5886-0.455 3.60073-0.41925 3.60788-0.3835 3.61503-0.346667 3.6224-0.346667 2.9217-0.346667 2.221-0.346667 1.49906-0.518267 1.49906-0.689867 1.49906-0.866667 1.49906-1.04 1.43406-1.04 1.43406-1.105 1.36906-1.11496 1.30043-1.12066 1.26092-1.105 1.19573-1.01501 1.09717-0.921546 1.04861-0.787839 1.04067-0.721075 1.0398-0.654469 1.04029-0.587708 1.04135-0.564527 1.04155-0.541345 1.04175-0.517461 1.04195-0.460524 1.04245-0.403598 1.04317-0.346667 1.04406-0.347007 1.02277-0.347347 1.00147-0.347698 0.979533-0.348884 0.899703-0.349624 0.819873-0.350237 0.740036-0.350562 0.705638-0.351004 0.67124-0.35157 0.636844-0.357404 0.273227-0.357404 0.273227-0.281667 0.112396-0.193399 0.0388392-0.114835 0.00108745 0 0Z" fill="#F8F8F8" transform="matrix(1 0 0 1.0039 148.292 4.69198)"/><path d="M0 0C-0.00787617 0.00999883-0.0157523 0.0199977-0.0238672 0.0302995-0.0467351 0.0599691-0.0691579 0.0899851-0.0912154 0.120262-0.115122 0.152975-0.139612 0.18528-0.165011 0.216848-0.290193 0.391405-0.278073 0.57363-0.276134 0.778767-0.276239 0.817903-0.2764 0.857039-0.276613 0.896175-0.277019 1.00196-0.276614 1.10773-0.276035 1.21352-0.275543 1.32453-0.275723 1.43555-0.275808 1.54656-0.275846 1.73298-0.275367 1.91939-0.274568 2.1058-0.273651 2.32089-0.273498 2.53596-0.273769 2.75105-0.274016 2.95848-0.27377 3.1659-0.273285 3.37333-0.273084 3.46136-0.273045 3.5494-0.273137 3.63743-0.273219 3.74124-0.272864 3.84504-0.272181 3.94885-0.271998 3.98679-0.271959 4.02474-0.272081 4.06269-0.277572 4.38672-0.277572 4.38672-0.143514 4.6734-0.0405202 4.76735 0.077963 4.794 0.213614 4.79256 0.238149 4.79242 0.262683 4.79228 0.287961 4.79213 0.314233 4.79177 0.340504 4.79141 0.367572 4.79104 0.394991 4.79088 0.42241 4.79071 0.45066 4.79054 0.553002 4.78993 0.655337 4.78893 0.757675 4.78788 1.67062 4.77873 1.67062 4.77873 1.95 4.96167 1.95715 4.97597 1.9643 4.99027 1.97167 5.005 1.68257 5.00651 1.39346 5.00766 1.10436 5.00837 0.97012 5.00871 0.835882 5.00917 0.701643 5.0099 0.572117 5.01061 0.442593 5.011 0.313065 5.01117 0.263626 5.01129 0.214187 5.01152 0.16475 5.01187 0.0955495 5.01234 0.0263601 5.01241-0.0428414 5.01238-0.0633196 5.01261-0.0837979 5.01285-0.104897 5.01309-0.20962 5.01259-0.284971 5.01103-0.368333 4.94-0.438428 4.80482-0.457804 4.68733-0.457116 4.53671-0.457046 4.50969-0.456976 4.48267-0.456904 4.45483-0.456632 4.41279-0.456632 4.41279-0.456354 4.3699-0.456256 4.34145-0.456159 4.313-0.456058 4.28369-0.455803 4.21357-0.455447 4.14345-0.455 4.07333-0.471461 4.07682-0.487922 4.0803-0.504882 4.08389-0.699848 4.12094-0.922696 4.11275-1.105 4.03-1.18244 3.9742-1.21025 3.91758-1.22687 3.82281-1.20934 3.7264-1.18304 3.69853-1.105 3.64-0.916213 3.53471-0.660717 3.55552-0.455 3.59667-0.455 2.89597-0.455 2.19527-0.455 1.47333-0.63375 1.47333-0.8125 1.47333-0.996667 1.47333-1.17 1.38667-1.17 1.38667-1.21333 1.32167-1.22281 1.25937-1.22281 1.25937-1.21333 1.19167-1.14391 1.1012-1.06274 1.0481-0.953333 1.01833-0.866914 1.01076-0.781351 1.01217-0.694687 1.01427-0.660062 1.01471-0.660062 1.01471-0.624736 1.01516-0.568146 1.01592-0.511579 1.01699-0.455 1.01833-0.45534 0.999348-0.455681 0.980363-0.456032 0.960802-0.457152 0.889083-0.45796 0.817373-0.458571 0.745649-0.458894 0.714847-0.459334 0.684046-0.459904 0.653248-0.468506 0.175237-0.468506 0.175237-0.337187 0.0270833-0.224698-0.0123867-0.117986-0.00687295 0 0Z" fill="#F4F4F4" transform="matrix(1 0 0 1.0039 140.34 4.71781)"/><path d="M0 0C-0.00812754 0.0107529-0.0162551 0.0215059-0.0246289 0.0325846-0.047837 0.0633924-0.0709658 0.0942601-0.0940299 0.125176-0.116254 0.15493-0.138625 0.184577-0.16123 0.214043-0.170587 0.226528-0.179943 0.239012-0.189583 0.251875-0.197962 0.262879-0.206341 0.273884-0.214974 0.285221-0.277473 0.391651-0.28717 0.494218-0.287607 0.615683-0.28772 0.631402-0.287834 0.647121-0.287951 0.663316-0.288274 0.715752-0.288291 0.768183-0.288305 0.82062-0.28847 0.858321-0.288653 0.896023-0.288852 0.933724-0.289327 1.03603-0.289518 1.13832-0.289628 1.24063-0.289707 1.30466-0.289842 1.36869-0.289996 1.43272-0.290527 1.65647-0.29081 1.88021-0.290887 2.10396-0.290965 2.3119-0.291612 2.51984-0.29252 2.72779-0.293275 2.90674-0.293607 3.08569-0.293622 3.26464-0.293639 3.37133-0.293825 3.47801-0.294445 3.58469-0.295016 3.68523-0.295058 3.78575-0.294713 3.88629-0.294674 3.92295-0.294816 3.9596-0.295164 3.99625-0.299231 4.37114-0.299231 4.37114-0.137292 4.69606-0.0943453 4.72391-0.0943453 4.72391-0.0216667 4.745-0.00414079 4.75262 0.0133851 4.76025 0.0314421 4.76811 0.14615 4.79828 0.257725 4.79275 0.375781 4.79104 0.414823 4.7908 0.414823 4.7908 0.454654 4.79054 0.565617 4.78984 0.676573 4.78863 0.787533 4.78744 0.868754 4.78665 0.949974 4.78613 1.0312 4.78562 1.05576 4.78527 1.08033 4.78491 1.10564 4.78454 1.39625 4.78279 1.71191 4.80019 1.95 4.98333 1.95 4.99048 1.95 4.99763 1.95 5.005 1.66655 5.006 1.3831 5.00677 1.09964 5.00725 0.968027 5.00747 0.836412 5.00778 0.704796 5.00827 0.577798 5.00874 0.450802 5.009 0.323803 5.00911 0.275332 5.00919 0.226862 5.00935 0.178391 5.00958 0.110542 5.0099 0.0426974 5.00994-0.0251526 5.00992-0.0552622 5.01015-0.0552622 5.01015-0.08598 5.01039-0.261449 5.00983-0.261449 5.00983-0.346667 4.96167-0.375443 4.91783-0.375443 4.91783-0.395417 4.86688-0.402232 4.85017-0.409046 4.83347-0.416068 4.81626-0.449293 4.72082-0.457578 4.64052-0.457116 4.53883-0.457046 4.51174-0.456976 4.48464-0.456904 4.45673-0.456632 4.41442-0.456632 4.41442-0.456354 4.37125-0.456256 4.34271-0.456159 4.31416-0.456058 4.28475-0.455803 4.21428-0.455446 4.14381-0.455 4.07333-0.471234 4.07682-0.487468 4.0803-0.504194 4.08389-0.689871 4.11877-0.938304 4.12767-1.105 4.03-1.17926 3.97193-1.21035 3.917-1.22687 3.82281-1.20934 3.7264-1.18304 3.69853-1.105 3.64-0.916213 3.53471-0.660717 3.55552-0.455 3.59667-0.455 2.89597-0.455 2.19527-0.455 1.47333-0.63375 1.47333-0.8125 1.47333-0.996667 1.47333-1.17 1.38667-1.17 1.38667-1.21333 1.32167-1.22281 1.25937-1.22281 1.25937-1.21333 1.19167-1.14391 1.1012-1.06274 1.0481-0.953333 1.01833-0.866914 1.01076-0.781351 1.01217-0.694687 1.01427-0.660062 1.01471-0.660062 1.01471-0.624736 1.01516-0.568146 1.01592-0.511579 1.01699-0.455 1.01833-0.45534 0.997809-0.455681 0.977284-0.456032 0.956137-0.457148 0.879008-0.457959 0.801888-0.458571 0.724754-0.458895 0.691555-0.459336 0.658356-0.459904 0.62516-0.467478 0.170104-0.467478 0.170104-0.337187 0.0297917-0.224903-0.0135463-0.118918-0.00692728 0 0Z" fill="#F9F9F9" transform="matrix(1 0 0 1.0039 156.482 4.71781)"/><path d="M0 0C0.0761661 0.035568 0.12043 0.0744783 0.176042 0.138125 0.190844 0.154827 0.205647 0.171529 0.220898 0.188737 0.298036 0.286578 0.30965 0.361981 0.308982 0.485074 0.309106 0.509334 0.309106 0.509334 0.309233 0.534085 0.309457 0.588308 0.30937 0.642527 0.309284 0.69675 0.309378 0.735616 0.309491 0.774481 0.30962 0.813347 0.30991 0.91895 0.309922 1.02455 0.309868 1.13016 0.309844 1.2183 0.30995 1.30644 0.310054 1.39458 0.310295 1.60253 0.310304 1.81048 0.310173 2.01843 0.310042 2.23297 0.310309 2.44751 0.31077 2.66206 0.311152 2.84623 0.311282 3.0304 0.311211 3.21458 0.311172 3.32459 0.311229 3.43459 0.31153 3.5446 0.311803 3.64807 0.311761 3.75153 0.311478 3.855 0.311427 3.89296 0.311486 3.93092 0.311665 3.96888 0.311891 4.02073 0.311716 4.07257 0.311441 4.12442 0.311601 4.13941 0.311761 4.1544 0.311926 4.16985 0.310825 4.26864 0.2901 4.33604 0.238333 4.42 0.134277 4.49941 0.0305941 4.50956-0.0971985 4.50844-0.120503 4.5083-0.143808 4.50816-0.167818 4.50801-0.205363 4.50764-0.205363 4.50764-0.243665 4.50726-0.297225 4.50698-0.350786 4.50672-0.404346 4.50645-0.488346 4.50592-0.572344 4.50532-0.656342 4.50459-0.737707 4.50393-0.81907 4.50355-0.900436 4.5032-0.925071 4.5029-0.949706 4.50261-0.975087 4.50231-1.27411 4.5014-1.53163 4.54484-1.79833 4.68-1.80721 4.66774-1.8161 4.65548-1.82525 4.64285-1.83692 4.62695-1.8486 4.61106-1.86063 4.59469-1.87797 4.57093-1.87797 4.57093-1.89566 4.5467-1.92574 4.50426-1.92574 4.50426-1.97167 4.485-1.95 4.42-1.95 4.42-1.91277 4.39636-1.74124 4.3259-1.56679 4.30507-1.38396 4.28594-1.3676 4.2841-1.35125 4.28226-1.3344 4.28037-1.14877 4.25954-0.964004 4.2442-0.777207 4.24023-0.753594 4.23972-0.753594 4.23972-0.729503 4.23919-0.654626 4.23777-0.579854 4.2372-0.504967 4.23781-0.344171 4.23675-0.231593 4.22555-0.108333 4.11667-0.0060195 4.01094 0.00641618 3.87758 0.00521103 3.73631 0.00526657 3.71225 0.00526657 3.71225 0.00532323 3.68771 0.00539435 3.63422 0.00515665 3.58073 0.00491943 3.52723 0.00490721 3.48879 0.00491408 3.45035 0.00493861 3.41191 0.00495103 3.3077 0.00469638 3.2035 0.00439374 3.0993 0.00412272 2.99034 0.00409738 2.88138 0.00404597 2.77242 0.00391132 2.56616 0.00355577 2.3599 0.00312083 2.15365 0.00263635 1.9188 0.00239818 1.68395 0.00218069 1.4491 0.00172783 0.966068 0.000965704 0.483034 0 0Z" fill="#FBFBFB" transform="matrix(1 0 0 1.0039 145.042 4.87007)"/><path d="M0 0C0.0707438 0.0333531 0.112773 0.0661709 0.163854 0.125937 0.176395 0.140377 0.188935 0.154817 0.201855 0.169694 0.28569 0.277648 0.311468 0.346002 0.311587 0.484774 0.311689 0.500655 0.31179 0.516536 0.311895 0.532898 0.312153 0.586007 0.311949 0.639103 0.311744 0.692212 0.311832 0.730335 0.311948 0.768458 0.312089 0.80658 0.312386 0.910084 0.312271 1.01358 0.312064 1.11709 0.3119 1.22549 0.312053 1.3339 0.312155 1.4423 0.312273 1.62444 0.312117 1.80658 0.311807 1.98872 0.311454 2.19904 0.311568 2.40936 0.311926 2.61968 0.312222 2.8004 0.312263 2.98111 0.312093 3.16183 0.311992 3.2697 0.311977 3.37756 0.312193 3.48543 0.312381 3.58694 0.312249 3.68845 0.311874 3.78996 0.311789 3.82712 0.311813 3.86429 0.311956 3.90145 0.313206 4.25711 0.313206 4.25711 0.238333 4.42 0.143076 4.50022 0.0342279 4.50953-0.08691 4.50878-0.107976 4.50871-0.129041 4.50864-0.150746 4.50857-0.173337 4.50839-0.195929 4.50821-0.219206 4.50802-0.25461 4.5079-0.25461 4.5079-0.290729 4.50777-0.391373 4.50742-0.492016 4.50682-0.592659 4.50622-1.21568 4.48946-1.21568 4.48946-1.79833 4.68-1.8054 4.66981-1.81247 4.65961-1.81975 4.64911-1.82921 4.63562-1.83868 4.62213-1.84844 4.60823-1.85774 4.59491-1.86704 4.58158-1.87662 4.56786-1.90578 4.52949-1.93683 4.49654-1.97167 4.46333-1.78459 4.32971-1.591 4.31389-1.36906 4.28865-1.35253 4.28671-1.33601 4.28477-1.31898 4.28277-1.03518 4.24987-0.753122 4.23543-0.467457 4.23591-0.259539 4.23794-0.259539 4.23794-0.0866667 4.13833 0.0343034 3.96862 0.0115869 3.75722 0.00983887 3.55921 0.00981439 3.52033 0.0098282 3.48145 0.00987722 3.44257 0.009902 3.33747 0.0093938 3.23238 0.00878747 3.12729 0.00824432 3.01729 0.00819467 2.90729 0.00809194 2.79729 0.00782298 2.58919 0.00711231 2.3811 0.00624165 2.173 0.00527168 1.936 0.00479611 1.699 0.00436138 1.46201 0.00345641 0.974669 0.00193279 0.487334 0 0Z" fill="#FCFCFC" transform="matrix(1 0 0 1.0039 161.183 4.87007)"/><path d="M0 0C0.0244316 0.0205979 0.048815 0.0412529 0.0731779 0.061932 0.0867615 0.0734281 0.100345 0.0849242 0.11434 0.0967687 0.157279 0.134997 0.191452 0.175298 0.224792 0.222083 0.235237 0.236495 0.245683 0.250907 0.256445 0.265755 0.308731 0.343657 0.30649 0.408428 0.306376 0.499593 0.306441 0.515522 0.306505 0.531451 0.306571 0.547863 0.30676 0.60152 0.306792 0.655175 0.306825 0.708832 0.306925 0.747194 0.307034 0.785556 0.307151 0.823918 0.307435 0.928362 0.307575 1.03281 0.307671 1.13725 0.307734 1.2025 0.307823 1.26775 0.30792 1.333 0.308216 1.53714 0.308426 1.74128 0.308509 1.94542 0.308606 2.18108 0.308986 2.41673 0.309614 2.65239 0.310083 2.8345 0.310301 3.01662 0.31033 3.19873 0.310353 3.30751 0.310481 3.41628 0.310868 3.52505 0.311225 3.62745 0.311272 3.72985 0.311082 3.83225 0.311065 3.86977 0.311159 3.90729 0.311373 3.94481 0.31165 3.99618 0.311521 4.04753 0.311296 4.0989 0.311558 4.12099 0.311558 4.12099 0.311825 4.14352 0.31067 4.25661 0.283969 4.33969 0.238333 4.44167 0.138297 4.52327 0.029285 4.53128-0.096167 4.52976-0.119262 4.52955-0.142357 4.52934-0.166151 4.52912-0.190977 4.52881-0.215802 4.52849-0.24138 4.52816-0.294644 4.52778-0.347908 4.52742-0.401172 4.52706-0.484597 4.5264-0.568017 4.52563-0.651439 4.52462-1.21203 4.50384-1.21203 4.50384-1.73333 4.68-1.75478 4.68715-1.77623 4.6943-1.79833 4.70167-1.81166 4.68365-1.81166 4.68365-1.82525 4.66527-1.83692 4.64958-1.8486 4.63388-1.86063 4.61771-1.87219 4.60212-1.88375 4.58654-1.89566 4.57048-1.92831 4.52655-1.92831 4.52655-1.97167 4.485-1.81747 4.3809-1.67227 4.35078-1.48958 4.32792-1.46492 4.32445-1.44026 4.32099-1.41485 4.31742-1.19241 4.28712-0.97087 4.26865-0.7464 4.26452-0.718763 4.26401-0.691127 4.26349-0.662653 4.26296-0.605951 4.26202-0.549244 4.26135-0.492536 4.26093-0.273322 4.26078-0.273322 4.26078-0.0866667 4.16-0.0136522 4.05058 0.0126301 3.97047 0.0104221 3.83792 0.0105331 3.81318 0.0105331 3.81318 0.0106465 3.78793 0.0107885 3.733 0.0103137 3.67809 0.00983887 3.62316 0.00981441 3.58365 0.00982817 3.54414 0.00987722 3.50462 0.00990205 3.3976 0.00939306 3.29058 0.00878747 3.18356 0.00824512 3.07162 0.00819474 2.95968 0.00809194 2.84775 0.00782274 2.63589 0.00711175 2.42403 0.00624165 2.21217 0.00527242 1.97093 0.00479629 1.72969 0.00436138 1.48845 0.00345587 0.992296 0.00193179 0.496148 0 0Z" fill="#F9F9F9" transform="matrix(1 0 0 1.0039 153.123 4.84832)"/><path d="M0 0C7.17199e-05 0.0195648 0.00014344 0.0391297 0.000217333 0.0592874 0.00197872 0.535806 0.00397452 1.01232 0.00622975 1.48884 0.00731475 1.71928 0.00832103 1.94972 0.00914062 2.18017 0.00985536 2.38107 0.0107192 2.58197 0.0117605 2.78287 0.0123064 2.8892 0.0127788 2.99553 0.0130725 3.10187 0.0133516 3.20206 0.0138308 3.30225 0.01446 3.40244 0.0146556 3.43911 0.0147797 3.47577 0.0148246 3.51244 0.0150898 3.69587 0.016718 3.87313 0.065 4.05167 0.0507 4.05167 0.0364 4.05167 0.0216667 4.05167 0.0168069 4.06362 0.0119471 4.07557 0.0069401 4.08789-0.0304168 4.15376-0.0785451 4.19931-0.132708 4.25208-0.152427 4.27141-0.172145 4.29074-0.192461 4.31065-0.207599 4.32529-0.222737 4.33992-0.238333 4.355-0.316576 4.27676-0.306261 4.19768-0.306814 4.0921-0.306924 4.07626-0.307034 4.06042-0.307148 4.04409-0.307489 3.99085-0.307673 3.93761-0.307856 3.88437-0.308063 3.84626-0.308277 3.80814-0.308498 3.77003-0.309179 3.6447-0.309618 3.51938-0.31002 3.39405-0.310091 3.37272-0.310162 3.3514-0.310236 3.32942-0.310903 3.12826-0.311482 2.9271-0.311848 2.72594-0.312323 2.46872-0.313232 2.21151-0.31474 1.9543-0.315764 1.7734-0.316289 1.5925-0.316446 1.4116-0.316553 1.30358-0.316879 1.19558-0.31774 1.08756-0.318541 0.985869-0.318721 0.884194-0.318434 0.782499-0.318435 0.745266-0.318657 0.708032-0.319122 0.670801-0.321516 0.468022-0.31991 0.307841-0.173333 0.151667-0.158447 0.134434-0.14356 0.117201-0.128223 0.0994466-0.109663 0.0817252-0.109663 0.0817252-0.0907292 0.0636458-0.078077 0.0513288-0.0654249 0.0390118-0.0523893 0.0263216-0.0216667 0-0.0216667 0 0 0Z" fill="#FAFAFA" transform="matrix(1 0 0 1.0039 140.535 4.82657)"/><path d="M0 0C9.1692e-05 0.0197165 0.000183384 0.0394329 0.000277855 0.0597468 0.00251697 0.539685 0.00487091 1.01962 0.00735235 1.49956 0.0085496 1.73165 0.0097081 1.96375 0.0107751 2.19584 0.0117054 2.39816 0.0127086 2.60047 0.013799 2.80279 0.0143738 2.90989 0.0149122 3.017 0.0153633 3.1241 0.0157892 3.22497 0.0163129 3.32584 0.0169106 3.42671 0.0171126 3.46367 0.0172793 3.50063 0.0174074 3.53759 0.0175882 3.5882 0.017898 3.6388 0.0182386 3.68941 0.0183784 3.71769 0.0185182 3.74597 0.0186623 3.77511 0.0208948 3.83571 0.0260997 3.89075 0.0350576 3.9503 0.0433333 4.03 0.0433333 4.03 0.00583984 4.08577-0.0117279 4.10088-0.0292957 4.11599-0.0473958 4.13156-0.0653826 4.14771-0.0833693 4.16385-0.101901 4.18048-0.118324 4.19517-0.134746 4.20986-0.151667 4.225-0.169095 4.2469-0.186523 4.26879-0.204479 4.29135-0.215651 4.30521-0.226823 4.31906-0.238333 4.33333-0.252633 4.33333-0.266933 4.33333-0.281667 4.33333-0.307403 4.25207-0.306369 4.17447-0.306814 4.08964-0.306924 4.0738-0.307034 4.05795-0.307148 4.04162-0.307488 3.9885-0.307673 3.93538-0.307856 3.88226-0.308063 3.84417-0.308277 3.80609-0.308498 3.76801-0.309178 3.6429-0.309617 3.5178-0.31002 3.3927-0.310091 3.3714-0.310162 3.3501-0.310236 3.32815-0.310903 3.1272-0.311481 2.92624-0.311848 2.72528-0.312323 2.46847-0.313232 2.21166-0.31474 1.95485-0.315764 1.77415-0.316289 1.59346-0.316446 1.41276-0.316553 1.3049-0.316878 1.19705-0.31774 1.08919-0.318541 0.987639-0.318721 0.886107-0.318434 0.784554-0.318435 0.747399-0.318656 0.710244-0.319122 0.673092-0.321582 0.465359-0.316051 0.295292-0.173333 0.13-0.0443675 0-0.0443675 0 0 0Z" fill="#FCFCFC" transform="matrix(1 0 0 1.0039 156.677 4.82657)"/><path d="M0 0C0.000137538 0.0291798 0.000137538 0.0291798 0.000277855 0.058949 0.00251821 0.532755 0.00487233 1.00656 0.00735235 1.48036 0.00854895 1.7095 0.00970735 1.93863 0.0107751 2.16776 0.0117062 2.36752 0.0127095 2.56728 0.013799 2.76704 0.0143732 2.87276 0.0149116 2.97849 0.0153633 3.08421 0.01579 3.18384 0.016314 3.28346 0.0169106 3.38308 0.0171122 3.41954 0.017279 3.45599 0.0174074 3.49245 0.017589 3.54247 0.0178737 3.59249 0.0182386 3.64251 0.0183391 3.65776 0.0184396 3.67302 0.0185432 3.68874 0.0197957 3.78967 0.0277083 3.88772 0.0445606 3.98723 0.0424134 4.06206-0.00441526 4.10557-0.0548861 4.15687-0.0685018 4.16952-0.0821175 4.18217-0.0961458 4.19521-0.109678 4.2087-0.12321 4.22219-0.137152 4.23609-0.170356 4.26904-0.204277 4.30126-0.238333 4.33333-0.319463 4.2522-0.306157 4.1589-0.306522 4.04849-0.306602 4.03287-0.306681 4.01726-0.306763 4.00118-0.307002 3.94885-0.307086 3.89653-0.307168 3.8442-0.307304 3.80669-0.307448 3.76918-0.3076 3.73166-0.308055 3.60846-0.30828 3.48526-0.308496 3.36206-0.308584 3.31962-0.308673 3.27718-0.308764 3.23474-0.309176 3.03537-0.309485 2.836-0.309665 2.63662-0.309877 2.40658-0.310447 2.17654-0.311323 1.9465-0.311976 1.76862-0.312297 1.59074-0.312369 1.41286-0.31242 1.30665-0.312614 1.20045-0.313159 1.09424-0.313664 0.99429-0.313755 0.894351-0.313532 0.794403-0.313522 0.75779-0.313658 0.721176-0.313956 0.684564-0.315621 0.467565-0.313091 0.309089-0.166309 0.135417-0.149411 0.119329-0.132514 0.103242-0.115104 0.0866667-0.0895066 0.0618651-0.0895066 0.0618651-0.0633919 0.0365625-0.0216667 0-0.0216667 0 0 0Z" fill="#F8F8F8" transform="matrix(1 0 0 1.0039 148.617 4.82657)"/><path d="M0 0C0.0323007 0.000586523 0.0323007 0.000586523 0.0652539 0.0011849 0.0817045 0.00168763 0.0981551 0.00219036 0.115104 0.00270833 0.179166 0.144179 0.187767 0.259978 0.180104 0.414375 0.10924 0.422263 0.0802549 0.420731 0.0221745 0.37722 0.00547253 0.361328-0.0112294 0.345436-0.0284375 0.329062-0.142677 0.231511-0.235581 0.214884-0.383229 0.219375-0.444942 0.382105-0.472259 0.543846-0.448229 0.717708-0.423003 0.769279-0.423003 0.769279-0.383229 0.804375-0.292838 0.819696-0.241987 0.823931-0.163092 0.775853-0.133683 0.75304-0.104874 0.729422-0.076849 0.704928-0.032637 0.671398-0.00540401 0.65615 0.0501042 0.652708 0.0875977 0.672428 0.0875977 0.672428 0.115104 0.717708 0.120997 0.780507 0.12319 0.837887 0.121875 0.900521 0.121945 0.917069 0.122015 0.933617 0.122087 0.950667 0.121281 1.03478 0.120118 1.10048 0.0717708 1.17271-0.0379235 1.16303-0.0869952 1.11343-0.166562 1.04271-0.226601 1.01269-0.273454 1.01697-0.339896 1.02104-0.361346 1.03534-0.382796 1.04964-0.404896 1.06438-0.415026 1.1256-0.415026 1.1256-0.413529 1.19751-0.413612 1.22425-0.413696 1.25099-0.413783 1.27854-0.413531 1.30663-0.41328 1.33471-0.413021 1.36365-0.413272 1.39148-0.413524 1.41931-0.413783 1.44799-0.413657 1.48822-0.413657 1.48822-0.413529 1.52928-0.413455 1.55385-0.413382 1.57842-0.413306 1.60374-0.40398 1.67837-0.38448 1.71937-0.339896 1.77937-0.270015 1.81432-0.199003 1.81113-0.123229 1.80104-0.0756136 1.78244-0.0325256 1.76061 0.0119336 1.73545 0.0501042 1.71438 0.0501042 1.71438 0.115104 1.69271 0.139483 1.653 0.139483 1.653 0.158438 1.60604 0.172882 1.57715 0.187326 1.54826 0.201771 1.51937 0.237521 1.51937 0.273271 1.51937 0.310104 1.51937 0.37595 1.64558 0.382776 1.74649 0.375104 1.88771 0.234479 1.90855 0.0969427 1.91318-0.0451107 1.91378-0.0682761 1.9139-0.0914414 1.91402-0.115309 1.91415-0.163982 1.91435-0.212655 1.9145-0.261328 1.91458-0.335976 1.91479-0.410612 1.91547-0.485257 1.91615-0.532639 1.91629-0.580021 1.9164-0.627402 1.91648-0.649746 1.91675-0.672089 1.91702-0.69511 1.91729-0.715801 1.91723-0.736492 1.91716-0.75781 1.9171-0.776003 1.91718-0.794196 1.91726-0.812941 1.91734-0.870706 1.90754-0.890101 1.89078-0.924896 1.84438-0.927604 1.79562-0.927604 1.79562-0.903229 1.73604-0.878097 1.7148-0.852641 1.69393-0.826989 1.67332-0.737826 1.58559-0.733558 1.51163-0.732156 1.38995-0.732667 1.36521-0.733178 1.34047-0.733704 1.31498-0.733714 1.28916-0.733723 1.26333-0.733732 1.23672-0.733913 1.18225-0.734464 1.12778-0.73536 1.07332-0.736661 0.990238-0.736694 0.907228-0.73654 0.824137-0.736874 0.771084-0.73728 0.718032-0.737767 0.66498-0.737795 0.640285-0.737824 0.615589-0.737853 0.590145-0.740893 0.443149-0.758758 0.344272-0.838229 0.219375-0.852529 0.212225-0.866829 0.205075-0.881562 0.197708-0.881562 0.154808-0.881562 0.111908-0.881562 0.0677083-0.8609 0.0672789-0.840237 0.0668495-0.818948 0.0664071-0.742263 0.0647584-0.665586 0.0628363-0.588909 0.0608317-0.555727 0.0600024-0.522542 0.0592472-0.489357 0.0585677-0.441645 0.0575779-0.393947 0.0563215-0.346244 0.055013-0.331413 0.0547627-0.316583 0.0545125-0.301303 0.0542546-0.18714 0.0507127-0.115664-0.0027215 0 0Z" fill="#262223" transform="matrix(1 0 0 1.0039 143.973 5.69389)"/><path d="M0 0C0.100574 0.172862 0.104948 0.303588 0.065 0.498333 0.0164193 0.505104 0.0164193 0.505104-0.0433333 0.498333-0.0881901 0.450938-0.0881901 0.450938-0.132708 0.39-0.203085 0.304886-0.203085 0.304886-0.303164 0.266517-0.408552 0.261055-0.408552 0.261055-0.498333 0.303333-0.511952 0.383668-0.515203 0.462495-0.479967 0.53735-0.399214 0.640823-0.287078 0.709502-0.180437 0.783634 0.0185106 0.923195 0.204034 1.08558 0.248574 1.33589 0.2576 1.49696 0.212156 1.63882 0.13 1.77667 0.0663732 1.84759-0.00116531 1.90725-0.0866667 1.95-0.132281 1.95185-0.177955 1.95232-0.223607 1.95212-0.250838 1.95205-0.27807 1.95198-0.306126 1.9519-0.334698 1.95172-0.36327 1.95154-0.392708 1.95135-0.421738 1.95125-0.450768 1.95115-0.479798 1.95106-0.550978 1.9508-0.622155 1.95044-0.693333 1.95-0.694599 1.85927-0.695364 1.76855-0.696042 1.67781-0.696405 1.65221-0.696768 1.62662-0.697142 1.60024-0.697872 1.47-0.695725 1.35759-0.65 1.235-0.585 1.25667-0.585 1.25667-0.563429 1.29554-0.557197 1.31212-0.550965 1.3287-0.544544 1.34579-0.537422 1.3639-0.5303 1.38201-0.522962 1.40067-0.508454 1.4389-0.494009 1.47716-0.479629 1.51544-0.430009 1.64123-0.384797 1.71427-0.26 1.77667-0.175937 1.78215-0.113238 1.78327-0.0433333 1.73333 0.00674473 1.66823 0.00928827 1.59767 0.00660156 1.51692-0.0151592 1.37324-0.151687 1.27538-0.26 1.19167-0.294945 1.16777-0.329901 1.14388-0.365091 1.12034-0.526372 1.01244-0.688238 0.896905-0.748685 0.70332-0.778787 0.536965-0.794706 0.36101-0.702812 0.212604-0.617082 0.107228-0.540617 0.0515183-0.405911 0.0342773-0.355838 0.0304722-0.305692 0.0274962-0.255514 0.0254753-0.16685 0.019895-0.0932824-0.00172745 0 0Z" fill="#262324" transform="matrix(1 0 0 1.0039 160.577 5.71836)"/><path d="M0 0C0.26455 0 0.5291 0 0.801667 0 0.801667 0.0429 0.801667 0.0858 0.801667 0.13 0.764286 0.150454 0.726905 0.170907 0.689525 0.191361 0.645909 0.219286 0.617132 0.240733 0.585 0.281667 0.574811 0.341657 0.574811 0.341657 0.575902 0.41064 0.575385 0.45045 0.575385 0.45045 0.574857 0.491065 0.57483 0.520063 0.574826 0.549061 0.574844 0.57806 0.57469 0.607825 0.574523 0.637591 0.574344 0.667356 0.574052 0.729757 0.574019 0.792152 0.574145 0.854553 0.574273 0.934388 0.573611 1.01419 0.572735 1.09402 0.572174 1.15551 0.572112 1.217 0.572191 1.27849 0.572154 1.30791 0.571945 1.33733 0.571559 1.36675 0.560887 1.54465 0.560887 1.54465 0.636162 1.69627 0.69046 1.73147 0.739973 1.75728 0.801667 1.77667 0.801667 1.83387 0.801667 1.89107 0.801667 1.95 0.537117 1.95 0.272567 1.95 0 1.95 0 1.77667 0 1.77667 0.0371549 1.73833 0.0530469 1.73087 0.0689389 1.72341 0.0853125 1.71573 0.132648 1.69344 0.132648 1.69344 0.173333 1.66833 0.196291 1.59946 0.1983 1.54908 0.199179 1.47669 0.199527 1.45066 0.199875 1.42462 0.200234 1.39779 0.201197 1.27883 0.202096 1.15986 0.202585 1.04089 0.202874 0.978116 0.203478 0.915353 0.204363 0.85258 0.205433 0.776641 0.205968 0.700716 0.206122 0.62477 0.206337 0.581923 0.207079 0.539079 0.20783 0.496237 0.211576 0.337501 0.211576 0.337501 0.143256 0.200147 0.0890772 0.152167 0.0890772 0.152167 0.0365625 0.116458 0.0244969 0.106627 0.0124312 0.0967958 0 0.0866667 0 0.0580667 0 0.0294667 0 0Z" fill="#262223" transform="matrix(1 0 0 1.0039 151.347 5.74011)"/><path d="M0 0C0.1573 0 0.3146 0 0.476667 0 0.452819 0.0953903 0.43141 0.10706 0.357923 0.164806 0.303451 0.214762 0.276746 0.276926 0.249167 0.343958 0.24287 0.358798 0.236574 0.373637 0.230087 0.388926 0.153303 0.578804 0.108269 0.777948 0.0594246 0.976365 0.0153948 1.15049-0.0361023 1.32268-0.0866667 1.495-0.0910865 1.51017-0.0955064 1.52533-0.10006 1.54096-0.165652 1.76514-0.165652 1.76514-0.216667 1.84167-0.257836 1.83573-0.257836 1.83573-0.303333 1.82-0.330175 1.75929-0.350714 1.70306-0.369687 1.6399-0.374952 1.62357-0.380217 1.60725-0.385641 1.59043-0.415706 1.49529-0.441214 1.39956-0.464818 1.30262-0.537873 1.0056-0.639255 0.712512-0.761042 0.431979-0.767541 0.41667-0.77404 0.401361-0.780735 0.385588-0.824007 0.289726-0.876602 0.217707-0.949514 0.141812-0.975 0.108333-0.975 0.108333-0.975 0.0433333-0.7605 0.0433333-0.546 0.0433333-0.325 0.0433333-0.368333 0.195-0.368333 0.195-0.411667 0.26-0.426035 0.393709-0.387599 0.496669-0.339896 0.618854-0.329862 0.645646-0.329862 0.645646-0.319626 0.672979-0.283029 0.769362-0.24312 0.861979-0.195 0.953333-0.17355 0.953333-0.1521 0.953333-0.13 0.953333 0.0349316 0.619137 0.0349316 0.619137 0.0866667 0.26 0.0723667 0.23855 0.0580667 0.2171 0.0433333 0.195 0 0.13 0 0.13 0 0Z" fill="#262223" transform="matrix(1 0 0 1.0039 142.052 5.76186)"/><path d="M0 0C0.0388781 0.02145 0.0388781 0.02145 0.0785417 0.0433333 0.225526 0.10957 0.410325 0.116003 0.563333 0.065 0.799968 0.0634947 1.03767 0.0924688 1.27266 0.118123 1.30408 0.12149 1.33552 0.124688 1.36697 0.127706 1.57096 0.147563 1.73401 0.187902 1.90667 0.303333 1.89058 0.314952 1.87449 0.326571 1.85792 0.338542 1.7945 0.393307 1.7553 0.448896 1.71167 0.52 1.66063 0.500242 1.61029 0.480066 1.5611 0.456016 1.34441 0.351755 1.12719 0.34032 0.88932 0.339397 0.84387 0.339215 0.798428 0.338768 0.75298 0.338259 0.640396 0.337048 0.52781 0.33627 0.415223 0.335493 0.319431 0.334817 0.223644 0.33397 0.127857 0.332888 0.0830868 0.332453 0.0383204 0.332273-0.00645114 0.332101-0.0334407 0.331811-0.0604303 0.33152-0.0882377 0.331221-0.112057 0.331063-0.135876 0.330905-0.160416 0.330742-0.216667 0.325-0.216667 0.325-0.26 0.281667-0.1742 0.188717-0.0884 0.0957667 0 0Z" fill="#F8F8F8" transform="matrix(1 0 0 1.0039 156.807 9.02453)"/><path d="M0 0C0.0165344 0.00670312 0.0330688 0.0134062 0.0501042 0.0203125 0.147003 0.0586214 0.219369 0.0679272 0.323646 0.0677083 0.363488 0.0677921 0.363488 0.0677921 0.404134 0.0678776 0.472486 0.0677097 0.472486 0.0677097 0.520508 0.0537435 0.740736 0.000209695 1.02677 0.0726973 1.2507 0.0976461 1.28235 0.101126 1.31403 0.104471 1.34571 0.107674 1.53595 0.127139 1.69873 0.157083 1.86333 0.26 1.82575 0.34178 1.77702 0.392911 1.71167 0.455 1.69737 0.4693 1.68307 0.4836 1.66833 0.498333 1.64971 0.485034 1.63109 0.471734 1.6119 0.458031 1.30687 0.256605 0.878138 0.315489 0.528846 0.320312 0.401689 0.321965 0.274524 0.322768 0.147361 0.323681 0.103202 0.324063 0.0590481 0.324629 0.0148915 0.325232-0.0117467 0.325513-0.038385 0.325794-0.0658305 0.326084-0.100997 0.326549-0.100997 0.326549-0.136873 0.327022-0.195 0.325-0.195 0.325-0.26 0.303333-0.225622 0.218771-0.170441 0.16607-0.105625 0.102917-0.0859066 0.0835893-0.0661883 0.064262-0.0458724 0.044349-0.0307345 0.0297138-0.0155966 0.0150786 0 0Z" fill="#F7F6F6" transform="matrix(1 0 0 1.0039 140.687 9.04628)"/><path d="M0 0C0.0259187 0.010725 0.0518375 0.02145 0.0785417 0.0325 0.228133 0.0829989 0.412709 0.0935414 0.563333 0.0433333 0.758462 0.030264 0.955285 0.0604892 1.14875 0.0824772 1.1899 0.0870644 1.23107 0.0914314 1.27227 0.0955745 1.7119 0.139834 1.7119 0.139834 1.90667 0.281667 1.83444 0.353889 1.76222 0.426111 1.69 0.498333 1.67738 0.491267 1.66475 0.484201 1.65174 0.476921 1.63398 0.467452 1.61622 0.457984 1.59792 0.448229 1.58082 0.438929 1.56373 0.429628 1.54612 0.420046 1.32789 0.329962 1.11516 0.315453 0.881393 0.315436 0.850293 0.31518 0.819193 0.314891 0.788094 0.314569 0.707115 0.313793 0.626138 0.313349 0.545157 0.313019 0.414816 0.312476 0.28448 0.311623 0.154144 0.310378 0.108749 0.310024 0.0633591 0.309942 0.0179632 0.309879-0.00939021 0.309658-0.0367436 0.309438-0.0649259 0.30921-0.101134 0.309071-0.101134 0.309071-0.138073 0.30893-0.195 0.303333-0.195 0.303333-0.238333 0.26-0.222944 0.244862-0.207555 0.229724-0.191699 0.214128-0.171785 0.194409-0.151871 0.174691-0.131354 0.154375-0.101567 0.124965-0.101567 0.124965-0.0711784 0.0949609-0.0214093 0.0481688-0.0214093 0.0481688 0 0Z" fill="#F8F8F8" transform="matrix(1 0 0 1.0039 148.725 9.04628)"/><path d="M0 0C0.245848-0.0262627 0.245848-0.0262627 0.327031 0.0332617 0.361089 0.0783536 0.386883 0.122598 0.411667 0.173333 0.425073 0.197465 0.438479 0.221596 0.452292 0.246458 0.492855 0.377162 0.502197 0.490605 0.440104 0.614792 0.42357 0.63356 0.407035 0.652329 0.39 0.671667 0.3757 0.688648 0.3614 0.705629 0.346667 0.723125 0.243269 0.779132 0.136814 0.764945 0.0216667 0.758333-0.0323831 0.630962-0.0328385 0.503187-0.0379167 0.366979-0.0391176 0.343672-0.0403186 0.320365-0.041556 0.296351-0.0424777 0.273826-0.0433993 0.2513-0.044349 0.228092-0.0452078 0.207702-0.0460666 0.187312-0.0469515 0.166303-0.0429973 0.10295-0.0265219 0.0573103 0 0Z" fill="#FBFAFA" transform="matrix(1 0 0 1.0039 149.873 5.89237)"/><path d="M0 0C0.00715 0 0.0143 0 0.0216667 0 0.0216667 0.86515 0.0216667 1.7303 0.0216667 2.62167-0.0216667 2.62167-0.0216667 2.62167-0.0522201 2.59213-0.0640343 2.57819-0.0758486 2.56425-0.0880208 2.5499-0.108005 2.52635-0.108005 2.52635-0.128392 2.50233-0.150638 2.4756-0.150638 2.4756-0.173333 2.44833-0.190175 2.42828-0.207017 2.40823-0.224368 2.38757-0.433939 2.13526-0.433939 2.13526-0.432318 2.04538-0.406346 1.97992-0.377196 1.95863-0.319583 1.91885-0.190577 1.82405-0.0834626 1.72115-0.0433333 1.56-0.0208565 1.35827-0.0176438 1.15493-0.0148112 0.952148-0.0143609 0.924685-0.0139107 0.897221-0.0134468 0.868925-0.0122831 0.797049-0.0111907 0.725173-0.0101351 0.653295-0.00903292 0.579494-0.00783391 0.505694-0.00664388 0.431895-0.00434161 0.287931-0.00213349 0.143966 0 0Z" fill="#FBFBFB" transform="matrix(1 0 0 1.0039 150.718 4.82657)"/><path d="M0 0C0.0618387 0.0491898 0.0981431 0.0827494 0.110957 0.162331 0.114876 0.314036 0.114876 0.314036 0.0501042 0.395417 0.0317823 0.40927 0.0134604 0.423123-0.00541667 0.437396-0.0125667 0.444546-0.0197167 0.451696-0.0270833 0.459062-0.131417 0.470848-0.216825 0.474769-0.30875 0.421146-0.386007 0.334232-0.405615 0.274633-0.402272 0.154967-0.391079 0.0854576-0.359652 0.0508369-0.30875 0.0040625-0.199844-0.0561227-0.10902-0.0607994 0 0Z" fill="#F7F7F7" transform="matrix(1 0 0 1.0039 151.027 9.54247)"/><path d="M0 0C0.0627648 0.0477013 0.0951811 0.0820288 0.13 0.151667 0.144761 0.299278 0.144761 0.299278 0.107318 0.364525 0.0543561 0.428858 0.0143788 0.472201-0.0694857 0.482591-0.222584 0.488559-0.222584 0.488559-0.304688 0.426562-0.371081 0.334468-0.376038 0.263382-0.368333 0.151667-0.290948-0.0141587-0.168138-0.0248274 0 0Z" fill="#FAFAFA" transform="matrix(1 0 0 1.0039 159.06 9.5248)"/><path d="M0 0C0.0797907 0.0178527 0.116473 0.0559053 0.163939 0.120775 0.171089 0.127925 0.178239 0.135075 0.185605 0.142441 0.195558 0.235077 0.195205 0.314881 0.158522 0.401087 0.108393 0.460168 0.0633833 0.484578-0.0133724 0.496387-0.100023 0.497888-0.148655 0.496499-0.224707 0.451191-0.290029 0.379931-0.309048 0.340153-0.323561 0.244004-0.311117 0.152227-0.290134 0.107813-0.227077 0.0413021-0.153496-0.00658181-0.0858077-0.00525354 0 0Z" fill="#FAFAFA" transform="matrix(1 0 0 1.0039 142.863 9.51231)"/><path d="M0 0C0 0.6721 0 1.3442 0 2.03667-0.00715 2.03667-0.0143 2.03667-0.0216667 2.03667-0.0215686 2.00752-0.0215686 2.00752-0.0214686 1.97779-0.0209855 1.79418-0.021231 1.61058-0.0222834 1.42698-0.0227991 1.33259-0.0230384 1.23822-0.0226347 1.14384-0.022255 1.05265-0.0226163 0.961495-0.0234797 0.870313-0.0236802 0.835624-0.023619 0.800933-0.023285 0.766245-0.0162967 0.541607-0.0162967 0.541607-0.12005 0.349798-0.133887 0.337755-0.147725 0.325712-0.161981 0.313304-0.195 0.281667-0.195 0.281667-0.200417 0.215312-0.108794 0-0.108794 0 0 0Z" fill="#D5D4D4" transform="matrix(1 0 0 1.0039 158.8 7.11043)"/><path d="M0 0C0.02145 0 0.0429 0 0.065 0 0.15514 0.166437 0.185629 0.287319 0.173333 0.476667 0.0946833 0.476667 0.0160333 0.476667-0.065 0.476667-0.100409 0.299623-0.068866 0.16468 0 0Z" fill="#F0EFEF" transform="matrix(1 0 0 1.0039 158.8 6.43615)"/><path d="M0 0C0.00715 0 0.0143 0 0.0216667 0 0.0216667 0.86515 0.0216667 1.7303 0.0216667 2.62167 0.00736667 2.61452-0.00693333 2.60737-0.0216667 2.6-0.0216186 2.58793-0.0215704 2.57586-0.0215209 2.56342-0.021042 2.43795-0.0207149 2.31248-0.0204765 2.18701-0.0203674 2.14016-0.0202195 2.09331-0.0200321 2.04647-0.0197698 1.97919-0.0196465 1.91191-0.0195508 1.84463-0.019439 1.82364-0.0193271 1.80265-0.0192119 1.78102-0.0192103 1.7615-0.0192086 1.74199-0.019207 1.72188-0.0191588 1.7047-0.0191107 1.68753-0.0190612 1.66983-0.0199624 1.6207-0.0199624 1.6207-0.0433333 1.56-0.0415796 1.51437-0.0383427 1.46879-0.0342826 1.4233-0.0217158 1.26611-0.0170131 1.10978-0.0148112 0.952148-0.0143609 0.924685-0.0139107 0.897221-0.0134468 0.868925-0.0122831 0.797049-0.0111907 0.725173-0.0101351 0.653295-0.00903292 0.579494-0.00783391 0.505694-0.00664388 0.431895-0.00434161 0.287931-0.00213349 0.143966 0 0Z" fill="#E4E4E4" transform="matrix(1 0 0 1.0039 150.718 4.82657)"/></g></g></g></g></svg>