<svg width="960" height="302" xmlns="http://www.w3.org/2000/svg" xmlns:xlink="http://www.w3.org/1999/xlink" overflow="hidden"><defs><clipPath id="clip0"><rect x="0" y="0" width="960" height="302"/></clipPath><clipPath id="clip1"><rect x="25" y="73" width="152" height="175"/></clipPath><clipPath id="clip2"><rect x="25" y="73" width="152" height="175"/></clipPath><clipPath id="clip3"><rect x="25" y="73" width="152" height="175"/></clipPath></defs><g clip-path="url(#clip0)"><rect x="0" y="0" width="960" height="301.615" fill="#A41034"/><text fill="#FFFFFF" font-family="Aptos,Aptos_MSFontService,sans-serif" font-weight="700" font-size="53" transform="matrix(1 0 0 0.998724 189.089 112)">HARVARD KENNEDY SCHOOL</text><text fill="#FFFFFF" font-family="Arial,Arial_MSFontService,sans-serif" font-weight="700" font-size="43" transform="matrix(1 0 0 0.998724 194.423 164)">DPI</text><text fill="#FFFFFF" font-family="Arial,Arial_MSFontService,sans-serif" font-weight="700" font-size="43" transform="matrix(1 0 0 0.998724 265.603 164)">-</text><text fill="#FFFFFF" font-family="Arial,Arial_MSFontService,sans-serif" font-weight="700" font-size="43" transform="matrix(1 0 0 0.998724 279.772 164)">691M</text><text fill="#FFFFFF" font-family="Arial,Arial_MSFontService,sans-serif" font-weight="700" font-size="43" transform="matrix(1 0 0 0.998724 386.29 164)">B:</text><text fill="#FFFFFF" font-family="Arial,Arial_MSFontService,sans-serif" font-weight="700" font-size="43" transform="matrix(1 0 0 0.998724 443.133 164)">PROGRAMMING</text><text fill="#FFFFFF" font-family="Arial,Arial_MSFontService,sans-serif" font-weight="700" font-size="43" transform="matrix(1 0 0 0.998724 194.423 216)">AND</text><text fill="#FFFFFF" font-family="Arial,Arial_MSFontService,sans-serif" font-weight="700" font-size="43" transform="matrix(1 0 0 0.998724 298.775 216)">DATA</text><text fill="#FFFFFF" font-family="Arial,Arial_MSFontService,sans-serif" font-weight="700" font-size="43" transform="matrix(1 0 0 0.998724 421.21 216)">FOR POLICYMAKERS</text><g clip-path="url(#clip1)"><g clip-path="url(#clip2)"><g clip-path="url(#clip3)"><path d="M0 0C49.7781 0 99.5563 0 150.843 0 150.92 1.00624 150.988 1.98106 150.986 2.9851 150.986 3.17299 150.986 3.17299 150.988 3.36468 150.989 3.77929 150.989 4.19388 150.989 4.60849 150.99 4.90834 150.99 5.20819 150.992 5.50804 150.993 6.32143 150.994 7.13483 150.994 7.94822 150.994 8.4614 150.995 8.97458 150.995 9.48777 150.997 10.9219 150.998 12.356 150.999 13.7902 150.999 13.8818 150.999 13.9736 150.999 14.068 150.999 14.1598 150.999 14.2517 150.999 14.3463 150.999 14.5323 150.999 14.7183 150.999 14.9042 150.999 14.9966 150.999 15.0888 150.999 15.1838 150.999 16.5656 151.002 17.9474 151.004 19.3292 151.019 27.255 151.036 35.1737 150.605 43.0908 150.584 43.4621 150.566 43.8335 150.545 44.2049 149.874 56.915 148.742 69.6429 137.737 105.855 137.677 105.989 137.615 106.124 137.552 106.263 136.047 109.577 134.452 112.839 132.628 115.991 132.395 116.401 132.171 116.815 131.947 117.231 129.469 121.82 126.53 126.195 123.451 130.399 123.238 130.69 123.025 130.981 122.813 131.274 121.351 133.273 119.829 135.223 118.258 137.14 118.096 137.338 117.934 137.537 117.773 137.734 117.046 138.628 116.306 139.509 115.558 140.383 115.493 140.459 115.428 140.536 115.361 140.614 114.511 141.607 113.645 142.581 112.754 143.539 112.456 143.859 112.163 144.184 111.872 144.51 110.322 146.236 108.702 147.89 107.061 149.527 106.733 149.854 106.406 150.181 106.08 150.509 105.868 150.721 105.657 150.932 105.445 151.143 105.349 151.24 105.253 151.336 105.154 151.435 104.639 151.948 104.113 152.441 103.559 152.913 103.327 153.117 103.11 153.332 102.893 153.552 102.522 153.929 102.133 154.277 101.732 154.622 101.452 154.868 101.178 155.12 100.905 155.373 100.251 155.979 99.5822 156.554 98.8877 157.112 98.5321 157.407 98.192 157.713 97.8525 158.026 97.1808 158.642 96.4832 159.218 95.7732 159.79 95.6153 159.919 95.4574 160.047 95.2996 160.177 90.0703 164.446 84.5995 168.461 78.8224 171.963 78.3619 172.243 77.9201 172.538 77.4824 172.852 76.0795 173.827 76.0795 173.827 75.2556 173.709 74.8015 173.525 74.4111 173.255 74.013 172.973 73.6962 172.753 73.3712 172.558 73.0389 172.364 71.2911 171.333 69.6036 170.208 67.9156 169.084 67.8127 169.016 67.7099 168.946 67.604 168.876 65.7743 167.656 63.9662 166.406 62.1974 165.098 62.0992 165.026 62.0011 164.953 61.8997 164.879 60.9149 164.149 59.9468 163.397 58.9828 162.639 58.7426 162.452 58.5018 162.262 58.2609 162.075 56.7778 160.918 55.3143 159.736 53.8828 158.515 53.4645 158.158 53.0405 157.81 52.6123 157.466 51.9344 156.916 51.2973 156.326 50.659 155.731 50.285 155.382 49.9023 155.044 49.516 154.709 48.0033 153.392 46.532 152.025 45.1232 150.597 44.7156 150.186 44.2932 149.803 43.8535 149.428 43.166 148.818 42.5246 148.159 41.9248 147.463 41.4581 146.926 40.9597 146.426 40.4516 145.928 39.8689 145.356 39.3091 144.776 38.7763 144.159 38.4272 143.758 38.0601 143.375 37.6949 142.991 37.0787 142.335 36.4941 141.667 35.9327 140.964 35.6439 140.613 35.3413 140.278 35.0328 139.942 34.5213 139.385 34.0384 138.813 33.564 138.226 33.3001 137.902 33.0314 137.583 32.7599 137.266 32.1381 136.54 31.5429 135.796 30.9644 135.035 30.6454 134.616 30.3205 134.2 29.9953 133.785 25.0419 127.458 20.6405 120.645 16.8863 113.542 16.7922 113.364 16.7922 113.364 16.6962 113.183 16.2498 112.339 15.81 111.492 15.3741 110.643 15.3085 110.516 15.2429 110.388 15.1753 110.257 9.79118 99.747 6.00221 88.3904 0.630087 50.1549 0.620312 50.0111 0.610538 49.8673 0.600466 49.7193 0.350296 46.012 0.196825 42.3011 0.0596331 38.5883 0.0476503 38.2648 0.0355073 37.9412 0.0233437 37.6177-0.208627 31.4034-0.273745 25.1892-0.268237 18.9712-0.267762 18.3725-0.267934 17.7739-0.268464 17.1752-0.271501 13.646-0.262845 10.1175-0.195918 6.58884-0.193471 6.4576-0.191025 6.32636-0.188503 6.19115-0.148886 4.12625-0.0737255 2.06432 0 0Z" fill="#251F21" transform="matrix(1.00515 0 0 1 25.2534 73.9056)"/><path d="M0 0C47.6572 0 95.3145 0 144.416 0 144.561 3.05304 144.561 3.05304 144.581 4.07243 144.584 4.19337 144.586 4.31429 144.589 4.4389 144.596 4.83114 144.604 5.22339 144.61 5.61565 144.614 5.82452 144.614 5.82452 144.619 6.03761 144.682 9.52657 144.703 13.0156 144.707 16.5051 144.707 16.7627 144.708 17.0204 144.708 17.278 144.716 22.9165 144.615 28.547 144.423 34.1822 144.421 34.2674 144.418 34.3525 144.415 34.4402 144.374 35.6518 144.331 36.8635 144.286 38.075 144.281 38.2183 144.276 38.3617 144.271 38.5094 144.256 38.9127 144.241 39.3159 144.224 39.7192 144.221 39.834 144.216 39.9486 144.212 40.0668 144.176 40.9548 144.106 41.832 144.038 42.7199 96.5885 42.7199 49.1392 42.7199 0.252035 42.7199-0.0672768 36.0144-0.0672768 36.0144-0.140293 33.6624-0.142913 33.5785-0.145531 33.4945-0.14823 33.4081-0.310817 28.1481-0.285717 22.8855-0.277314 17.6237-0.275619 16.51-0.275335 15.3966-0.275417 14.2829-0.275503 12.925-0.274627 11.567-0.27347 10.2091-0.273206 9.82714-0.273112 9.44515-0.273062 9.06317-0.271275 2.1702-0.271275 2.1702 0 0Z" fill="#B7073D" transform="matrix(1.00515 0 0 1 28.2934 76.2999)"/><path d="M0 0C0.134371-0.00108571 0.268742-0.00217142 0.407186-0.00329004 0.848514-0.00613577 1.28974-0.00529804 1.73108-0.00415341 2.03976-0.00481366 2.34842-0.00560475 2.65709-0.00652045 3.30304-0.00782982 3.94896-0.00725927 4.5949-0.00541482 5.42018-0.00325044 6.24536-0.00620876 7.07063-0.0106432 7.70785-0.013419 8.34505-0.0132291 8.98227-0.012185 9.28642-0.0120821 9.59057-0.0129405 9.89472-0.0148025 10.3211-0.0170127 10.7473-0.0151583 11.1737-0.0123064 11.2977-0.0137797 11.4218-0.0152533 11.5496-0.0167713 12.3639-0.00576314 12.939 0.175164 13.6563 0.562274 14.0507 0.725132 14.3157 0.740827 14.7394 0.697311 15.0654 0.56659 15.0654 0.56659 15.3798 0.387238 16.1727 0.00857372 16.8562-0.0213224 17.7246-0.0123064 17.878-0.0132081 18.0314-0.0141098 18.1896-0.0150388 18.6062-0.0167916 19.0226-0.0157557 19.4392-0.0132632 19.8774-0.0111815 20.3155-0.012311 20.7537-0.0129506 21.4887-0.0135181 22.2237-0.0115328 22.9587-0.00799915 23.8063-0.00395526 24.6539-0.00396488 25.5015-0.00613595 26.3204-0.00814002 27.1391-0.00728401 27.958-0.00513575 28.305-0.00427372 28.6519-0.00439613 28.999-0.00533045 29.4839-0.00648163 29.9688-0.00344597 30.4537 0 30.6678-0.00123356 30.6678-0.00123356 30.8861-0.00249204 31.9115 0.00987233 32.6088 0.186462 33.3584 0.902089 34.1342 1.95442 34.2145 3.03372 34.1776 4.30455 34.1753 4.45514 34.173 4.60573 34.1707 4.76087 34.1648 5.12871 34.1566 5.49631 34.146 5.86402 34.2304 5.86292 34.3147 5.86182 34.4015 5.8607 34.5692 5.85942 34.5692 5.85942 34.7402 5.85812 34.8505 5.85702 34.9609 5.85593 35.0744 5.85479 36.1444 5.88456 37.2354 6.23698 38.0448 6.94304 38.5563 7.54753 38.6134 7.89951 38.5951 8.67136 38.5396 9.16732 38.3961 9.40996 38.0526 9.77056 37.3584 10.2966 36.6558 10.554 35.8158 10.7551 35.7104 10.7823 35.6049 10.8095 35.4963 10.8375 35.0221 10.9566 34.6404 11.0307 34.146 11.0307 34.146 14.2328 34.146 17.4349 34.146 20.734 34.6451 20.734 35.1441 20.734 35.6583 20.734 36.6098 20.9203 37.3701 21.1555 38.0526 21.8682 38.4199 22.4879 38.5337 23.0526 38.4306 23.7584 38.161 24.5541 37.8274 25.1464 37.076 25.5464 36.0939 25.9931 35.2205 26.0624 34.146 26.0267 34.1534 26.1854 34.1607 26.3439 34.1682 26.5072 34.216 27.9945 34.2174 29.5701 33.322 30.8381 32.512 31.6098 31.2429 31.9661 30.1464 31.9648 30.0299 31.9649 29.9135 31.9651 29.7935 31.9653 29.6043 31.9646 29.6043 31.9646 29.4112 31.9639 29.2771 31.9639 29.143 31.9639 29.0049 31.9639 28.5623 31.9639 28.1199 31.9629 27.6773 31.9619 27.3703 31.9617 27.0632 31.9615 26.7561 31.9614 25.9484 31.9609 25.1407 31.9596 24.3329 31.9583 23.5085 31.957 22.684 31.9564 21.8596 31.9557 20.2423 31.9545 18.625 31.9523 17.0077 31.9496 16.9718 32.0481 16.936 32.1465 16.8989 32.248 16.6604 32.8004 16.2491 33.0133 15.7397 33.3042 15.0198 33.5873 14.1559 33.6252 13.4319 33.3466 12.9966 33.0909 12.7527 32.8776 12.4745 32.4461 12.2635 32.1934 12.1451 32.0891 11.8236 32.0061 11.481 31.9809 11.1453 31.9797 10.8017 31.9862 10.672 31.9857 10.5422 31.9852 10.4085 31.9846 9.97949 31.9837 9.55074 31.9879 9.12181 31.9919 8.82311 31.9918 8.52441 31.9913 8.22572 31.9904 7.43888 31.9886 6.65212 31.991 5.86529 31.9947 4.60774 32.0004 3.35022 32.0024 2.09266 31.9998 1.65418 31.9998 1.21581 32.0031 0.777356 32.0065 0.506813 32.0066 0.23627 32.0066-0.0342733 32.0064-0.15529 32.0083-0.276307 32.0101-0.40099 32.0119-1.37316 32.0063-2.14441 31.7839-2.87938 31.1305-3.85149 29.7567-3.71756 28.1304-3.65912 26.5308-3.78095 26.5367-3.90278 26.5425-4.02831 26.5486-5.34296 26.585-6.31356 26.4526-7.36875 25.6172-7.96798 25.0495-8.19816 24.4488-8.25087 23.6324-8.21705 22.9425-7.96151 22.3901-7.47361 21.9022-6.88277 21.4246-6.27588 21.1853-5.54938 20.9861-5.42462 20.9445-5.29986 20.9029-5.17132 20.86-4.6723 20.86-4.17327 20.86-3.65912 20.86-3.65912 17.7411-3.65912 14.6222-3.65912 11.4088-4.24132 11.4088-4.82352 11.4088-5.42336 11.4088-6.50258 11.1635-7.29034 10.83-7.94371 9.89657-8.25788 9.34961-8.27716 8.87716-8.19574 8.25835-7.97149 7.54484-7.5772 7.01497-6.93557 6.62012-6.08608 6.18283-5.40675 5.97257-4.44672 5.98216-4.22548 5.98387-4.22548 5.98387-3.99975 5.98561-3.88735 5.98707-3.77494 5.98853-3.65912 5.99003-3.66176 5.90318-3.6644 5.81633-3.66712 5.72683-3.76405 2.05398-3.76405 2.05398-2.87938 0.815452-1.94399 0.171067-1.1252-0.00742987 0 0Z" fill="#262122" transform="matrix(1.00515 0 0 1 38.4314 82.4076)"/><path d="M0 0C0.134371-0.00108571 0.268742-0.00217142 0.407186-0.00329004 0.848514-0.00613577 1.28974-0.00529804 1.73108-0.00415341 2.03976-0.00481366 2.34842-0.00560475 2.65709-0.00652045 3.30304-0.00782982 3.94896-0.00725927 4.5949-0.00541482 5.42018-0.00325044 6.24536-0.00620876 7.07063-0.0106432 7.70785-0.013419 8.34505-0.0132291 8.98227-0.012185 9.28642-0.0120821 9.59057-0.0129405 9.89472-0.0148025 10.3211-0.0170127 10.7473-0.0151583 11.1737-0.0123064 11.2977-0.0137797 11.4218-0.0152533 11.5496-0.0167713 12.3639-0.00576314 12.939 0.175164 13.6563 0.562274 14.0507 0.725132 14.3157 0.740827 14.7394 0.697311 15.0654 0.56659 15.0654 0.56659 15.3798 0.387238 16.1727 0.00857372 16.8562-0.0213224 17.7246-0.0123064 17.878-0.0132081 18.0314-0.0141098 18.1896-0.0150388 18.6062-0.0167916 19.0226-0.0157557 19.4392-0.0132632 19.8774-0.0111815 20.3155-0.012311 20.7537-0.0129506 21.4887-0.0135181 22.2237-0.0115328 22.9587-0.00799915 23.8063-0.00395526 24.6539-0.00396488 25.5015-0.00613595 26.3204-0.00814002 27.1391-0.00728401 27.958-0.00513575 28.305-0.00427372 28.6519-0.00439613 28.999-0.00533045 29.4839-0.00648163 29.9688-0.00344597 30.4537 0 30.6678-0.00123356 30.6678-0.00123356 30.8861-0.00249204 31.922 0.00999846 32.6245 0.183819 33.3664 0.925717 33.943 1.76602 34.1638 2.55634 34.1584 3.56273 34.158 3.69715 34.1576 3.83157 34.1571 3.97008 34.1561 4.10904 34.1551 4.24801 34.154 4.39119 34.1534 4.53261 34.1529 4.67401 34.1522 4.8197 34.1507 5.16782 34.1487 5.51592 34.146 5.86402 34.2873 5.86252 34.2873 5.86252 34.4313 5.86098 34.5554 5.8602 34.6794 5.85942 34.8071 5.85861 34.9299 5.8576 35.0526 5.85659 35.179 5.85556 36.2469 5.88114 37.3744 6.30948 38.1235 7.07693 38.4444 7.607 38.4808 8.02447 38.4306 8.6364 38.2138 9.3955 37.7995 9.83117 37.1322 10.2343 36.1275 10.7264 35.2672 10.9047 34.146 10.9047 34.146 14.1483 34.146 17.392 34.146 20.734 34.6451 20.734 35.1441 20.734 35.6583 20.734 36.8225 21.0048 37.5867 21.4081 38.3046 22.3722 38.5149 23.0032 38.5689 23.674 38.3121 24.2994 37.7265 25.278 36.9804 25.6459 35.9286 25.9737 35.5723 26.0438 35.2335 26.0386 34.8706 26.0347 34.7349 26.0336 34.5991 26.0324 34.4592 26.0313 34.3042 26.029 34.3042 26.029 34.146 26.0267 34.1491 26.1744 34.152 26.3221 34.155 26.4742 34.2023 29.8385 34.2023 29.8385 33.0591 31.0359 32.2339 31.6576 31.17 31.9659 30.1464 31.9648 30.0299 31.9649 29.9135 31.9651 29.7935 31.9653 29.6043 31.9646 29.6043 31.9646 29.4112 31.9639 29.2771 31.9639 29.143 31.9639 29.0049 31.9639 28.5623 31.9639 28.1199 31.9629 27.6773 31.9619 27.3703 31.9617 27.0632 31.9615 26.7561 31.9614 25.9484 31.9609 25.1407 31.9596 24.3329 31.9583 23.5085 31.957 22.684 31.9564 21.8596 31.9557 20.2423 31.9545 18.625 31.9523 17.0077 31.9496 16.9716 32.049 16.9355 32.1484 16.8982 32.2507 16.7253 32.6498 16.5549 32.7634 16.1886 32.9892 16.0885 33.0523 15.9885 33.1153 15.8854 33.1803 15.2014 33.5835 14.5113 33.5414 13.7312 33.4618 13.031 33.2193 12.4887 32.8381 12.0931 32.2016 12.0931 32.1184 12.0931 32.0353 12.0931 31.9496 12.0246 31.9501 11.9562 31.9506 11.8856 31.9511 10.2163 31.9622 8.54695 31.9705 6.87759 31.9758 6.07027 31.9784 5.26298 31.9819 4.45568 31.9876 3.67618 31.9932 2.89671 31.9962 2.11718 31.9974 1.82021 31.9983 1.52323 32.0002 1.22626 32.0029 0.809387 32.0066 0.392616 32.007-0.0242743 32.0069-0.146281 32.0087-0.268287 32.0104-0.393991 32.0123-1.37063 32.0064-2.14803 31.789-2.87938 31.1226-3.86161 29.7278-3.71516 28.1598-3.65912 26.5308-3.78241 26.5352-3.90571 26.5396-4.03274 26.5442-5.27734 26.5699-6.35129 26.5136-7.36728 25.7201-7.92488 25.1653-8.2303 24.5377-8.26663 23.7506-8.22145 23.0035-8.0077 22.4349-7.47361 21.9032-6.88372 21.424-6.27593 21.1853-5.54938 20.9861-5.42462 20.9445-5.29986 20.9029-5.17132 20.86-4.6723 20.86-4.17327 20.86-3.65912 20.86-3.65912 17.7411-3.65912 14.6222-3.65912 11.4088-4.24132 11.4088-4.82352 11.4088-5.42336 11.4088-6.50258 11.1635-7.29034 10.83-7.94371 9.89657-8.27835 9.32153-8.29065 8.78291-8.19574 8.13233-7.86462 7.31234-7.28096 6.71064-6.4827 6.34397-5.52444 5.98211-4.67529 5.96701-3.65912 5.99003-3.66176 5.89422-3.6644 5.79841-3.66712 5.6997-3.6777 5.2583-3.68419 4.81693-3.69062 4.37544-3.69484 4.22477-3.69908 4.0741-3.70342 3.91888-3.71591 2.77342-3.57771 1.76896-2.87938 0.831204-1.96106 0.157762-1.12279-0.00741399 0 0Z" fill="#272223" transform="matrix(1.00515 0 0 1 132.798 82.4076)"/><path d="M0 0C47.283 0 94.566 0 143.282 0 143.282 2.12892 143.282 2.12892 143.231 2.9304 143.226 3.01543 143.22 3.10047 143.215 3.18809 143.204 3.36348 143.192 3.53886 143.181 3.71422 143.163 3.98118 143.147 4.24818 143.131 4.51522 143.084 5.24584 143.025 5.9551 142.904 6.67892 142.862 7.42746 142.821 8.17601 142.778 8.94723 95.8274 8.94723 48.8771 8.94723 0.50407 8.94723 0 2.73038 0 2.73038 0 0Z" fill="#FDFDFD" transform="matrix(1.00515 0 0 1 28.9267 120.028)"/><path d="M0 0C0.116395-0.00108381 0.232791-0.00216761 0.352713-0.00328427 0.5439-0.0040895 0.5439-0.0040895 0.738951-0.00491102 0.873414-0.00594152 1.00788-0.00697202 1.14641-0.00803376 1.59243-0.0111662 2.03843-0.0132476 2.48446-0.0150637 2.71307-0.0160701 2.71307-0.0160701 2.94629-0.0170968 3.75338-0.020466 4.56047-0.0229071 5.36757-0.0247244 6.19994-0.0268193 7.03225-0.0324596 7.86461-0.0388851 8.50559-0.0431337 9.14657-0.0445824 9.78757-0.0452938 10.0943-0.0461385 10.401-0.0480538 10.7077-0.0510767 11.1381-0.055076 11.5684-0.0550683 11.9988-0.0541366 12.1245-0.0562039 12.2501-0.0582713 12.3796-0.0604013 13.1783-0.0533594 13.7194 0.11016 14.4106 0.513465 14.8391 0.729668 15.1128 0.662391 15.5623 0.523464 15.7282 0.438288 15.8941 0.352774 16.0598 0.267012 16.7834-0.0561707 17.4592-0.0506257 18.2415-0.04383 18.3924-0.0445108 18.5431-0.0451917 18.6983-0.0458933 19.1088-0.0471924 19.5191-0.0462523 19.9294-0.0441653 20.3608-0.0424084 20.7921-0.0432353 21.2235-0.043678 21.9476-0.0440176 22.6717-0.0423282 23.3959-0.0393997 24.2306-0.0360469 25.0652-0.0358265 25.9-0.0373063 26.7061-0.0386692 27.5122-0.0378812 28.3185-0.0361022 28.6601-0.0353804 29.0018-0.0353835 29.3434-0.0359844 29.8214-0.0363525 30.2994-0.0342659 30.7773-0.0315236 30.9176-0.0320908 31.0579-0.0326582 31.2024-0.0332426 32.1688-0.0240618 33.0303 0.0658133 33.8111 0.673109 34.4143 1.44873 34.7338 2.20932 34.7291 3.19493 34.7288 3.34722 34.7284 3.49952 34.7279 3.65642 34.7269 3.81554 34.7259 3.97465 34.7247 4.13859 34.7242 4.29916 34.7236 4.45974 34.723 4.62518 34.7216 5.0222 34.7194 5.41919 34.7169 5.81619 34.8161 5.81381 34.9154 5.81144 35.0177 5.809 36.37 5.79016 37.6164 5.98077 38.6834 6.87897 39.095 7.30218 39.2312 7.68198 39.3165 8.25778 39.2204 8.95405 38.9382 9.46295 38.3925 9.91323 37.2596 10.6574 36.213 10.7872 34.8429 10.9829 34.8013 14.185 34.7598 17.3871 34.7169 20.6863 35.3407 20.6863 35.9645 20.6863 36.6072 20.6863 37.6109 21.0017 38.3032 21.3006 38.8755 22.1985 39.1566 22.761 39.0888 23.5389 38.9153 24.1301 38.5254 24.9778 37.9472 25.4143 37.1033 25.7663 36.3095 26.0386 35.547 26.0265 34.7169 25.979 34.7182 26.0538 34.7194 26.1287 34.7208 26.2059 34.7261 26.5504 34.7294 26.8948 34.7327 27.2392 34.7347 27.3569 34.7368 27.4747 34.739 27.596 34.747 28.7452 34.5826 30.0636 33.7894 30.9616 32.3884 32.0921 30.5038 31.9676 28.8165 31.9515 28.3772 31.9475 27.9382 31.947 27.499 31.9475 26.2516 31.9483 25.0041 31.9433 23.7567 31.9351 22.9909 31.9304 22.2251 31.9299 21.4591 31.9319 21.1681 31.9319 20.8772 31.9302 20.5862 31.9266 20.1803 31.9218 19.7746 31.9223 19.3686 31.9241 19.249 31.9213 19.1293 31.9186 19.0062 31.9157 18.3764 31.9206 18.3764 31.9206 17.8447 32.2243 17.6564 32.4449 17.493 32.6728 17.3265 32.9099 16.6432 33.4092 15.8706 33.5012 15.0414 33.4706 14.4814 33.3829 14.0856 33.1664 13.672 32.7839 13.5901 32.6567 13.5083 32.5294 13.424 32.3982 13.212 32.1445 13.0935 32.0411 12.7705 31.9583 12.4246 31.9332 12.0857 31.9318 11.739 31.9383 11.608 31.9378 11.477 31.9373 11.342 31.9368 10.9089 31.9358 10.4761 31.9401 10.043 31.9441 9.74152 31.944 9.44 31.9434 9.13848 31.9425 8.34419 31.9409 7.54997 31.9431 6.75568 31.9469 5.48618 31.9526 4.21673 31.9545 2.94722 31.952 2.50456 31.952 2.062 31.9552 1.61936 31.9588 1.34627 31.9588 1.07317 31.9588 0.800082 31.9586 0.61679 31.9613 0.61679 31.9613 0.429795 31.9641-0.506069 31.9588-1.26073 31.7442-2.00393 31.1609-2.2486 30.8377-2.39448 30.5218-2.54492 30.1454-2.59738 30.017-2.64986 29.8884-2.70392 29.7561-2.95764 29.0383-2.97843 28.394-2.97023 27.6408-2.96966 27.5415-2.96908 27.4422-2.9685 27.3398-2.96703 27.0963-2.96476 26.8527-2.96235 26.6091-3.1183 26.6169-3.27425 26.6247-3.43492 26.6326-4.66983 26.6268-5.80585 26.2968-6.74287 25.4749-7.31586 24.816-7.42526 24.1641-7.41627 23.3144-7.3276 22.5778-6.9118 22.1323-6.42783 21.5999-5.41322 20.8304-4.17925 20.8123-2.96235 20.8123-2.96235 17.6933-2.96235 14.5744-2.96235 11.361-3.58614 11.361-4.20993 11.361-4.85261 11.361-5.92887 11.0125-6.70315 10.6774-7.2942 9.68335-7.49134 8.83561-7.44522 8.0883-6.99491 7.3284-6.31827 6.52628-5.49247 6.14804-4.47456 5.94221-3.96676 5.90701-3.47012 5.9098-2.96235 5.94221-2.96433 5.86615-2.96631 5.79008-2.96835 5.71171-3.05627 1.81919-3.05627 1.81919-1.95421 0.649481-1.35443 0.246888-0.724177 0.00502658 0 0Z" fill="#272123" transform="matrix(1.00515 0 0 1 84.7242 82.4554)"/><path d="M0 0C46.9087 0 93.8174 0 142.148 0 142.075 1.1001 142.001 2.18686 141.875 3.27989 141.863 3.4007 141.849 3.52151 141.835 3.64597 141.792 4.02429 141.749 4.40253 141.707 4.78078 141.678 5.03684 141.649 5.29289 141.621 5.54895 141.568 6.018 141.515 6.48705 141.462 6.95603 141.451 7.04883 141.441 7.14163 141.429 7.23724 141.378 7.6815 141.321 8.1253 141.265 8.56918 94.8974 8.56918 48.5293 8.56918 0.756104 8.56918 0 1.91546 0 1.91546 0 0Z" fill="#B8073D" transform="matrix(1.00515 0 0 1 29.4334 129.983)"/><path d="M0 0C46.1186 0 92.2372 0 139.753 0 139.589 2.79321 139.07 5.55567 138.619 8.31715 93.2907 8.31715 47.9622 8.31715 1.26017 8.31715 1.07304 7.38147 1.07304 7.38147 0.882122 6.42689 0.822343 6.15398 0.762563 5.88108 0.700972 5.5999 0.49979 4.59827 0.364433 3.58761 0.228406 2.57548 0.216986 2.49146 0.205566 2.40745 0.193798 2.32089 0.160908 2.0775 0.128928 1.83399 0.0969743 1.59048 0.0782627 1.44808 0.0595511 1.30569 0.0402726 1.15898 0 0.756104 0 0.756104 0 0Z" fill="#FEFEFE" transform="matrix(1.00515 0 0 1 30.7 139.687)"/><path d="M0 0C43.8314 0 87.6627 0 132.822 0 131.804 3.7826 131.804 3.7826 131.234 5.55572 131.134 5.87048 131.033 6.18558 130.933 6.50072 130.869 6.70323 130.805 6.9057 130.741 7.10816 130.71 7.20134 130.681 7.2945 130.65 7.39049 130.443 8.03538 130.443 8.03538 130.302 8.31715 88.134 8.31715 45.9661 8.31715 2.52035 8.31715 1.65969 6.02207 1.65969 6.02207 1.37832 4.96981 1.1254 4.05193 0.849308 3.15298 0.526221 2.257 0.303767 1.5172 0.161863 0.75536 0 0Z" fill="#FEFEFE" transform="matrix(1.00515 0 0 1 34.2467 157.959)"/><path d="M0 0C45.2037 0 90.4074 0 136.981 0 136.899 0.824622 136.807 1.61653 136.651 2.42583 136.629 2.53479 136.608 2.64376 136.586 2.75601 136.376 3.82712 136.133 4.89096 135.886 5.95432 135.867 6.03963 135.847 6.12494 135.827 6.21283 135.77 6.45562 135.713 6.69821 135.656 6.9408 135.624 7.08169 135.59 7.22256 135.556 7.36771 135.469 7.68706 135.469 7.68706 135.343 7.81308 135.05 7.82557 134.762 7.82977 134.469 7.82873 134.331 7.82897 134.331 7.82897 134.188 7.82922 133.872 7.82961 133.556 7.82908 133.239 7.82858 133.011 7.82868 132.783 7.82883 132.555 7.82902 131.921 7.82941 131.289 7.82901 130.656 7.82849 129.969 7.82806 129.282 7.82835 128.597 7.82855 127.392 7.82882 126.188 7.82862 124.982 7.8281 123.191 7.82734 121.399 7.8273 119.608 7.82741 116.594 7.82759 113.581 7.82715 110.568 7.8264 107.583 7.82565 104.598 7.82518 101.613 7.82504 101.52 7.82502 101.428 7.82502 101.332 7.82502 100.486 7.82499 99.6402 7.82495 98.7942 7.82491 96.691 7.82483 94.5878 7.82471 92.4847 7.82456 92.3409 7.82456 92.3409 7.82456 92.1943 7.82454 87.5324 7.82422 82.8704 7.82341 78.2084 7.82258 76.5902 7.82229 74.972 7.82201 73.3537 7.82173 73.2534 7.82171 73.153 7.8217 73.0496 7.82167 68.386 7.82088 63.7223 7.82041 59.0588 7.82002 58.7561 7.82 58.4534 7.81997 58.1507 7.81995 56.1449 7.81978 54.139 7.81962 52.1331 7.81947 48.1418 7.81915 44.1504 7.81881 40.1592 7.81845 39.9691 7.81842 39.779 7.81841 39.5889 7.81838 29.3247 7.81744 19.0606 7.81591 1.63823 7.81308 1.51613 7.34942 1.39445 6.88565 1.27285 6.42187 1.23849 6.2914 1.20412 6.16094 1.16872 6.02652 0.926394 5.10112 0.712089 4.17743 0.535574 3.23707 0.511045 3.11045 0.486515 2.98383 0.461244 2.85336 0.413599 2.6073 0.366398 2.36116 0.31972 2.11491 0.233438 1.66789 0.139996 1.22246 0.0451644 0.777179 0 0.50407 0 0.50407 0 0Z" fill="#B8073D" transform="matrix(1.00515 0 0 1 31.9667 149.138)"/><path d="M0 0C42.0016 0 84.0032 0 127.278 0 126.981 0.989023 126.658 1.948 126.295 2.912 126.201 3.15941 126.109 3.40717 126.017 3.655 125.427 5.22864 124.775 6.76232 124.127 8.31715 84.2048 8.31715 44.2825 8.31715 3.15043 8.31715 1.53366 4.49568 1.53366 4.49568 0.905904 2.8222 0.791392 2.51732 0.675459 2.21302 0.559448 1.90872 0.485282 1.71242 0.411195 1.5161 0.337195 1.31974 0.302953 1.22998 0.268711 1.14022 0.233431 1.04774 0.0962876 0.679859 0 0.396124 0 0Z" fill="#B8073D" transform="matrix(1.00515 0 0 1 36.9067 167.411)"/><path d="M0 0C39.3817 0 78.7634 0 119.338 0 118.611 1.74626 118.611 1.74626 118.25 2.51296 118.21 2.59956 118.169 2.68617 118.127 2.77539 117.999 3.05026 117.869 3.32486 117.74 3.59937 117.695 3.69322 117.651 3.78707 117.606 3.88377 115.704 7.91873 115.704 7.91873 115.306 8.31715 115.063 8.32951 114.819 8.33284 114.576 8.3328 114.416 8.33308 114.256 8.33337 114.091 8.33365 113.911 8.33333 113.731 8.333 113.551 8.33265 113.36 8.33275 113.17 8.3329 112.98 8.33309 112.453 8.33348 111.926 8.33308 111.398 8.33256 110.826 8.33213 110.255 8.33242 109.683 8.33262 108.679 8.33289 107.675 8.33268 106.671 8.33217 105.179 8.33141 103.686 8.33137 102.193 8.33148 99.6829 8.33165 97.1724 8.33122 94.6619 8.33047 92.1749 8.32972 89.688 8.32924 87.201 8.32911 87.0466 8.32909 86.8921 8.32908 86.7331 8.32908 85.9489 8.32903 85.1647 8.32899 84.3804 8.32895 78.8207 8.32869 73.2611 8.32785 67.7015 8.32665 66.3532 8.32637 65.0049 8.32608 63.6568 8.3258 63.5731 8.32578 63.4894 8.32577 63.4034 8.32575 59.5179 8.32495 55.6323 8.32448 51.7468 8.32409 51.4946 8.32407 51.2424 8.32404 50.9903 8.32401 49.319 8.32385 47.6478 8.32369 45.9767 8.32354 42.5719 8.32322 39.1673 8.32286 35.7626 8.32248 35.6061 8.32246 35.4496 8.32245 35.2883 8.32243 24.8277 8.32127 14.3671 8.31928 3.90654 8.31715 3.64859 7.82025 3.39086 7.32324 3.1333 6.82613 3.04595 6.65761 2.95855 6.48911 2.87108 6.32064 2.22881 5.08336 1.60174 3.84058 1.01223 2.57714 0.884057 2.30285 0.754274 2.02937 0.624426 1.75588 0.541061 1.57854 0.457783 1.40116 0.374607 1.22375 0.336432 1.14344 0.298259 1.06314 0.258928 0.9804 0.0955214 0.62772 0 0.394087 0 0Z" fill="#FEFEFE" transform="matrix(1.00515 0 0 1 41.0867 176.862)"/><path d="M0 0C36.5123 0 73.0245 0 110.643 0 109.972 1.67793 109.02 3.23756 108.099 4.78866 108.016 4.92985 107.932 5.07103 107.845 5.21649 107.386 5.9853 107.386 5.9853 107.256 6.18947 107.102 6.43892 107.102 6.43892 106.955 6.76595 106.452 7.73255 106.452 7.73255 105.878 7.9432 105.427 7.99433 104.993 8.00069 104.54 7.99314 104.365 7.99521 104.191 7.99787 104.017 8.00108 103.538 8.00816 103.059 8.00661 102.58 8.00367 102.059 8.00196 101.538 8.00827 101.017 8.01353 100.103 8.02165 99.1897 8.02457 98.2762 8.02411 96.9176 8.02341 95.5592 8.03058 94.2008 8.03923 91.4919 8.05611 88.7829 8.06192 86.074 8.06516 85.8634 8.06542 85.8634 8.06542 85.6487 8.06568 85.4379 8.06593 85.4379 8.06593 85.2226 8.06618 83.6651 8.0682 82.1074 8.0726 80.5498 8.07708 75.8454 8.09039 71.1412 8.10151 66.4369 8.10322 66.2863 8.10327 66.1358 8.10333 65.9808 8.10338 65.3709 8.10362 64.761 8.10384 64.151 8.10405 63.692 8.10422 63.2329 8.10439 62.7738 8.10456 62.5462 8.10463 62.5462 8.10463 62.3141 8.10472 57.5485 8.10647 52.7829 8.12133 48.0173 8.1459 42.6642 8.1735 37.3111 8.18952 31.9579 8.18959 31.387 8.18964 30.8162 8.18974 30.2453 8.18987 30.0344 8.18991 30.0344 8.18991 29.8192 8.18995 27.5574 8.19065 25.2956 8.20242 23.0337 8.2181 20.76 8.23357 18.4865 8.23635 16.2126 8.22631 14.8619 8.22071 13.5118 8.22451 12.1612 8.24191 11.2582 8.25261 10.3558 8.25087 9.45292 8.23914 8.93843 8.23282 8.42547 8.23175 7.91111 8.24586 4.95825 8.32176 4.95825 8.32176 4.05689 7.48454 3.40394 6.7011 2.9871 5.78213 2.58987 4.84956 2.27834 4.15022 1.88637 3.50101 1.49646 2.84327 0.962599 1.9105 0.481514 0.963027 0 0Z" fill="#B8073D" transform="matrix(1.00515 0 0 1 45.2667 186.313)"/><path d="M0 0C32.8111 0 65.6223 0 99.4277 0 99.2014 0.565669 98.9346 1.02632 98.5978 1.52599 98.5121 1.65451 98.5121 1.65451 98.4246 1.78563 98.2397 2.06246 98.0541 2.33868 97.8682 2.61486 97.7411 2.80472 97.6138 2.99459 97.4867 3.18446 95.7635 5.75296 95.7635 5.75296 95.0743 6.67106 94.8799 6.93918 94.8799 6.93918 94.6908 7.27268 94.0873 8.23704 94.0873 8.23704 93.5525 8.44662 93.1575 8.49643 92.7821 8.50264 92.3838 8.49405 92.1591 8.49747 92.1591 8.49747 91.9298 8.50096 91.5141 8.50587 91.0991 8.5046 90.6834 8.5007 90.2312 8.49797 89.7791 8.50327 89.3268 8.50755 88.5344 8.51391 87.7421 8.51511 86.9496 8.51291 85.7712 8.50966 84.5929 8.51431 83.4146 8.52048 81.1874 8.53182 78.9605 8.53373 76.7334 8.5327 75.0135 8.53196 73.2936 8.53362 71.5738 8.53698 71.3267 8.53746 71.0797 8.53793 70.8327 8.53841 70.4605 8.53911 70.0882 8.53983 69.716 8.54054 66.2544 8.54712 62.7929 8.5508 59.3314 8.54853 59.2009 8.54844 59.0704 8.54835 58.9359 8.54826 58.2743 8.54783 57.6129 8.54737 56.9513 8.54689 56.82 8.5468 56.6885 8.5467 56.5532 8.54661 56.2874 8.54642 56.0218 8.54622 55.7561 8.54603 51.6224 8.5431 47.4888 8.54994 43.3551 8.56442 38.7113 8.58066 34.0677 8.58932 29.4238 8.58695 28.9285 8.58672 28.4334 8.58652 27.9382 8.58633 27.8163 8.58628 27.6943 8.58623 27.5688 8.58618 25.7282 8.58559 23.8876 8.59094 22.047 8.59935 19.9535 8.60889 17.8602 8.61054 15.7665 8.60166 14.5951 8.59692 13.4239 8.59843 12.2524 8.60898 11.4694 8.6154 10.6868 8.61357 9.90379 8.60503 9.45774 8.60041 9.01246 8.59931 8.56646 8.6083 5.98801 8.6499 5.98801 8.6499 5.24453 8.09175 4.733 7.56002 4.37077 6.96688 4.0411 6.31016 3.87056 5.97898 3.66121 5.68716 3.43594 5.39117 2.58804 4.19196 1.76777 2.97553 0.960882 1.74849 0.912622 1.67546 0.864361 1.60244 0.814637 1.52719 0.677996 1.32013 0.542278 1.11246 0.406603 0.904766 0.328081 0.784861 0.24956 0.664957 0.168659 0.54142 0 0.252035 0 0.252035 0 0Z" fill="#FEFEFE" transform="matrix(1.00515 0 0 1 51.0934 195.26)"/><path d="M0 0C28.7357 0 57.4715 0 87.078 0 86.8558 0.44438 86.628 0.787764 86.3297 1.18141 86.2804 1.24653 86.2312 1.31165 86.1804 1.37874 83.5951 4.78017 83.5951 4.78017 82.3343 6.20473 82.1464 6.43543 82.1464 6.43543 81.9883 6.76243 81.662 7.29758 81.3627 7.71626 80.7497 7.89422 79.8578 8.03106 78.9534 7.99914 78.0539 7.9891 77.7444 7.9907 77.435 7.9929 77.1255 7.99565 76.4529 8.00024 75.7803 8.00052 75.1076 7.99697 74.1073 7.99173 73.1071 7.99442 72.1069 7.99865 70.3203 8.00595 68.5338 8.00532 66.7472 8.00131 65.1839 7.99783 63.6205 7.99691 62.057 7.99857 61.9533 7.99868 61.8496 7.99879 61.7427 7.99889 61.3218 7.99932 60.9008 7.99976 60.4799 8.00023 56.5308 8.00446 52.5818 8.00062 48.6326 7.99316 45.1241 7.98658 41.6157 7.98717 38.1072 7.9938 34.1653 8.00122 30.2235 8.00416 26.2816 7.99987 25.8614 7.99943 25.4411 7.999 25.021 7.99857 24.9175 7.99846 24.8141 7.99835 24.7075 7.99823 23.145 7.99666 21.5826 7.99851 20.0201 8.002 18.2435 8.00597 16.4671 8.00499 14.6905 7.99747 13.6961 7.9934 12.7019 7.99313 11.7077 7.99836 10.9655 8.00183 10.2235 7.99807 9.48133 7.99146 9.1809 7.9899 8.88043 7.99071 8.58002 7.99406 6.21535 8.01845 6.21535 8.01845 5.63018 7.51181 5.34004 7.1624 5.12831 6.82618 4.91468 6.42689 4.76957 6.24283 4.62094 6.06141 4.46672 5.88491 3.61486 4.85617 2.77479 3.82012 1.95542 2.7653 1.73357 2.48104 1.50993 2.19822 1.28626 1.91536 1.12265 1.70748 0.959059 1.49959 0.795485 1.29168 0.677307 1.14281 0.677307 1.14281 0.556741 0.990941 0.484291 0.8985 0.411841 0.806059 0.337195 0.710816 0.272106 0.628335 0.207016 0.545854 0.139955 0.460875 0 0.252035 0 0.252035 0 0Z" fill="#B8073D" transform="matrix(1.00515 0 0 1 57.1734 204.712)"/><path d="M0 0C23.787 0 47.5741 0 72.0819 0 71.232 1.13337 71.232 1.13337 70.8419 1.53978 70.7574 1.62864 70.6728 1.71749 70.5857 1.80904 70.4999 1.89822 70.414 1.98741 70.3255 2.07929 69.752 2.67847 69.1895 3.2825 68.6462 3.90925 68.2705 4.33747 67.8806 4.752 67.4901 5.16671 67.4149 5.24745 67.3397 5.32818 67.262 5.41136 67.0934 5.59075 66.9203 5.76599 66.7437 5.93766 66.48 6.22567 66.3024 6.46769 66.1001 6.79366 65.5375 7.60439 64.8839 8.24094 63.888 8.43679 62.4128 8.65331 60.8997 8.60691 59.4128 8.59735 58.7247 8.59512 58.0368 8.60448 57.3487 8.61227 56.0028 8.62558 54.6569 8.62788 53.3108 8.62595 52.2157 8.6245 51.1206 8.62657 50.0256 8.63112 49.8694 8.63176 49.7131 8.63239 49.5522 8.63305 49.2349 8.63435 48.9174 8.63564 48.6 8.63693 45.965 8.64721 43.3301 8.64817 40.6949 8.64325 40.6112 8.6431 40.5276 8.64295 40.4414 8.64279 40.2721 8.64247 40.103 8.64215 39.9338 8.64183 37.303 8.63695 34.6728 8.64583 32.0422 8.66557 29.0807 8.68778 26.1194 8.69931 23.1577 8.69556 21.5919 8.6938 20.0264 8.69662 18.4605 8.71187 17.127 8.72474 15.794 8.7264 14.4604 8.71406 13.781 8.70809 13.1025 8.70696 12.4233 8.71984 7.88677 8.80015 7.88677 8.80015 6.23003 7.21215 5.60777 6.57259 5.07103 5.88035 4.53663 5.16671 4.09592 4.64122 3.64403 4.13109 3.15043 3.6545 2.75473 3.26409 2.3862 2.86009 2.02465 2.43815 1.81392 2.19874 1.59989 1.96481 1.38176 1.73225 1.31382 1.65966 1.24588 1.58709 1.17587 1.5123 1.04008 1.36764 0.903817 1.22342 0.767056 1.07967 0.436036 0.726372 0.21924 0.43848 0 0Z" fill="#FEFEFE" transform="matrix(1.00515 0 0 1 64.9 213.533)"/><path d="M0 0C18.2146 0 36.4291 0 55.1956 0 54.6891 0.590859 54.1867 1.15533 53.6361 1.70123 53.5646 1.77257 53.493 1.8439 53.4193 1.91739 52.9657 2.36622 52.5011 2.79538 52.0147 3.20852 51.7832 3.41121 51.5677 3.62406 51.3521 3.84353 50.9812 4.22018 50.593 4.56769 50.1928 4.91271 49.8389 5.22276 49.4928 5.54098 49.1468 5.85981 48.0511 6.86728 48.0511 6.86728 47.6554 7.19102 47.3711 7.43285 47.3711 7.43285 47.1256 7.74718 46.4085 8.51682 45.7974 8.76965 44.7456 8.84158 44.0393 8.86513 43.3341 8.86812 42.6274 8.86178 42.1831 8.85917 41.7388 8.86386 41.2945 8.86757 40.4259 8.87363 39.5574 8.87292 38.6887 8.86969 37.9824 8.86719 37.2761 8.86711 36.5697 8.86874 36.4185 8.86908 36.4185 8.86908 36.2643 8.86943 36.0595 8.86991 35.8547 8.87039 35.6499 8.87087 33.7327 8.87511 31.8155 8.87155 29.8983 8.86536 28.2554 8.86024 26.6127 8.86211 24.97 8.869 23.0593 8.87702 21.1486 8.88047 19.2379 8.87688 19.0339 8.8765 18.8299 8.87615 18.6259 8.87578 18.4753 8.87552 18.4753 8.87552 18.3218 8.87525 17.6168 8.87433 16.9119 8.87665 16.207 8.88028 15.347 8.88461 14.4872 8.884 13.6274 8.87712 13.1891 8.87374 12.7512 8.87253 12.3129 8.87739 9.40769 8.90235 9.40769 8.90235 8.584 8.21617 8.30137 7.93384 8.05962 7.62288 7.81308 7.30901 7.57375 7.10373 7.33004 6.90331 7.0806 6.71043 6.60836 6.33019 6.17432 5.93716 5.75298 5.50194 5.53927 5.28721 5.31732 5.08895 5.08795 4.89105 4.34097 4.24566 3.62083 3.57095 2.8984 2.8984 2.81364 2.81951 2.72889 2.74063 2.64156 2.65934 2.37514 2.41112 2.10901 2.16256 1.843 1.91389 1.76064 1.83706 1.67829 1.76021 1.59343 1.68105 0.407592 0.570084 0.407592 0.570084 0 0.126017 0 0.0844316 0 0.0428459 0 0Z" fill="#B8073D" transform="matrix(1.00515 0 0 1 73.26 222.984)"/><path d="M0 0C0.151513-0.000138014 0.151513-0.000138014 0.306086-0.000278816 0.633439 0.000153279 0.960552 0.00502135 1.28786 0.00999894 1.51738 0.0111766 1.74689 0.0120723 1.97642 0.0127005 2.57558 0.0150869 3.17464 0.0212598 3.77377 0.0282662 4.38709 0.0347538 5.00044 0.0375985 5.61381 0.0407649 6.81363 0.0474883 8.01339 0.0582184 9.21318 0.0715309 9.222 3.13317 9.22867 6.19481 9.23276 9.25647 9.23472 10.678 9.23738 12.0995 9.2417 13.521 9.24545 14.7599 9.2479 15.9988 9.24874 17.2377 9.24923 17.8938 9.25039 18.5499 9.25314 19.2059 9.25571 19.8234 9.25651 20.4408 9.25594 21.0581 9.25604 21.2848 9.25679 21.5115 9.25824 21.7382 9.26012 22.0477 9.25967 22.357 9.25864 22.6664 9.25974 22.7562 9.26084 22.8461 9.26197 22.9387 9.25702 23.4866 9.17458 23.8333 8.83513 24.2669 8.11897 24.6898 7.50756 24.6823 6.69233 24.6528 5.33284 24.6293 4.00369 24.7125 2.65249 24.8587 2.28739 24.8973 1.92204 24.9299 1.55639 24.9624 0.037099 25.1148-1.09653 25.455-2.38042 26.2832-2.46359 26.3248-2.54676 26.3664-2.63245 26.4092-2.63245 17.9257-2.63245 9.44218-2.63245 0.701618-0.895202-0.0222389-0.895202-0.0222389 0 0Z" fill="#FBFBFB" transform="matrix(1.00515 0 0 1 55.8928 83.7895)"/><path d="M0 0C0.156933-0.000110411 0.156933-0.000110411 0.317037-0.000223053 0.659366 0.000125286 1.00155 0.00403331 1.34386 0.00799915 1.58256 0.00894029 1.82128 0.00965734 2.05999 0.0101605 2.68567 0.0120771 3.31128 0.0170222 3.93692 0.0226129 4.57641 0.0277865 5.21588 0.0300753 5.85537 0.0326119 7.1082 0.0380039 8.36096 0.0465977 9.61375 0.0572247 9.63904 3.09807 9.66214 6.13892 9.68262 9.17981 9.6922 10.5917 9.70247 12.0037 9.71444 13.4156 9.72487 14.6462 9.73396 15.8769 9.74143 17.1075 9.74544 17.7591 9.75012 18.4108 9.7564 19.0624 9.7623 19.6758 9.7664 20.2892 9.76912 20.9028 9.77043 21.1277 9.7724 21.3528 9.77508 21.5777 9.77865 21.8853 9.77983 22.1929 9.78045 22.5005 9.78204 22.5891 9.78362 22.6778 9.78526 22.7691 9.78288 23.4026 9.65202 23.8267 9.36172 24.3786 8.94302 24.6306 8.59098 24.659 8.10942 24.6419 7.98804 24.6392 7.86666 24.6364 7.74161 24.6335 7.61087 24.63 7.48014 24.6264 7.34544 24.6228 5.52198 24.5971 3.73395 24.7814 1.92669 25.0087 1.77252 25.0263 1.61837 25.0439 1.45953 25.0622 0.618541 25.1669-0.0555626 25.2912-0.798439 25.7017-0.940415 25.7785-1.08239 25.8551-1.22867 25.9341-1.3518 26.0029-1.47493 26.0719-1.60179 26.1428-1.85131 26.2676-1.85131 26.2676-2.10586 26.3948-2.10586 17.8698-2.10586 9.3447-2.10586 0.561294-1.25782 0.137268-0.876079-0.0164467 0 0Z" fill="#FDFDFD" transform="matrix(1.00515 0 0 1 102.737 83.8038)"/><path d="M0 0C1.27624-0.0117168 2.55248-0.0206549 3.82876-0.026117 4.4215-0.0287394 5.01419-0.0322927 5.60692-0.0380268 6.17969-0.0435328 6.75244-0.0465239 7.32524-0.0478247 7.54298-0.0487508 7.76072-0.0505594 7.97844-0.0532953 8.28515-0.0569936 8.59171-0.0574567 8.89844-0.0572247 8.987-0.059037 9.07556-0.0608493 9.16681-0.0627165 9.99608-0.0559954 10.3569 0.160602 11.2155 0.50407 11.2155 8.82122 11.2155 17.1384 11.2155 25.7075 10.7427 25.5499 10.3137 25.3965 9.86255 25.1997 9.21592 24.9391 8.60245 24.8324 7.91203 24.7599 7.79402 24.7464 7.67602 24.7328 7.55444 24.7188 7.30684 24.6908 7.05915 24.6636 6.81137 24.6373 6.43587 24.5971 6.06087 24.5536 5.68579 24.5096 5.44338 24.4827 5.20095 24.4558 4.95849 24.4291 4.79322 24.4098 4.79322 24.4098 4.62462 24.3902 3.82237 24.3076 3.06799 24.3551 2.26831 24.4474 0.883769 24.5537 0.883769 24.5537 0.425309 24.1716 0.0968713 23.4998-0.0365392 22.9813-0.0303083 22.2311-0.0305237 22.136-0.030739 22.0407-0.0309608 21.9426-0.0313754 21.6241-0.0299906 21.3056-0.0286124 20.9872-0.0285413 20.7586-0.0285811 20.5301-0.0287239 20.3015-0.0287962 19.6814-0.0273139 19.0613-0.0255548 18.4411-0.0239797 17.7929-0.0238313 17.1448-0.0235321 16.4966-0.0227487 15.2693-0.0206802 14.042-0.0181513 12.8147-0.0153347 11.4173-0.0139486 10.02-0.0126833 8.62274-0.0100486 5.74848-0.00561517 2.87424 0 0Z" fill="#FDFDFD" transform="matrix(1.00515 0 0 1 40.96 83.861)"/><path d="M0 0C0.22669 0.00117768 0.453382 0.0020734 0.680074 0.00270164 1.27178 0.00508771 1.86338 0.0112602 2.45506 0.0182672 3.06079 0.0247556 3.66653 0.0275997 4.27228 0.030766 5.45718 0.0374887 6.64201 0.0482184 7.82686 0.0615319 7.85508 3.15602 7.88041 6.25051 7.90227 9.34505 7.91249 10.7819 7.92366 12.2187 7.93707 13.6555 7.94875 14.9076 7.95864 16.1597 7.9664 17.4119 7.97057 18.0751 7.97564 18.7382 7.98284 19.4014 7.98958 20.0253 7.99395 20.6493 7.99648 21.2734 7.99783 21.5025 8.00006 21.7317 8.00321 21.9608 8.0074 22.2736 8.00844 22.5861 8.00871 22.8989 8.01067 22.9897 8.01263 23.0805 8.01464 23.1741 8.01162 23.6266 7.96179 23.865 7.71306 24.2486 7.37015 24.5864 7.16546 24.6311 6.69787 24.6392 6.60909 24.6345 6.52032 24.6298 6.42885 24.6251 4.75568 24.5663 3.10971 24.677 1.44631 24.8492 1.20292 24.8741 0.959396 24.8976 0.71574 24.9196-0.921776 25.0703-2.11708 25.4099-3.5147 26.2731-3.63946 26.3147-3.76421 26.3563-3.89275 26.3991-3.89275 22.3237-3.89275 18.2483-3.89275 14.0494-3.768 14.1742-3.64324 14.2989-3.5147 14.4275-3.39652 14.5418-3.39652 14.5418-3.27596 14.6583-3.0344 14.9079-2.82073 15.1435-2.63258 15.4356-2.69754 15.9276-2.86269 16.1588-3.13665 16.5698-3.07427 16.8817-3.07427 16.8817-3.01063 17.1999-1.76306 17.2414-0.515489 17.283 0.769888 17.3259 0.769888 17.2011 0.769888 17.0764 0.769888 16.9478 0.678919 16.9167 0.58795 16.8854 0.494225 16.8533-0.0184274 16.6255-0.372839 16.4366-0.624179 15.9126-0.861661 15.2809-1.04546 14.6338-1.22818 13.9845-1.48455 13.0834-1.75581 12.1875-2.034 11.2928-2.08258 11.1362-2.13116 10.9796-2.18121 10.8182-2.54382 9.65359-2.92324 8.49505-3.31767 7.34081-3.37598 7.16913-3.37598 7.16913-3.43545 6.99396-3.46915 6.8958-3.50284 6.79763-3.53756 6.69649-3.7999 5.84687-3.92927 5.12151-3.91736 4.23586-3.91701 4.13379-3.91666 4.03172-3.91629 3.92656-3.91489 3.60434-3.91173 3.28215-3.9085 2.95993-3.90724 2.7399-3.9061 2.51986-3.90506 2.29982-3.9023 1.76374-3.89796 1.22768-3.89275 0.691619-2.59434-0.0212493-1.44441-0.022247 0 0Z" fill="#FDFDFD" transform="matrix(1.00515 0 0 1 151.526 83.7995)"/><path d="M0 0C1.27624-0.0117168 2.55248-0.0206549 3.82876-0.026117 4.4215-0.0287394 5.01419-0.0322927 5.60692-0.0380268 6.17969-0.0435328 6.75244-0.0465239 7.32524-0.0478247 7.54298-0.0487508 7.76072-0.0505594 7.97844-0.0532953 9.13442-0.0672341 10.1748-0.0758715 11.2155 0.50407 11.2346 1.28116 11.2481 2.05809 11.2571 2.83537 11.2608 3.09845 11.2659 3.36153 11.2726 3.62457 11.3169 5.4272 11.1266 6.95461 10.5523 8.66485 10.424 9.05497 10.3185 9.44984 10.2148 9.84707 10.1807 9.97548 10.1465 10.1039 10.1113 10.2362 10.0781 10.3619 10.0448 10.4875 10.0105 10.617 8.69995 15.5132 8.69995 15.5132 7.81308 16.2562 7.77149 16.2978 7.72991 16.3394 7.68706 16.3823 7.39564 16.4375 7.39564 16.4375 7.05697 16.3823 6.49218 15.7446 6.47058 15.1794 6.45839 14.3502 6.45306 14.1584 6.45306 14.1584 6.44763 13.9627 6.43687 13.5091 6.4313 13.0555 6.42689 12.6017 6.42594 12.5107 6.42498 12.4197 6.42401 12.3259 6.41696 11.625 6.4131 10.9241 6.41113 10.2232 6.41059 10.0764 6.41059 10.0764 6.41004 9.92669 6.40733 8.87876 6.42244 7.84664 6.5529 6.80494 6.8837 6.73405 6.8837 6.73405 7.30901 6.80494 7.70458 7.23951 7.99075 7.73224 8.18916 8.28417 8.25251 8.42525 8.25251 8.42525 8.31715 8.56918 8.50428 8.63156 8.50428 8.63156 8.6952 8.6952 8.82251 8.23348 8.94805 7.7713 9.07325 7.30901 9.11345 7.16549 9.11345 7.16549 9.15447 7.01907 9.2904 6.51544 9.35135 6.0661 9.32529 5.54476 9.12314 5.54135 8.92098 5.53892 8.71883 5.53689 8.60626 5.53543 8.49368 5.53396 8.3777 5.53245 8.04821 5.53089 8.04821 5.53089 7.68706 5.67078 6.14383 5.77913 4.51451 5.86434 3.06478 5.26467 2.73024 5.1526 2.58701 5.14331 2.26831 5.29273 1.63354 6.10484 1.66613 7.21055 1.63823 8.19113 1.76298 8.19113 1.88774 8.19113 2.01628 8.19113 2.04666 8.09723 2.07703 8.00334 2.10833 7.90661 2.29057 7.51297 2.47225 7.33863 2.81176 7.07273 2.90745 6.99507 3.00312 6.91743 3.1017 6.83743 3.40247 6.67892 3.40247 6.67892 3.75444 6.71732 3.84621 6.74623 3.93799 6.77515 4.03256 6.80494 4.22693 7.32497 4.31702 7.759 4.3212 8.31339 4.32281 8.45894 4.32441 8.60448 4.32608 8.75444 4.32635 8.91001 4.32663 9.06556 4.32692 9.22585 4.32776 9.38741 4.32861 9.54898 4.32947 9.71545 4.33097 10.0567 4.33144 10.398 4.33129 10.7393 4.33127 11.1743 4.33471 11.6092 4.33906 12.0442 4.34255 12.4621 4.34238 12.8799 4.34267 13.2977 4.34449 13.4529 4.3463 13.6079 4.34817 13.7677 4.34345 14.6568 4.26873 15.2524 3.78052 16.0042 3.57192 16.174 3.36213 16.3423 3.15043 16.5083 3.10885 16.7162 3.06726 16.9241 3.02442 17.1384 5.56115 17.0968 8.09788 17.0552 10.7115 17.0123 10.7739 16.6381 10.7739 16.6381 10.8375 16.2562 10.6879 16.0332 10.6879 16.0332 10.4594 15.8782 10.084 15.5412 10.084 15.5412 10.0578 15.1299 10.2419 14.6552 10.47 14.2209 10.8375 13.8619 10.9623 13.8619 11.087 13.8619 11.2155 13.8619 11.2155 17.771 11.2155 21.68 11.2155 25.7075 10.7427 25.5499 10.3137 25.3965 9.86255 25.1997 9.21592 24.9391 8.60245 24.8324 7.91203 24.7599 7.79402 24.7464 7.67602 24.7328 7.55444 24.7188 7.30684 24.6908 7.05915 24.6636 6.81137 24.6373 6.43587 24.5971 6.06087 24.5536 5.68579 24.5096 5.44338 24.4827 5.20095 24.4558 4.95849 24.4291 4.79322 24.4098 4.79322 24.4098 4.62462 24.3902 3.92485 24.3182 3.26914 24.3361 2.56992 24.414 2.19581 24.4554 1.82546 24.4684 1.4492 24.4711 1.32574 24.4728 1.20228 24.4746 1.07509 24.4764 0.756104 24.4474 0.756104 24.4474 0.378052 24.1953-0.222302 22.9431-0.191709 21.6531-0.171673 20.3005-0.170286 20.078-0.169125 19.8555-0.168173 19.633-0.164972 19.034-0.158626 18.4351-0.151681 17.8361-0.144946 17.2083-0.141155 16.5804-0.137039 15.9525-0.12882 14.7658-0.117986 13.5793-0.106194 12.3926-0.0928888 11.0407-0.0825265 9.68876-0.0724016 8.33683-0.051524 5.55786-0.0269821 2.77892 0 0Z" fill="#FDFDFD" transform="matrix(1.00515 0 0 1 135.327 83.861)"/><path d="M0 0C1.2707-0.00876237 2.54139-0.0154785 3.81211-0.0195878 4.40218-0.0215601 4.99222-0.0242352 5.58227-0.02852 6.15178-0.0326299 6.72126-0.0348888 7.29079-0.0358686 7.50799-0.0365667 7.72519-0.03793 7.94238-0.0399715 8.24678-0.0427188 8.55111-0.0430937 8.85552-0.0429185 8.94517-0.0442777 9.03482-0.0456369 9.12717-0.0470372 9.68954-0.0435401 9.99758 0.0683969 10.4594 0.378052 10.709 0.461224 10.9585 0.544395 11.2155 0.630087 11.2155 5.66196 11.2155 10.6938 11.2155 15.8782 10.9635 15.8782 10.9635 15.8782 10.7858 15.7064 10.7171 15.6253 10.6484 15.5442 10.5776 15.4608 10.5001 15.3695 10.4226 15.2782 10.3428 15.1841 10.2134 15.0287 10.2134 15.0287 10.0814 14.8701 9.98344 14.7534 9.88548 14.6368 9.78456 14.5166 8.56565 13.0491 8.56565 13.0491 8.57509 12.5264 8.72615 12.1457 8.89569 12.0218 9.23077 11.7905 10.0087 11.2188 10.5312 10.6424 10.8375 9.70334 10.9817 8.607 10.9527 7.64313 10.3452 6.6932 9.61026 5.95136 8.96249 5.72512 7.92152 5.70621 7.77787 5.7067 7.63422 5.70719 7.48621 5.70771 7.33661 5.70579 7.18699 5.70389 7.03284 5.70192 6.55779 5.69654 6.08285 5.69541 5.60777 5.69441 5.28453 5.69149 4.96128 5.6883 4.63803 5.68481 3.84813 5.67691 3.05825 5.6725 2.26831 5.67078 2.42527 6.25912 2.54456 6.65388 2.96928 7.09635 3.42848 7.58229 3.54381 7.80891 3.55679 8.48307 3.55963 8.62319 3.56246 8.76332 3.56538 8.9077 3.57434 9.55135 3.58162 10.195 3.58645 10.8387 3.58925 11.1777 3.59449 11.5165 3.60195 11.8555 3.61195 12.3446 3.61611 12.8336 3.61907 13.3229 3.62321 13.4734 3.62737 13.6239 3.63166 13.7789 3.62984 14.5404 3.59041 15.0046 3.08964 15.5968 3.01005 15.6738 2.93046 15.7509 2.84845 15.8302 2.54677 16.228 2.54677 16.228 2.52035 17.2644 3.85109 17.2644 5.18183 17.2644 6.5529 17.2644 6.48096 16.2768 6.48096 16.2768 6.10397 15.5316 5.69242 14.7818 5.73791 14.0667 5.7968 13.2318 6.08625 13.1934 6.08625 13.1934 6.42689 13.2318 6.64151 13.4908 6.64151 13.4908 6.83644 13.8462 7.29309 14.6155 7.81973 15.2394 8.44316 15.8782 8.59131 16.0397 8.59131 16.0397 8.74246 16.2046 8.84382 16.3074 8.94518 16.4102 9.04962 16.5161 9.13881 16.6086 9.22799 16.701 9.31987 16.7962 9.85056 17.1304 9.85056 17.1304 11.2155 17.1384 11.2155 20.0078 11.2155 22.8772 11.2155 25.8336 10.5855 25.5815 10.5855 25.5815 10.2909 25.4318 9.12944 24.8693 7.93684 24.7585 6.66633 24.6278 6.29302 24.5891 5.9203 24.5465 5.54747 24.5035 4.39103 24.3748 3.2999 24.2752 2.1423 24.4474 1.86944 24.4601 1.59633 24.4692 1.32318 24.4711 1.19972 24.4728 1.07627 24.4746 0.949068 24.4764 0.630087 24.4474 0.630087 24.4474 0.252035 24.1953 0.0336668 23.5196-0.036278 22.8955-0.0303083 22.1857-0.0305237 22.0901-0.030739 21.9946-0.0309608 21.8962-0.031373 21.5788-0.0299945 21.2615-0.0286124 20.9442-0.0285412 20.7156-0.0285812 20.487-0.0287239 20.2584-0.028796 19.6399-0.0273169 19.0213-0.0255548 18.4028-0.0239764 17.7556-0.023831 17.1085-0.0235321 16.4613-0.0227495 15.2366-0.0206825 14.012-0.0181513 12.7874-0.0153317 11.3929-0.0139479 9.99828-0.0126833 8.60371-0.0100508 5.73581-0.00561925 2.8679 0 0Z" fill="#FEFEFE" transform="matrix(1.00515 0 0 1 88.2067 83.861)"/><path d="M0 0C10.6044 0 21.2087 0 32.1344 0 31.7289 0.506899 31.364 0.868594 30.8585 1.2523 30.6997 1.37486 30.5408 1.49744 30.382 1.62002 30.256 1.7166 30.256 1.7166 30.1275 1.81513 29.8621 2.01942 29.5981 2.22553 29.3345 2.43224 27.9306 3.5322 26.5099 4.60832 25.0775 5.67078 24.99 5.73608 24.9025 5.80139 24.8124 5.86867 22.9708 7.24105 21.0504 8.50044 19.1328 9.76296 18.7109 10.041 18.2914 10.3225 17.8723 10.6047 17.6593 10.7455 17.4461 10.8861 17.2329 11.0265 17.14 11.09 17.0473 11.1536 16.9516 11.219 16.6953 11.3849 16.6953 11.3849 16.2562 11.5936 15.8004 11.4583 15.4158 11.2287 15.0138 10.9788 14.8955 10.9053 14.7773 10.8319 14.6554 10.7562 14.4654 10.6366 14.4654 10.6366 14.2715 10.5146 14.1388 10.4313 14.0059 10.3479 13.8692 10.2621 11.5826 8.81653 9.36289 7.27203 7.18299 5.67078 6.9843 5.52555 6.78558 5.38034 6.58687 5.23514 4.87999 3.98532 3.18944 2.71586 1.54371 1.38619 1.46108 1.31965 1.37844 1.25313 1.2933 1.18458 1.21545 1.12116 1.13759 1.05773 1.05736 0.992387 0.989829 0.937481 0.922292 0.882574 0.852709 0.826005 0.555638 0.564569 0.279822 0.279822 0 0Z" fill="#FEFEFE" transform="matrix(1.00515 0 0 1 85.04 232.814)"/><path d="M0 0C0.532933-0.0109958 1.06583-0.0177028 1.59885-0.0236283 1.74984-0.026796 1.90083-0.0299635 2.0564-0.0332273 2.20219-0.0344456 2.34798-0.0356639 2.49819-0.0369192 2.63216-0.0388989 2.76613-0.0408788 2.90416-0.0429185 3.35399 0.00893806 3.56207 0.0814497 3.90654 0.378052 4.27932 1.03066 4.33774 1.68528 4.32151 2.4219 4.32097 2.51557 4.32044 2.60924 4.31989 2.70576 4.3178 3.00105 4.31306 3.29624 4.30822 3.5915 4.30632 3.79331 4.30459 3.99514 4.30305 4.19697 4.29891 4.68829 4.2924 5.17952 4.28459 5.67078 4.50389 5.6642 4.50389 5.6642 4.72762 5.65749 7.5681 5.59748 7.5681 5.59748 8.53768 6.38751 8.67802 6.53176 8.67802 6.53176 8.82122 6.67892 8.78113 7.05302 8.7041 7.17474 8.42348 7.43503 7.19466 8.29925 5.73411 8.19113 4.28459 8.19113 4.28459 12.3081 4.28459 16.4251 4.28459 20.6668 5.32423 20.6668 6.36388 20.6668 7.43503 20.6668 8.44316 21.1709 8.44316 21.1709 8.56918 21.2969 8.65829 22.188 8.65829 22.188 8.29352 22.6674 7.53949 23.2371 6.88463 23.2226 5.97007 23.2109 5.78975 23.2108 5.78975 23.2108 5.60581 23.2106 4.71587 23.205 4.71587 23.205 4.28459 23.0612 4.28657 23.1767 4.28855 23.2923 4.29059 23.4114 4.29709 23.8459 4.30181 24.2803 4.30536 24.7149 4.30725 24.9018 4.30981 25.0888 4.31311 25.2758 4.35187 27.53 4.35187 27.53 3.90654 28.3539 3.04036 29.1304 2.1138 29.1285 1.00528 29.1244 0.878587 29.1244 0.751895 29.1244 0.621365 29.1244 0.203391 29.1243-0.214576 29.1232-0.632548 29.1224-0.922658 29.1221-1.21277 29.1219-1.50287 29.1217-2.26588 29.1214-3.02889 29.1201-3.79189 29.1187-4.5707 29.1173-5.34951 29.1168-6.12834 29.1162-7.65605 29.1148-9.18377 29.1127-10.7115 29.11-10.0502 28.3569-9.11125 28.1517-8.13757 28.0623-7.68574 28.0522-7.23701 28.0581-6.78525 28.0704-6.53393 28.0733-6.28261 28.0762-6.03129 28.0789-5.50832 28.0855-4.98545 28.0967-4.46255 28.1072-4.02981 28.1155-3.5971 28.1229-3.1643 28.1276-2.84207 28.1314-2.51986 28.1373-2.19772 28.1461-1.02726 28.1592 0.0593926 28.0006 1.08633 27.4069 2.08773 26.3609 1.96311 24.9445 1.95748 23.5936 1.95837 23.3682 1.95948 23.1428 1.96078 22.9175 1.9636 22.3085 1.96324 21.6996 1.96212 21.0905 1.96147 20.581 1.96239 20.0715 1.96331 19.5621 1.96546 18.3596 1.96501 17.1573 1.9629 15.9549 1.96077 14.7167 1.96276 13.4784 1.96683 12.2402 1.97021 11.1748 1.97111 10.1094 1.97004 9.04391 1.96942 8.40857 1.96969 7.77327 1.97229 7.13794 1.9746 6.54047 1.97384 5.94308 1.97075 5.34561 1.97012 5.12708 1.97055 4.90854 1.97216 4.69001 1.98273 3.12308 1.79294 1.98842 0.661591 0.819113 0.133019 0.266037 0.133019 0.266037 0 0Z" fill="#FCFCFC" transform="matrix(1.00515 0 0 1 67.0534 83.861)"/><path d="M0 0C0.532933-0.0109958 1.06583-0.0177028 1.59885-0.0236283 1.74984-0.026796 1.90083-0.0299635 2.0564-0.0332273 2.20219-0.0344456 2.34798-0.0356639 2.49819-0.0369192 2.63216-0.0388989 2.76613-0.0408788 2.90416-0.0429185 3.34915 0.00838045 3.56193 0.0906861 3.90654 0.378052 4.27753 1.03276 4.33725 1.56929 4.32151 2.31113 4.32097 2.40779 4.32044 2.50444 4.31989 2.60402 4.3178 2.90959 4.31305 3.21507 4.30822 3.52061 4.30632 3.72908 4.3046 3.93755 4.30305 4.14602 4.29891 4.65431 4.29239 5.16253 4.28459 5.67078 4.52065 5.66299 4.52065 5.66299 4.76147 5.65505 7.44365 5.57434 7.44365 5.57434 8.42397 6.36191 8.56918 6.5529 8.56918 6.5529 8.56918 6.86007 8.3748 7.35818 8.05827 7.56918 7.58271 7.79782 6.49331 8.24172 5.46631 8.19113 4.28459 8.19113 4.28459 12.3081 4.28459 16.4251 4.28459 20.6668 5.28265 20.6668 6.28071 20.6668 7.30901 20.6668 8.31715 21.1709 8.31715 21.1709 8.56918 21.423 8.62431 21.8403 8.62431 21.8403 8.56918 22.3051 8.20272 22.7763 7.87001 23.0041 7.30901 23.1872 6.95984 23.2158 6.95984 23.2158 6.58588 23.2118 6.38425 23.2106 6.38425 23.2106 6.17854 23.2094 5.97009 23.2062 5.97009 23.2062 5.75742 23.2029 5.61601 23.2018 5.4746 23.2007 5.32891 23.1995 4.98077 23.1965 4.6327 23.1924 4.28459 23.1872 4.28591 23.2965 4.28722 23.4057 4.28859 23.5182 4.29291 23.9278 4.29606 24.3374 4.29844 24.747 4.2997 24.9235 4.3014 25.1 4.30361 25.2764 4.3347 27.8408 4.3347 27.8408 3.6545 28.6059 2.79592 29.0674 2.00951 29.182 1.0482 29.1672 0.920184 29.1674 0.792172 29.1674 0.660279 29.1675 0.241598 29.1671-0.176967 29.1632-0.595629 29.1593-0.887663 29.1583-1.1797 29.1575-1.47173 29.157-2.23702 29.1551-3.00228 29.1502-3.76755 29.1447-4.54979 29.1395-5.33205 29.1371-6.1143 29.1346-7.64672 29.1293-9.17909 29.1206-10.7115 29.11-10.0401 28.3471-9.09581 28.153-8.11052 28.0574-7.70465 28.0433-7.30026 28.0372-6.89418 28.0406-6.62633 28.0429-6.35865 28.0419-6.09079 28.0401-5.52284 28.037-4.95493 28.0376-4.38698 28.0389-3.72637 28.0404-3.06584 28.0401-2.40524 28.0358-2.14373 28.035-1.88236 28.037-1.62087 28.0392-0.66156 28.0342 0.166313 27.9658 1.00814 27.4718 2.05872 26.3404 1.94604 24.6918 1.94318 23.2502 1.94411 23.0285 1.94519 22.807 1.94641 22.5853 1.9492 21.9865 1.94958 21.3877 1.94934 20.7888 1.94933 20.2878 1.95041 19.7867 1.95145 19.2857 1.95387 18.1033 1.95424 16.9209 1.9534 15.7384 1.95255 14.5207 1.95544 13.3032 1.96011 12.0855 1.96398 11.0377 1.9654 9.98999 1.96493 8.94221 1.96466 8.31744 1.96534 7.69269 1.96843 7.06792 1.97125 6.48038 1.971 5.89293 1.96844 5.30538 1.96801 5.09051 1.96866 4.87563 1.97046 4.66075 1.98303 3.05428 1.73744 1.92894 0.590706 0.748228 0 0.133376 0 0.133376 0 0Z" fill="#FCFCFC" transform="matrix(1.00515 0 0 1 161.42 83.861)"/><path d="M0 0C0.496191-0.00365302 0.992379-0.00589693 1.48858-0.00787609 1.62967-0.00893197 1.77075-0.00998786 1.91611-0.0110757 2.11896-0.0116849 2.11896-0.0116849 2.3259-0.0123064 2.513-0.0132962 2.513-0.0132962 2.70387-0.0143061 3.02442 0 3.02442 0 3.40247 0.126017 3.93249 0.868035 4.07056 1.59958 4.05717 2.49574 4.05681 2.58697 4.05646 2.6782 4.05608 2.77221 4.05468 3.06108 4.05152 3.34989 4.04831 3.63875 4.04705 3.83565 4.04589 4.03256 4.04487 4.22946 4.0421 4.70992 4.03775 5.19034 4.03256 5.67078 4.1773 5.66494 4.32203 5.65909 4.47116 5.65306 5.83322 5.61497 7.36078 5.58075 8.44316 6.5529 8.52192 6.86007 8.52192 6.86007 8.44316 7.18299 7.21979 8.24953 5.55942 8.19113 4.03256 8.19113 4.03256 12.3081 4.03256 16.4251 4.03256 20.6668 5.03061 20.6668 6.02867 20.6668 7.05697 20.6668 8.06511 21.1709 8.06511 21.1709 8.31715 21.423 8.30279 22.3133 8.30279 22.3133 7.90759 22.7304 7.33886 23.0665 6.89881 23.2192 6.2354 23.2118 6.10666 23.211 5.97792 23.2101 5.84529 23.2094 5.64584 23.2062 5.64584 23.2062 5.44238 23.2029 5.30698 23.2018 5.17158 23.2007 5.03208 23.1995 4.69887 23.1965 4.36573 23.1924 4.03256 23.1872 4.03651 23.3336 4.03651 23.3336 4.04056 23.4831 4.13322 27.4282 4.13322 27.4282 3.52849 28.4799 2.69874 29.1434 1.63114 29.1467 0.619011 29.1386 0.495951 29.1386 0.372893 29.1387 0.246104 29.1387-0.157548 29.1386-0.561172 29.1366-0.964821 29.1346-1.24591 29.1342-1.527 29.1338-1.8081 29.1336-2.54563 29.1326-3.28313 29.1302-4.02065 29.1273-4.77416 29.1248-5.52766 29.1236-6.28118 29.1224-7.75794 29.1196-9.23472 29.1153-10.7115 29.11-10.3946 28.7839-10.1589 28.5455-9.72697 28.3932-9.64818 28.3642-9.56939 28.3351-9.48823 28.3051-8.55219 28.0549-7.62395 28.0933-6.66219 28.1073-6.33368 28.1101-6.00519 28.1128-5.67669 28.1154-5.16238 28.1199-4.64811 28.1253-4.13384 28.133-3.63507 28.1403-3.13632 28.1436-2.63751 28.1466-2.41038 28.1511-2.41038 28.1511-2.17869 28.1558-1.01407 28.1593 0.0569767 27.9849 1.08644 27.4148 2.08793 26.3419 1.96392 24.8268 1.95948 23.4552 1.96058 23.23 1.96189 23.005 1.96339 22.7798 1.96674 22.1717 1.9669 21.5638 1.96627 20.9559 1.966 20.4471 1.96723 19.9382 1.96844 19.4292 1.97123 18.2283 1.97135 17.0273 1.96982 15.8263 1.9683 14.59 1.9714 13.3537 1.97677 12.1174 1.98122 11.0531 1.98272 9.98891 1.9819 8.92463 1.98145 8.29019 1.9821 7.65582 1.98561 7.0214 1.98879 6.42474 1.98828 5.82819 1.985 5.23154 1.98441 5.01346 1.98509 4.79539 1.98718 4.57732 2.00035 3.09486 1.80018 2.04433 0.812221 0.881137 0.71573 0.793093 0.619238 0.705047 0.519822 0.614335 0.345507 0.452677 0.171881 0.29026 0 0.126017 0 0.0844316 0 0.0428459 0 0Z" fill="#FAFAFA" transform="matrix(1.00515 0 0 1 114.3 83.861)"/><path d="M0 0C0.0857706-0.00178689 0.171541-0.00357378 0.259911-0.00541482 0.50407 0.0236283 0.50407 0.0236283 0.882122 0.275663 0.804148 0.306852 0.726175 0.338042 0.645839 0.370176 0.321851 0.560757 0.286493 0.69779 0.126017 1.03177-0.0652517 1.31994-0.262839 1.60303-0.461244 1.88633-0.791957 2.43398-0.774815 2.97686-0.77465 3.60241-0.775114 3.69663-0.775576 3.79087-0.776054 3.88794-0.777443 4.20388-0.777929 4.5198-0.778409 4.83573-0.779199 5.06221-0.780037 5.28867-0.780918 5.51515-0.783568 6.25913-0.784877 7.00313-0.786132 7.74712-0.786642 8.00345-0.787161 8.2598-0.787688 8.51614-0.790089 9.72068-0.791882 10.9252-0.792932 12.1298-0.794163 13.519-0.797478 14.9082-0.802572 16.2974-0.806376 17.372-0.808239 18.4464-0.808656 19.521-0.808952 20.1624-0.810076 20.8038-0.813252 21.4451-0.816192 22.049-0.816716 22.6529-0.815423 23.2568-0.815361 23.4777-0.816154 23.6987-0.817888 23.9196-0.836578 25.7911-0.836578 25.7911 0 27.4245 1.52748 28.2201 3.25412 28.035 4.92255 28.0074 7.98813 27.9612 7.98813 27.9612 9.41143 28.1058 9.55508 28.12 9.55508 28.12 9.70161 28.1345 10.6693 28.2476 11.4198 28.5666 12.0977 29.2597 10.3998 29.2742 8.7019 29.2854 7.00396 29.2924 6.21556 29.2956 5.42718 29.3 4.6388 29.3072 3.8781 29.314 3.11743 29.3178 2.35669 29.3195 2.06633 29.3206 1.77596 29.3229 1.48562 29.3263 1.07919 29.3308 0.672921 29.3314 0.266464 29.3312 0.0860385 29.3346 0.0860385 29.3346-0.0980319 29.3381-0.669306 29.3336-0.924143 29.3244-1.38866 28.9665-2.14488 27.9456-2.06256 26.882-2.03991 25.6682-2.038 25.4907-2.03628 25.3131-2.03474 25.1356-2.0303 24.7039-2.0241 24.2725-2.01628 23.841-2.1107 23.8611-2.20512 23.8814-2.3024 23.9023-3.40372 24.1091-4.79649 24.1354-5.7968 23.5889-6.16156 23.3283-6.37771 23.1591-6.48645 22.7161-6.522 22.232-6.46221 22.0019-6.18273 21.5962-5.10519 20.8265-3.92147 20.872-2.64636 20.9426-2.43844 20.9842-2.23051 21.0257-2.01628 21.0686-2.01628 16.9932-2.01628 12.9177-2.01628 8.71883-3.01434 8.71883-4.01239 8.71883-5.0407 8.71883-6.04883 8.34078-6.04883 8.34078-6.42689 7.96272-6.48483 7.56354-6.51797 7.33376-6.42689 6.95458-5.90347 6.38132-5.35988 6.09891-4.58222 6.05272-4.19391 6.04769-3.80652 6.0505-3.41822 6.05671-3.2834 6.05784-3.14857 6.05898-3.00965 6.06015-2.6785 6.06311-2.3474 6.06725-2.01628 6.07246-2.01826 5.94861-2.02024 5.82475-2.02228 5.69714-2.02918 5.23283-2.03348 4.76854-2.03705 4.30419-2.03894 4.10412-2.04151 3.90406-2.0448 3.704-2.07873 1.58914-2.07873 1.58914-1.63823 0.653715-1.12484 0.225896-0.6679 0.0063248 0 0Z" fill="#F8F8F8" transform="matrix(1.00515 0 0 1 85.1667 83.7113)"/><path d="M0 0C-0.0458093 0.058155-0.0916185 0.11631-0.138816 0.176228-0.27182 0.348792-0.402235 0.52337-0.530526 0.699467-0.669569 0.889729-0.812011 1.07762-0.959737 1.26122-1.68781 2.27649-1.61732 3.33634-1.60604 4.52946-1.60666 4.75708-1.60759 4.98471-1.60884 5.21232-1.6112 5.8276-1.60884 6.44278-1.60547 7.05806-1.60261 7.70374-1.60366 8.34942-1.60415 8.99511-1.60437 10.0793-1.60158 11.1635-1.59694 12.2477-1.5916 13.4987-1.59072 14.7496-1.59229 16.0007-1.59373 17.207-1.59229 18.4135-1.58947 19.6199-1.58831 20.1319-1.58808 20.6439-1.58861 21.1559-1.58909 21.7598-1.58703 22.3634-1.58306 22.9672-1.582 23.188-1.58177 23.4086-1.58248 23.6294-1.61441 25.514-1.61441 25.514-0.834705 27.1813-0.235673 27.7279 0.453447 27.8829 1.24242 27.8744 1.38512 27.8737 1.52781 27.8728 1.67483 27.8719 1.82763 27.8699 1.98044 27.8677 2.13786 27.8656 2.29733 27.8646 2.45681 27.8637 2.62112 27.8627 3.21637 27.8592 3.81156 27.8532 4.40678 27.8472 9.71666 27.794 9.71666 27.794 11.3416 28.858 11.3832 28.9412 11.4247 29.0243 11.4676 29.11 9.78612 29.1187 8.10466 29.1255 6.42317 29.1295 5.6424 29.1316 4.86165 29.1342 4.08088 29.1385 3.32754 29.1427 2.57421 29.1449 1.82084 29.1459 1.53329 29.1466 1.24575 29.1479 0.958215 29.15 0.555734 29.1527 0.153315 29.1531-0.249173 29.153-0.368278 29.1542-0.487384 29.1556-0.610098 29.157-1.21919 29.1541-1.65744 29.145-2.1423 28.732-2.54997 27.9457-2.66267 27.2625-2.65868 26.3864-2.65826 26.2293-2.65786 26.072-2.65744 25.9101-2.65585 25.6656-2.65585 25.6656-2.65424 25.4162-2.65367 25.2507-2.65311 25.0853-2.65251 24.9148-2.65104 24.507-2.64896 24.0991-2.64636 23.6913-2.7421 23.7116-2.83785 23.7318-2.93648 23.7526-4.07045 23.9681-5.36658 23.9205-6.42689 23.4392-6.87731 23.1147-7.03903 22.7853-7.13573 22.2343-7.03377 21.6735-6.8808 21.5113-6.42689 21.1709-5.32886 20.5586-3.84285 20.6796-2.64636 20.9189-2.64636 16.8435-2.64636 12.7681-2.64636 8.56918-3.68601 8.56918-4.72565 8.56918-5.7968 8.56918-6.80494 8.06511-6.80494 8.06511-7.05697 7.68706-7.11211 7.32476-7.11211 7.32476-7.05697 6.93096-6.65318 6.40478-6.1811 6.09594-5.54476 5.92282-5.04213 5.87877-4.54448 5.88699-4.04043 5.89919-3.83904 5.90175-3.83904 5.90175-3.63358 5.90436-3.30444 5.90879-2.97543 5.91498-2.64636 5.92282-2.64834 5.8124-2.65032 5.70197-2.65236 5.5882-2.65888 5.17107-2.66358 4.75399-2.66713 4.33684-2.66901 4.15768-2.67157 3.97854-2.67488 3.79941-2.72491 1.01921-2.72491 1.01921-1.96115 0.157522-1.30689-0.0720431-0.686226-0.0399744 0 0Z" fill="#F4F4F4" transform="matrix(1.00515 0 0 1 38.68 83.861)"/><path d="M0 0C-0.0472713 0.062541-0.0945425 0.125082-0.143246 0.189519-0.278229 0.368702-0.412751 0.548234-0.546895 0.728045-0.676156 0.901104-0.80627 1.07353-0.937747 1.24491-0.992165 1.31752-1.04658 1.39014-1.10265 1.46495-1.15139 1.52896-1.20012 1.59296-1.25033 1.65891-1.61384 2.27792-1.67023 2.87447-1.67278 3.58092-1.67344 3.67235-1.67409 3.76377-1.67477 3.85797-1.67666 4.16295-1.67675 4.4679-1.67684 4.77288-1.6778 4.99215-1.67885 5.21144-1.68001 5.43072-1.68277 6.02572-1.68389 6.62071-1.68452 7.21572-1.68499 7.58815-1.68577 7.96057-1.68667 8.333-1.68975 9.63433-1.69141 10.9357-1.69185 12.237-1.69231 13.4464-1.69607 14.6558-1.70135 15.8653-1.70575 16.9061-1.70767 17.9469-1.70776 18.9878-1.70786 19.6083-1.70895 20.2287-1.71255 20.8492-1.71587 21.434-1.71612 22.0186-1.7141 22.6034-1.71387 22.8166-1.71471 23.0298-1.71672 23.2429-1.74038 25.4234-1.74038 25.4234-0.798518 27.3131-0.54873 27.4752-0.54873 27.4752-0.126017 27.5978-0.0240836 27.6422 0.0778501 27.6865 0.182873 27.7321 0.850034 27.9077 1.49898 27.8755 2.18562 27.8656 2.41269 27.8642 2.41269 27.8642 2.64435 27.8627 3.28973 27.8587 3.93508 27.8516 4.58044 27.8447 5.05283 27.84 5.52523 27.837 5.99765 27.8341 6.14052 27.8319 6.28342 27.8299 6.43063 27.8278 8.12085 27.8176 9.95678 27.9188 11.3416 28.984 11.3416 29.0256 11.3416 29.0672 11.3416 29.11 9.69295 29.1158 8.04434 29.1203 6.39573 29.1231 5.63023 29.1244 4.86472 29.1261 4.09923 29.129 3.36058 29.1318 2.62194 29.1333 1.8833 29.134 1.60139 29.1343 1.31946 29.1353 1.03756 29.1366 0.642932 29.1385 0.248336 29.1387-0.146292 29.1386-0.321415 29.14-0.321415 29.14-0.500076 29.1414-1.52064 29.1381-1.52064 29.1381-2.01628 28.858-2.18364 28.603-2.18364 28.603-2.29982 28.3067-2.33945 28.2095-2.37909 28.1123-2.41992 28.0123-2.61317 27.4572-2.66136 26.9901-2.65868 26.3986-2.65826 26.2411-2.65786 26.0836-2.65744 25.9211-2.65585 25.675-2.65585 25.675-2.65424 25.424-2.65367 25.258-2.65311 25.092-2.65251 24.9209-2.65103 24.511-2.64896 24.1012-2.64636 23.6913-2.74079 23.7116-2.8352 23.7318-2.93249 23.7526-4.01242 23.9555-5.45735 24.0073-6.42689 23.4392-6.85881 23.1015-7.03962 22.7821-7.13573 22.2343-7.03377 21.6735-6.8808 21.5113-6.42689 21.1709-5.32886 20.5586-3.84285 20.6796-2.64636 20.9189-2.64636 16.8435-2.64636 12.7681-2.64636 8.56918-3.68601 8.56918-4.72565 8.56918-5.7968 8.56918-6.80494 8.06511-6.80494 8.06511-7.05697 7.68706-7.11211 7.32476-7.11211 7.32476-7.05697 6.93096-6.65318 6.40478-6.1811 6.09594-5.54476 5.92282-5.04213 5.87877-4.54448 5.88699-4.04043 5.89919-3.83904 5.90175-3.83904 5.90175-3.63358 5.90436-3.30444 5.90879-2.97543 5.91498-2.64636 5.92282-2.64834 5.80344-2.65032 5.68406-2.65236 5.56107-2.65885 5.11247-2.66357 4.66393-2.66713 4.21531-2.66902 4.02221-2.67158 3.82913-2.67488 3.63604-2.71894 0.989359-2.71894 0.989359-1.96115 0.173274-1.30807-0.0787878-0.691651-0.0402904 0 0Z" fill="#F9F9F9" transform="matrix(1.00515 0 0 1 133.047 83.861)"/><path d="M0 0C0.442996 0.20687 0.700444 0.43318 1.02389 0.803361 1.10999 0.900503 1.19608 0.997644 1.28479 1.09773 1.73343 1.66679 1.80098 2.10535 1.7971 2.82128 1.79781 2.96238 1.79781 2.96238 1.79856 3.10634 1.79986 3.42171 1.79935 3.73706 1.79886 4.05243 1.7994 4.27848 1.80006 4.50453 1.8008 4.73058 1.8025 5.34479 1.80257 5.95898 1.80225 6.57319 1.80211 7.08584 1.80273 7.5985 1.80333 8.11116 1.80473 9.32062 1.80478 10.5301 1.80403 11.7396 1.80326 12.9874 1.80481 14.2352 1.80749 15.483 1.80972 16.5543 1.81048 17.6254 1.81006 18.6966 1.80984 19.3364 1.81016 19.9763 1.81192 20.6161 1.8135 21.2178 1.81326 21.8197 1.81161 22.4214 1.81131 22.6422 1.81166 22.863 1.8127 23.0837 1.81402 23.3853 1.813 23.6869 1.8114 23.9884 1.81233 24.0756 1.81326 24.1628 1.81422 24.2525 1.80782 24.8272 1.68728 25.2192 1.38619 25.7075 0.78098 26.1694 0.177942 26.2284-0.565324 26.2219-0.700868 26.2211-0.836413 26.2203-0.976064 26.2194-1.19443 26.2173-1.19443 26.2173-1.4172 26.215-1.72872 26.2135-2.04023 26.2119-2.35175 26.2104-2.84031 26.2073-3.32886 26.2038-3.81741 26.1995-4.29064 26.1957-4.76386 26.1935-5.23711 26.1915-5.38039 26.1897-5.52367 26.188-5.67129 26.1863-7.41045 26.181-8.90826 26.4337-10.4594 27.2198-10.5111 27.1484-10.5628 27.0771-10.616 27.0036-10.6839 26.9113-10.7518 26.8188-10.8217 26.7235-10.9226 26.5854-10.9226 26.5854-11.0255 26.4445-11.2004 26.1976-11.2004 26.1976-11.4676 26.0856-11.3416 25.7075-11.3416 25.7075-11.125 25.5701-10.1274 25.1603-9.11277 25.0391-8.04936 24.9277-7.95424 24.9172-7.85912 24.9065-7.76112 24.8955-6.68147 24.7743-5.60683 24.685-4.52038 24.662-4.38304 24.659-4.38304 24.659-4.24293 24.6559-3.80743 24.6476-3.37254 24.6443-2.93699 24.6479-2.00176 24.6417-1.34699 24.5767-0.630087 23.9433-0.0350105 23.3283 0.0373177 22.5527 0.0303083 21.7311 0.0306313 21.5912 0.0306313 21.5912 0.0309608 21.4484 0.0313745 21.1373 0.029992 20.8261 0.0286124 20.515 0.0285412 20.2914 0.0285812 20.0679 0.0287239 19.8443 0.0287961 19.2382 0.027315 18.6322 0.0255548 18.026 0.0239785 17.3924 0.0238311 16.7587 0.0235321 16.1249 0.022749 14.9252 0.020681 13.7257 0.0181513 12.526 0.0153335 11.1601 0.0139482 9.79417 0.0126833 8.42826 0.0100494 5.61884 0.00561671 2.80942 0 0Z" fill="#FBFBFB" transform="matrix(1.00515 0 0 1 66.1667 84.7431)"/><path d="M0 0C0.411459 0.193987 0.655907 0.384862 0.953006 0.732476 1.02594 0.81646 1.09888 0.900443 1.17403 0.986972 1.66163 1.61485 1.81155 2.01241 1.81226 2.81954 1.81284 2.91191 1.81343 3.00427 1.81403 3.09944 1.81554 3.40833 1.81435 3.71715 1.81316 4.02603 1.81367 4.24777 1.81435 4.4695 1.81517 4.69122 1.81689 5.29322 1.81623 5.89518 1.81503 6.49718 1.81407 7.12768 1.81495 7.75818 1.81554 8.38869 1.81624 9.44805 1.81533 10.5074 1.81353 11.5668 1.81147 12.79 1.81214 14.0133 1.81422 15.2365 1.81594 16.2876 1.81617 17.3387 1.81519 18.3898 1.8146 19.0172 1.81452 19.6446 1.81577 20.2719 1.81687 20.8623 1.8161 21.4527 1.81392 22.0431 1.81343 22.2592 1.81355 22.4755 1.8144 22.6916 1.82167 24.7601 1.82167 24.7601 1.38619 25.7075 0.832156 26.1741 0.199076 26.2282-0.505485 26.224-0.628008 26.2235-0.750529 26.2231-0.876765 26.2227-1.00816 26.2216-1.13956 26.2206-1.27494 26.2194-1.48086 26.2188-1.48086 26.2188-1.69093 26.218-2.2763 26.216-2.86165 26.2125-3.44702 26.209-7.07061 26.1116-7.07061 26.1116-10.4594 27.2198-10.5005 27.1604-10.5416 27.1012-10.584 27.0401-10.6391 26.9617-10.6941 26.8832-10.7509 26.8024-10.805 26.7249-10.859 26.6474-10.9148 26.5675-11.0844 26.3444-11.2649 26.1528-11.4676 25.9596-10.3795 25.1824-9.25354 25.0904-7.96272 24.9436-7.8666 24.9323-7.77046 24.9211-7.67142 24.9095-6.02082 24.7181-4.3803 24.6341-2.71883 24.6369-1.50952 24.6486-1.50952 24.6486-0.50407 24.0693 0.199514 23.0822 0.0673918 21.8527 0.0572247 20.701 0.0570823 20.4749 0.0571626 20.2487 0.0574478 20.0226 0.0575918 19.4113 0.0546361 18.8002 0.0511096 18.1888 0.0479505 17.5492 0.0476618 16.9094 0.0470642 16.2696 0.0454998 15.0592 0.0413666 13.8489 0.0363026 12.6385 0.030661 11.2601 0.0278951 9.88173 0.0253665 8.5033 0.0201032 5.66885 0.0112415 2.83443 0 0Z" fill="#FCFCFC" transform="matrix(1.00515 0 0 1 160.533 84.7431)"/><path d="M0 0C0.142098 0.119801 0.283917 0.239935 0.425616 0.360208 0.504622 0.427072 0.583627 0.493935 0.665025 0.562825 0.914765 0.785166 1.11352 1.01956 1.30743 1.29168 1.36818 1.3755 1.42894 1.45932 1.49153 1.54568 1.79563 1.99877 1.7826 2.37549 1.78194 2.90572 1.78231 2.99837 1.78269 3.09102 1.78307 3.18648 1.78418 3.49854 1.78436 3.81063 1.78454 4.1227 1.78514 4.34582 1.78577 4.56894 1.78645 4.79206 1.7881 5.39953 1.78892 6.007 1.78947 6.61446 1.78984 6.99398 1.79035 7.37348 1.79092 7.75299 1.79265 8.9403 1.79386 10.1276 1.79435 11.3149 1.79492 12.6855 1.79712 14.0562 1.80078 15.4268 1.8035 16.486 1.80477 17.5451 1.80493 18.6045 1.80507 19.2371 1.80582 19.8697 1.80807 20.5024 1.81015 21.098 1.81042 21.6935 1.80931 22.2891 1.80921 22.5073 1.80976 22.7256 1.81101 22.9437 1.81261 23.2425 1.81187 23.5412 1.81055 23.84 1.81208 23.9684 1.81208 23.9684 1.81363 24.0994 1.80691 24.7572 1.65162 25.2404 1.38619 25.8336 0.804361 26.3083 0.170326 26.3548-0.559326 26.3459-0.693649 26.3447-0.827972 26.3434-0.966367 26.3422-1.11076 26.3404-1.25515 26.3385-1.40391 26.3366-1.71371 26.3345-2.0235 26.3323-2.33329 26.3302-2.8185 26.3264-3.3037 26.3219-3.78889 26.3161-7.04941 26.1952-7.04941 26.1952-10.0814 27.2198-10.2061 27.2613-10.3309 27.3029-10.4594 27.3458-10.5369 27.2411-10.5369 27.2411-10.616 27.1341-10.6839 27.0428-10.7518 26.9515-10.8217 26.8575-10.889 26.7668-10.9562 26.6761-11.0255 26.5827-11.2154 26.3272-11.2154 26.3272-11.4676 26.0856-10.5707 25.4801-9.72625 25.3049-8.66369 25.172-8.52026 25.1518-8.37682 25.1316-8.22904 25.111-6.93527 24.9347-5.64676 24.8273-4.3412 24.8032-4.18046 24.8002-4.01973 24.7973-3.85412 24.7942-3.52433 24.7888-3.1945 24.7848-2.86468 24.7823-1.5897 24.7814-1.5897 24.7814-0.50407 24.1953-0.0794039 23.5589 0.0734592 23.0931 0.0606166 22.3221 0.0612627 22.1782 0.0612627 22.1782 0.0619218 22.0314 0.0627478 21.7118 0.0599865 21.3925 0.0572247 21.073 0.0570825 20.8431 0.0571625 20.6134 0.0574478 20.3836 0.0575922 19.761 0.0546318 19.1386 0.0511096 18.5161 0.0479552 17.8651 0.0476622 17.2141 0.0470642 16.563 0.0454986 15.3308 0.0413633 14.0986 0.0363026 12.8664 0.0306653 11.4633 0.0278961 10.0602 0.0253665 8.65709 0.0201 5.77138 0.0112357 2.8857 0 0Z" fill="#F9F9F9" transform="matrix(1.00515 0 0 1 113.413 84.6171)"/><path d="M0 0C0.000417136 0.113793 0.000834272 0.227586 0.00126406 0.344826 0.0115086 3.11635 0.0231165 5.88786 0.0362334 8.65937 0.042544 9.99967 0.0483966 11.34 0.0531636 12.6802 0.0573206 13.8488 0.0623448 15.0172 0.068401 16.1857 0.0715764 16.8042 0.0743237 17.4225 0.0760318 18.041 0.0776552 18.6237 0.0804427 19.2066 0.0841019 19.7893 0.0852395 20.0025 0.0859612 20.2157 0.0862228 20.4291 0.0877651 21.4959 0.0972349 22.5269 0.378052 23.5653 0.294881 23.5653 0.211709 23.5653 0.126017 23.5653 0.0977521 23.6348 0.0694867 23.7042 0.0403649 23.7759-0.176909 24.159-0.456833 24.4239-0.771856 24.7309-0.886542 24.8433-1.00123 24.9557-1.11939 25.0715-1.20743 25.1567-1.29548 25.2418-1.38619 25.3295-1.84127 24.8744-1.78127 24.4145-1.78448 23.8004-1.78512 23.7083-1.78577 23.6162-1.78642 23.5211-1.78841 23.2115-1.78948 22.9019-1.79054 22.5923-1.79175 22.3706-1.793 22.1488-1.79429 21.9272-1.79824 21.1983-1.80079 20.4694-1.80313 19.7404-1.80355 19.6164-1.80396 19.4924-1.80439 19.3646-1.80827 18.1945-1.81164 17.0246-1.81377 15.8546-1.81653 14.3585-1.82182 12.8626-1.83058 11.3665-1.83654 10.3144-1.83959 9.26228-1.84051 8.21012-1.84114 7.58187-1.84303 6.95369-1.84803 6.32545-1.85269 5.73399-1.85374 5.14264-1.85206 4.55116-1.85208 4.33461-1.85336 4.11805-1.85607 3.9015-1.87 2.7221-1.86066 1.79047-1.00814 0.882122-0.921556 0.781894-0.834974 0.681666-0.745767 0.5784-0.637823 0.475329-0.637823 0.475329-0.527698 0.370176-0.45411 0.298538-0.380523 0.226901-0.304706 0.153091-0.126017 0-0.126017 0 0 0Z" fill="#FAFAFA" transform="matrix(1.00515 0 0 1 39.82 84.4911)"/><path d="M0 0C0.000533298 0.114675 0.0010666 0.229349 0.00161606 0.347499 0.0146392 3.1389 0.0283301 5.93032 0.0427626 8.72173 0.0497261 10.0716 0.0564641 11.4215 0.0626702 12.7715 0.0680806 13.9481 0.0739154 15.1249 0.0802578 16.3015 0.0836007 16.9245 0.0867323 17.5474 0.0893556 18.1703 0.091833 18.7571 0.0948789 19.3437 0.0983554 19.9304 0.0995302 20.1454 0.100499 20.3604 0.101245 20.5754 0.102296 20.8696 0.104098 21.164 0.106079 21.4582 0.106892 21.6228 0.107705 21.7873 0.108543 21.9568 0.121528 22.3092 0.151801 22.6293 0.203901 22.9757 0.252035 23.4392 0.252035 23.4392 0.0339656 23.7636-0.0682118 23.8516-0.170389 23.9394-0.275663 24.03-0.380278 24.1239-0.484891 24.2178-0.592675 24.3144-0.688192 24.3999-0.78371 24.4853-0.882122 24.5734-0.983487 24.7008-1.08485 24.8281-1.18929 24.9593-1.25427 25.0399-1.31925 25.1204-1.38619 25.2035-1.46936 25.2035-1.55253 25.2035-1.63823 25.2035-1.78791 24.7308-1.7819 24.2795-1.78448 23.7862-1.78512 23.6939-1.78577 23.6018-1.78642 23.5068-1.7884 23.1979-1.78948 22.8889-1.79054 22.5799-1.79175 22.3584-1.793 22.137-1.79429 21.9154-1.79824 21.1878-1.80079 20.4602-1.80313 19.7326-1.80355 19.6087-1.80396 19.4848-1.80439 19.3572-1.80827 18.1883-1.81164 17.0195-1.81377 15.8507-1.81653 14.357-1.82182 12.8635-1.83058 11.3698-1.83654 10.3188-1.83959 9.26783-1.84051 8.21685-1.84114 7.58952-1.84303 6.96225-1.84803 6.33493-1.85269 5.7443-1.85374 5.15376-1.85206 4.56311-1.85208 4.34701-1.85336 4.13091-1.85607 3.91483-1.87039 2.70661-1.83822 1.71747-1.00814 0.756104-0.25805 0-0.25805 0 0 0Z" fill="#FCFCFC" transform="matrix(1.00515 0 0 1 134.187 84.4911)"/><path d="M0 0C0.000799947 0.169715 0.000799947 0.169715 0.00161606 0.342858 0.0146464 3.0986 0.0283384 5.85434 0.0427626 8.61007 0.0497223 9.94275 0.0564598 11.2754 0.0626702 12.608 0.0680853 13.7699 0.073921 14.9318 0.0802578 16.0936 0.0835969 16.7085 0.0867284 17.3235 0.0893556 17.9383 0.0918378 18.5177 0.0948852 19.0972 0.0983554 19.6766 0.0995275 19.8887 0.100498 20.1007 0.101245 20.3127 0.102301 20.6037 0.103957 20.8946 0.106079 21.1855 0.106664 21.2743 0.107248 21.363 0.107851 21.4543 0.115135 22.0414 0.161157 22.6117 0.259172 23.1905 0.246684 23.6257-0.0256799 23.8788-0.319227 24.1771-0.398419 24.2507-0.477611 24.3243-0.559202 24.4001-0.637906 24.4786-0.71661 24.557-0.7977 24.6379-0.990822 24.8296-1.18811 25.017-1.38619 25.2035-1.85805 24.7317-1.78066 24.1889-1.78279 23.5467-1.78325 23.456-1.78371 23.3651-1.78419 23.2716-1.78558 22.9673-1.78607 22.663-1.78655 22.3586-1.78734 22.1404-1.78817 21.9222-1.78906 21.7041-1.7917 20.9874-1.79301 20.2709-1.79427 19.5544-1.79478 19.3075-1.79529 19.0606-1.79582 18.8139-1.79823 17.6543-1.80002 16.4947-1.80107 15.3351-1.8023 13.9971-1.80561 12.6592-1.81071 11.3212-1.81451 10.2866-1.81638 9.25204-1.81679 8.21745-1.8171 7.59972-1.81822 6.98202-1.82139 6.36429-1.82433 5.78298-1.82486 5.20171-1.82356 4.62039-1.8235 4.40744-1.82429 4.19449-1.82603 3.98156-1.83571 2.71944-1.821 1.79771-0.967282 0.787609-0.869003 0.694041-0.770725 0.600473-0.669467 0.50407-0.520587 0.359819-0.520587 0.359819-0.368699 0.212654-0.126017 0-0.126017 0 0 0Z" fill="#F8F8F8" transform="matrix(1.00515 0 0 1 87.0667 84.4911)"/><path d="M0 0C0.187867 0.00341133 0.187867 0.00341133 0.379529 0.00689158 0.475209 0.00981557 0.570888 0.0127396 0.669467 0.0157522 1.04206 0.838571 1.09209 1.51208 1.04752 2.41008 0.635359 2.45595 0.466777 2.44704 0.128971 2.19399 0.0318292 2.10155-0.0653124 2.00912-0.165398 1.91389-0.829837 1.34651-1.37019 1.2498-2.22893 1.27593-2.58787 2.22239-2.74675 3.16311-2.60698 4.17433-2.46026 4.47427-2.46026 4.47427-2.22893 4.6784-1.7032 4.7675-1.40744 4.79214-0.948576 4.51251-0.777525 4.37982-0.609969 4.24245-0.446969 4.1-0.189824 3.90498-0.0314308 3.81629 0.291415 3.79627 0.509484 3.91097 0.509484 3.91097 0.669467 4.17433 0.703744 4.53957 0.716494 4.87331 0.708848 5.2376 0.709254 5.33385 0.709661 5.43009 0.710079 5.52926 0.705395 6.01845 0.69863 6.40057 0.417433 6.82069-0.220569 6.7644-0.50598 6.47594-0.968759 6.06459-1.31795 5.88999-1.59047 5.91492-1.9769 5.93857-2.10165 6.02174-2.22641 6.10491-2.35495 6.1906-2.41388 6.5467-2.41388 6.5467-2.40515 6.96492-2.40565 7.12046-2.40614 7.276-2.40664 7.43626-2.40518 7.59959-2.40372 7.76294-2.40221 7.93122-2.40367 8.0931-2.40513 8.25497-2.40664 8.42175-2.40591 8.65579-2.40591 8.65579-2.40515 8.89456-2.40474 9.03749-2.40431 9.1804-2.40387 9.32765-2.34963 9.7617-2.2362 10.0002-1.9769 10.3492-1.57045 10.5524-1.15744 10.5339-0.716724 10.4752-0.439783 10.367-0.189175 10.24 0.069408 10.0937 0.291415 9.97112 0.291415 9.97112 0.669467 9.84511 0.811257 9.61414 0.811257 9.61414 0.921502 9.34104 1.00551 9.17302 1.08952 9.00499 1.17354 8.83697 1.38147 8.83697 1.58939 8.83697 1.80362 8.83697 2.18659 9.57099 2.2263 10.1579 2.18168 10.9793 1.36377 11.1005 0.563837 11.1274-0.262372 11.1309-0.397106 11.1316-0.53184 11.1323-0.670658 11.1331-0.953747 11.1342-1.23684 11.1351-1.51993 11.1356-1.9541 11.1368-2.38819 11.1407-2.82235 11.1447-3.09792 11.1455-3.37351 11.1461-3.64909 11.1466-3.77905 11.1482-3.909 11.1497-4.04289 11.1513-4.16324 11.151-4.28357 11.1506-4.40756 11.1502-4.51338 11.1507-4.61919 11.1511-4.72821 11.1516-5.06418 11.0946-5.177 10.9972-5.37937 10.7272-5.39512 10.4437-5.39512 10.4437-5.25335 10.0971-5.10717 9.97358-4.95912 9.85224-4.80992 9.73235-4.29133 9.22209-4.26651 8.79194-4.25835 8.0842-4.26133 7.94032-4.2643 7.79642-4.26736 7.64817-4.26741 7.49797-4.26747 7.34777-4.26752 7.19302-4.26857 6.87621-4.27177 6.55939-4.27699 6.24262-4.28457 5.75941-4.28475 5.27661-4.28385 4.79334-4.2858 4.48477-4.28816 4.1762-4.29099 3.86765-4.29116 3.72401-4.29132 3.58038-4.2915 3.43239-4.30918 2.57743-4.41308 2.00235-4.8753 1.27593-4.95847 1.23434-5.04164 1.19275-5.12733 1.14991-5.12733 0.900394-5.12733 0.65088-5.12733 0.393804-5.00715 0.391307-4.88698 0.388809-4.76315 0.386236-4.31714 0.376647-3.87118 0.365468-3.4252 0.353809-3.23221 0.348985-3.0392 0.344593-2.84619 0.34064-2.56869 0.334884-2.29127 0.327576-2.01382 0.319966-1.92756 0.31851-1.8413 0.317055-1.75244 0.315555-1.08844 0.294955-0.672721-0.0158288 0 0Z" fill="#262223" transform="matrix(1.00515 0 0 1 59.9205 89.516)"/><path d="M0 0C0.584958 1.0054 0.610397 1.76572 0.378052 2.8984 0.0954975 2.93778 0.0954975 2.93778-0.252035 2.8984-0.51293 2.62274-0.51293 2.62274-0.771856 2.26831-1.18118 1.77327-1.18118 1.77327-1.76326 1.55011-2.37621 1.51835-2.37621 1.51835-2.8984 1.76424-2.97761 2.23148-2.99652 2.68995-2.79157 3.12533-2.32191 3.72714-1.66971 4.12659-1.04946 4.55776 0.107661 5.36947 1.1867 6.31392 1.44576 7.76975 1.49825 8.70659 1.23394 9.53171 0.756104 10.3334 0.386039 10.7459-0.00677768 11.0929-0.50407 11.3416-0.769373 11.3523-1.03502 11.3551-1.30054 11.3539-1.45892 11.3535-1.61731 11.3531-1.78049 11.3526-1.94667 11.3516-2.11285 11.3505-2.28407 11.3494-2.4529 11.3488-2.62175 11.3482-2.79059 11.3477-3.20458 11.3462-3.61856 11.3441-4.03256 11.3416-4.03992 10.8139-4.04436 10.2862-4.04831 9.75847-4.05043 9.60959-4.05253 9.4607-4.05471 9.30732-4.05896 8.54978-4.04647 7.89602-3.78052 7.18299-3.40247 7.30901-3.40247 7.30901-3.27701 7.53511-3.24076 7.63155-3.20451 7.72799-3.16717 7.82736-3.12575 7.93269-3.08433 8.03804-3.04164 8.14658-2.95726 8.36894-2.87325 8.59144-2.78961 8.81408-2.50102 9.54568-2.23806 9.97051-1.51221 10.3334-1.02328 10.3653-0.658612 10.3718-0.252035 10.0814 0.0392286 9.70275 0.0540224 9.29236 0.038396 8.82269-0.0881684 7.98704-0.882239 7.41784-1.51221 6.93096-1.71545 6.79195-1.91877 6.65301-2.12343 6.51611-3.06148 5.88851-4.00292 5.21656-4.35449 4.09064-4.52957 3.12309-4.62215 2.0997-4.08769 1.23655-3.58906 0.623655-3.14432 0.29964-2.36086 0.199363-2.06962 0.177232-1.77797 0.159924-1.48612 0.148169-0.97043 0.115713-0.542548-0.0100472 0 0Z" fill="#262324" transform="matrix(1.00515 0 0 1 156.987 89.6578)"/><path d="M0 0C1.53867 0 3.07734 0 4.66264 0 4.66264 0.249514 4.66264 0.499029 4.66264 0.756104 4.44523 0.875066 4.22782 0.994028 4.0104 1.11299 3.75673 1.27541 3.58935 1.40015 3.40247 1.63823 3.3432 1.98714 3.3432 1.98714 3.34955 2.38836 3.34654 2.6199 3.34654 2.6199 3.34348 2.85612 3.34332 3.02478 3.34329 3.19344 3.34339 3.36211 3.3425 3.53523 3.34153 3.70835 3.34049 3.88147 3.33879 4.2444 3.3386 4.60731 3.33933 4.97024 3.34008 5.43458 3.33623 5.89875 3.33113 6.36305 3.32787 6.72068 3.32751 7.07828 3.32797 7.43592 3.32775 7.60705 3.32654 7.77818 3.3243 7.94929 3.26222 8.98401 3.26222 8.98401 3.70003 9.86585 4.01585 10.0706 4.30382 10.2207 4.66264 10.3334 4.66264 10.6661 4.66264 10.9988 4.66264 11.3416 3.12397 11.3416 1.5853 11.3416 0 11.3416 0 10.3334 0 10.3334 0.2161 10.1104 0.308531 10.0671 0.400962 10.0237 0.496193 9.979 0.771506 9.84938 0.771506 9.84938 1.00814 9.70334 1.14166 9.30277 1.15335 9.00976 1.15846 8.58871 1.16049 8.43729 1.16251 8.28586 1.1646 8.12984 1.1702 7.4379 1.17543 6.74599 1.17827 6.05404 1.17995 5.6889 1.18346 5.32387 1.18861 4.95877 1.19484 4.51709 1.19795 4.0755 1.19884 3.63379 1.2001 3.38457 1.20441 3.13539 1.20878 2.8862 1.23056 1.96297 1.23056 1.96297 0.833204 1.16409 0.51809 0.885031 0.51809 0.885031 0.212654 0.677343 0.142479 0.620163 0.0723025 0.562983 0 0.50407 0 0.337727 0 0.171384 0 0Z" fill="#262223" transform="matrix(1.00515 0 0 1 103.027 89.7838)"/><path d="M0 0C0.914886 0 1.82977 0 2.77238 0 2.63367 0.554808 2.50916 0.622683 2.08174 0.958545 1.76492 1.2491 1.60961 1.61065 1.4492 2.00053 1.41258 2.08684 1.37596 2.17314 1.33823 2.26206 0.891641 3.36643 0.629714 4.52469 0.345625 5.67872 0.0895387 6.69145-0.209978 7.69298-0.50407 8.6952-0.529776 8.78341-0.555483 8.87161-0.581968 8.96249-0.963461 10.2664-0.963461 10.2664-1.26017 10.7115-1.49962 10.6769-1.49962 10.6769-1.76424 10.5855-1.92035 10.2324-2.03982 9.90529-2.15017 9.53794-2.18079 9.44299-2.21142 9.34805-2.24296 9.25022-2.41782 8.69687-2.56618 8.14009-2.70346 7.5763-3.12837 5.84876-3.71803 4.14411-4.42636 2.51247-4.46415 2.42343-4.50196 2.3344-4.5409 2.24266-4.79258 1.6851-5.09847 1.26622-5.52255 0.824805-5.67078 0.630087-5.67078 0.630087-5.67078 0.252035-4.42321 0.252035-3.17564 0.252035-1.89026 0.252035-2.1423 1.13416-2.1423 1.13416-2.39433 1.51221-2.47791 2.28989-2.25435 2.88872-1.9769 3.59937-1.91854 3.75519-1.91854 3.75519-1.85901 3.91416-1.64615 4.47475-1.41403 5.01344-1.13416 5.54476-1.0094 5.54476-0.884642 5.54476-0.756104 5.54476 0.203169 3.60101 0.203169 3.60101 0.50407 1.51221 0.420898 1.38745 0.337727 1.26269 0.252035 1.13416 0 0.756104 0 0.756104 0 0Z" fill="#262223" transform="matrix(1.00515 0 0 1 48.6867 89.9098)"/><path d="M0 0C0.226122 0.124757 0.226122 0.124757 0.456813 0.252035 1.3117 0.63728 2.38653 0.674695 3.27645 0.378052 4.65276 0.369296 6.0353 0.537816 7.40201 0.687023 7.58476 0.706606 7.76762 0.725209 7.95057 0.742763 9.13698 0.858251 10.0853 1.09287 11.0895 1.76424 10.996 1.83183 10.9024 1.8994 10.806 1.96902 10.4372 2.28754 10.2091 2.61087 9.95537 3.02442 9.65851 2.9095 9.36572 2.79215 9.07965 2.65228 7.81934 2.04588 6.55597 1.97937 5.17246 1.974 4.9081 1.97294 4.6438 1.97033 4.37947 1.96737 3.72467 1.96034 3.06985 1.95581 2.41501 1.95129 1.85787 1.94736 1.30076 1.94243 0.743639 1.93614 0.483249 1.93361 0.222879 1.93256-0.037521 1.93157-0.194498 1.92987-0.351474 1.92818-0.513207 1.92644-0.651742 1.92552-0.790278 1.9246-0.93301 1.92366-1.26017 1.89026-1.26017 1.89026-1.51221 1.63823-1.01318 1.09761-0.514151 0.556997 0 0Z" fill="#F8F8F8" transform="matrix(1.00515 0 0 1 134.947 108.812)"/><path d="M0 0C0.096167 0.0389866 0.192334 0.0779732 0.291415 0.118141 0.854998 0.340953 1.27589 0.395077 1.88238 0.393804 2.11411 0.394292 2.11411 0.394292 2.35051 0.394789 2.74807 0.393812 2.74807 0.393812 3.02737 0.312582 4.30826 0.00121963 5.9719 0.422821 7.27429 0.567928 7.45841 0.588167 7.64261 0.607624 7.8269 0.626252 8.93338 0.739462 9.88013 0.913623 10.8375 1.51221 10.6189 1.98786 10.3355 2.28525 9.95537 2.64636 9.8722 2.72954 9.78903 2.81271 9.70334 2.8984 9.59501 2.82105 9.4867 2.74369 9.3751 2.66399 7.60099 1.49246 5.10741 1.83494 3.07587 1.86299 2.3363 1.87261 1.59668 1.87728 0.857077 1.88259 0.60024 1.8848 0.343435 1.88811 0.086612 1.89161-0.0683212 1.89325-0.223255 1.89489-0.382882 1.89656-0.587415 1.89927-0.587415 1.89927-0.796078 1.90202-1.13416 1.89026-1.13416 1.89026-1.51221 1.76424-1.31226 1.27241-0.991316 0.965897-0.614335 0.598583-0.499649 0.486171-0.384963 0.37376-0.266803 0.257942-0.178758 0.172821-0.0907129 0.0877003 0 0Z" fill="#F7F6F6" transform="matrix(1.00515 0 0 1 40.7067 108.938)"/><path d="M0 0C0.150748 0.0623786 0.301497 0.124757 0.456813 0.189026 1.32686 0.482737 2.40039 0.544055 3.27645 0.252035 4.41135 0.176021 5.55612 0.351817 6.68132 0.479703 6.92066 0.506383 7.16016 0.531782 7.39977 0.555879 9.95671 0.813298 9.95671 0.813298 11.0895 1.63823 10.6695 2.05828 10.2494 2.47835 9.82936 2.8984 9.75593 2.85731 9.68251 2.8162 9.60686 2.77386 9.50354 2.71879 9.40023 2.66372 9.29378 2.60698 9.19437 2.55289 9.09495 2.4988 8.99252 2.44306 7.72325 1.91912 6.48595 1.83474 5.12635 1.83464 4.94546 1.83315 4.76458 1.83146 4.58371 1.8296 4.11272 1.82507 3.64174 1.8225 3.17074 1.82057 2.41264 1.81742 1.65458 1.81246 0.896528 1.80521 0.632504 1.80316 0.368509 1.80268 0.104477 1.80231-0.0546152 1.80103-0.213708 1.79974-0.377621 1.79842-0.588213 1.79761-0.588213 1.79761-0.803057 1.79679-1.13416 1.76424-1.13416 1.76424-1.38619 1.51221-1.29668 1.42416-1.20718 1.33612-1.11496 1.24541-0.999135 1.13072-0.883313 1.01604-0.76398 0.897874-0.590734 0.72682-0.590734 0.72682-0.413987 0.55231-0.124521 0.280159-0.124521 0.280159 0 0Z" fill="#F8F8F8" transform="matrix(1.00515 0 0 1 87.7 108.938)"/><path d="M0 0C1.42989-0.152748 1.42989-0.152748 1.90208 0.193457 2.10016 0.455719 2.25018 0.713052 2.39433 1.00814 2.4723 1.14849 2.55028 1.28884 2.63061 1.43345 2.86654 2.19365 2.92087 2.85345 2.55973 3.57574 2.46356 3.6849 2.36739 3.79407 2.26831 3.90654 2.18514 4.00531 2.10197 4.10407 2.01628 4.20583 1.4149 4.53157 0.795735 4.44906 0.126017 4.41061-0.188346 3.66979-0.190996 2.92663-0.22053 2.13442-0.227516 1.99886-0.234501 1.86331-0.241698 1.72363-0.247058 1.59262-0.252419 1.46161-0.257942 1.32662-0.262937 1.20803-0.267932 1.08944-0.273078 0.967251-0.25008 0.598774-0.154257 0.333327 0 0Z" fill="#FBFAFA" transform="matrix(1.00515 0 0 1 94.4133 90.6659)"/><path d="M0 0C0.0415857 0 0.0831715 0 0.126017 0 0.126017 5.03187 0.126017 10.0637 0.126017 15.2481-0.126017 15.2481-0.126017 15.2481-0.303722 15.0763-0.372436 14.9952-0.441149 14.9142-0.511946 14.8307-0.628174 14.6938-0.628174 14.6938-0.746751 14.554-0.876138 14.3986-0.876138 14.3986-1.00814 14.24-1.10609 14.1233-1.20405 14.0067-1.30497 13.8865-2.52388 12.4191-2.52388 12.4191-2.51444 11.8963-2.36338 11.5156-2.19384 11.3918-1.85876 11.1604-1.10843 10.609-0.485434 10.0105-0.252035 9.07325-0.121305 7.89997-0.102619 6.71727-0.0861447 5.53787-0.083526 5.37813-0.0809072 5.2184-0.078209 5.05383-0.071441 4.63579-0.0650872 4.21774-0.0589475 3.79969-0.0525371 3.37045-0.0455635 2.94121-0.0386421 2.51198-0.0252516 1.67466-0.0124088 0.837334 0 0Z" fill="#FBFBFB" transform="matrix(1.00515 0 0 1 99.3533 84.4911)"/><path d="M0 0C0.359665 0.286097 0.570818 0.481286 0.645346 0.944146 0.668143 1.8265 0.668143 1.8265 0.291415 2.29982 0.184851 2.38039 0.0782883 2.46096-0.0315043 2.54398-0.0730901 2.58556-0.114676 2.62715-0.157522 2.66999-0.764346 2.73855-1.26109 2.76134-1.79575 2.44946-2.24509 1.94396-2.35913 1.59732-2.33969 0.901319-2.27459 0.497038-2.0918 0.295677-1.79575 0.0236283-1.16233-0.32642-0.634079-0.353621 0 0Z" fill="#F7F7F7" transform="matrix(1.00515 0 0 1 101.158 111.813)"/><path d="M0 0C0.365052 0.27744 0.553591 0.477094 0.756104 0.882122 0.841957 1.74065 0.841957 1.74065 0.624179 2.12014 0.316145 2.49431 0.0836298 2.74641-0.404142 2.80684-1.29459 2.84155-1.29459 2.84155-1.77212 2.48097-2.15827 1.94533-2.18711 1.53188-2.1423 0.882122-1.69221-0.0823498-0.977923-0.144401 0 0Z" fill="#FAFAFA" transform="matrix(1.00515 0 0 1 148.12 111.711)"/><path d="M0 0C0.464078 0.103835 0.67743 0.325155 0.953499 0.702449 0.995085 0.744034 1.03667 0.78562 1.07952 0.828466 1.1374 1.36725 1.13535 1.83141 0.921995 2.3328 0.630433 2.67642 0.368649 2.81839-0.0777764 2.88708-0.581755 2.89582-0.864605 2.88773-1.30694 2.62421-1.68687 2.20975-1.79749 1.9784-1.88189 1.41917-1.80951 0.885382-1.68747 0.627059-1.32073 0.240221-0.89276-0.0382811-0.499074-0.0305556 0 0Z" fill="#FAFAFA" transform="matrix(1.00515 0 0 1 53.4283 111.638)"/><path d="M0 0C0 3.90906 0 7.81812 0 11.8456-0.0415857 11.8456-0.0831715 11.8456-0.126017 11.8456-0.125447 11.6761-0.125447 11.6761-0.124866 11.5032-0.122056 10.4353-0.123483 9.36746-0.129605 8.29955-0.132603 7.7506-0.133996 7.20174-0.131648 6.65277-0.129439 6.12242-0.131541 5.59224-0.136563 5.0619-0.137728 4.86015-0.137373 4.65837-0.13543 4.45662-0.0947845 3.15008-0.0947845 3.15008-0.698233 2.03449-0.778714 1.96445-0.859194 1.89441-0.942113 1.82224-1.13416 1.63823-1.13416 1.63823-1.16566 1.2523-0.632769 0-0.632769 0 0 0Z" fill="#D5D4D4" transform="matrix(1.00515 0 0 1 146.6 97.7229)"/><path d="M0 0C0.124757 0 0.249514 0 0.378052 0 0.902322 0.968028 1.07965 1.6711 1.00814 2.77238 0.550696 2.77238 0.0932529 2.77238-0.378052 2.77238-0.583996 1.74266-0.400537 0.957808 0 0Z" fill="#F0EFEF" transform="matrix(1.00515 0 0 1 146.6 93.8164)"/><path d="M0 0C0.0415857 0 0.0831715 0 0.126017 0 0.126017 5.03187 0.126017 10.0637 0.126017 15.2481 0.0428459 15.2065-0.0403256 15.1649-0.126017 15.1221-0.125737 15.0519-0.125458 14.9817-0.125169 14.9094-0.122384 14.1796-0.120482 13.4498-0.119095 12.7201-0.118461 12.4476-0.1176 12.1751-0.116511 11.9026-0.114985 11.5113-0.114268 11.12-0.113711 10.7287-0.113061 10.6066-0.11241 10.4845-0.11174 10.3587-0.111731 10.2452-0.111721 10.1317-0.111711 10.0148-0.111431 9.91488-0.111151 9.81498-0.110863 9.71205-0.116105 9.4263-0.116105 9.4263-0.252035 9.07325-0.241835 8.80785-0.223008 8.54274-0.199395 8.2782-0.126303 7.36395-0.0989516 6.4547-0.0861447 5.53787-0.083526 5.37813-0.0809072 5.2184-0.078209 5.05383-0.071441 4.63579-0.0650872 4.21774-0.0589475 3.79969-0.0525371 3.37045-0.0455635 2.94121-0.0386421 2.51198-0.0252516 1.67466-0.0124088 0.837334 0 0Z" fill="#E4E4E4" transform="matrix(1.00515 0 0 1 99.3533 84.4911)"/></g></g></g></g></svg>